<?xml version="1.0" encoding="iso-8859-1"?>
<!-- Uploaded to: SVG Repo, www.svgrepo.com, Generator: SVG Repo Mixer Tools -->
<svg fill="#E0DEF4" height="800px" width="800px" version="1.1" id="Layer_1" xmlns="http://www.w3.org/2000/svg" xmlns:xlink="http://www.w3.org/1999/xlink"
	 viewBox="0 0 512 512" xml:space="preserve">
<g>
	<g>
		<path d="M24.249,147.146C8.705,180.182,0,217.072,0,256c0,16.112,1.504,31.871,4.352,47.158h175.91L24.249,147.146z"/>
	</g>
</g>
<g>
	<g>
		<path d="M401.148,45.118L277.845,168.421h218.776C478.279,118.04,444.56,75.057,401.148,45.118z"/>
	</g>
</g>
<g>
	<g>
		<path d="M507.649,208.842H331.881l155.88,155.993C503.299,331.804,512,294.92,512,256
			C512,239.888,510.496,224.129,507.649,208.842z"/>
	</g>
</g>
<g>
	<g>
		<path d="M45.118,110.853l123.303,123.302V15.379C118.039,33.721,75.055,67.44,45.118,110.853z"/>
	</g>
</g>
<g>
	<g>
		<path d="M147.146,487.751C180.182,503.296,217.072,512,256,512c16.112,0,31.871-1.505,47.158-4.351V331.74L147.146,487.751z"/>
	</g>
</g>
<g>
	<g>
		<path d="M343.579,277.845v218.776c50.382-18.342,93.366-52.061,123.303-95.474L343.579,277.845z"/>
	</g>
</g>
<g>
	<g>
		<path d="M15.379,343.579c18.342,50.381,52.061,93.365,95.473,123.303l123.303-123.303H15.379z"/>
	</g>
</g>
<g>
	<g>
		<path d="M256,0c-16.112,0-31.871,1.505-47.158,4.352V180.26L364.854,24.249C331.818,8.704,294.928,0,256,0z"/>
	</g>
</g>
</svg>