<?xml version="1.0" encoding="UTF-8" standalone="no"?>
<svg
   width="64px"
   height="64px"
   viewBox="0 0 64 64"
   version="1.1"
   id="svg31533"
   sodipodi:docname="atom.svg"
   inkscape:version="1.1 (c68e22c387, 2021-05-23)"
   xmlns:inkscape="http://www.inkscape.org/namespaces/inkscape"
   xmlns:sodipodi="http://sodipodi.sourceforge.net/DTD/sodipodi-0.dtd"
   xmlns="http://www.w3.org/2000/svg"
   xmlns:svg="http://www.w3.org/2000/svg">
  <sodipodi:namedview
     id="namedview9"
     pagecolor="#505050"
     bordercolor="#eeeeee"
     borderopacity="1"
     inkscape:pageshadow="0"
     inkscape:pageopacity="0"
     inkscape:pagecheckerboard="0"
     showgrid="false"
     inkscape:zoom="12.984375"
     inkscape:cx="21.525872"
     inkscape:cy="31.961492"
     inkscape:window-width="2518"
     inkscape:window-height="1398"
     inkscape:window-x="0"
     inkscape:window-y="0"
     inkscape:window-maximized="1"
     inkscape:current-layer="surface1" />
  <defs
     id="defs31537" />
  <g
     id="surface1">
    <path
       style="fill:#d0ebee;fill-opacity:1;fill-rule:nonzero;stroke:none;stroke-width:1.45663"
       d="m 18.170915,8.3240183 c -1.530595,0.8819404 -2.401158,2.5377147 -2.753933,4.5007467 -0.352777,1.957341 -0.244668,4.301597 0.233286,6.936042 0.227598,1.234719 0.534855,2.532027 0.921773,3.880543 -1.359898,0.335708 -2.640135,0.716933 -3.817954,1.137989 -1.576115,0.563306 -2.9815316,1.194888 -4.1877999,1.906131 -0.7169338,0.426746 -1.3712765,0.876253 -1.940271,1.359898 C 5.1068004,29.336986 4.10537,30.9131 4.10537,32.682673 c 0,1.849232 1.0924696,3.487936 2.7368634,4.813695 1.6500848,1.325756 3.9033026,2.429604 6.6287866,3.339997 0.608824,0.204837 1.268857,-0.119493 1.468006,-0.728314 0.204837,-0.608823 -0.130869,-1.263167 -0.739693,-1.462315 C 11.644547,37.797934 9.613237,36.768054 8.2874801,35.704035 6.9674128,34.640014 6.4097975,33.627204 6.4097975,32.682673 c 0,-0.899012 0.5007152,-1.860613 1.7069835,-2.879111 1.2005789,-1.0185 3.061191,-2.014241 5.411139,-2.856354 1.137989,-0.403986 2.389776,-0.773832 3.738293,-1.103848 0.739694,2.190629 1.672844,4.489367 2.793764,6.839313 -2.21339,4.654374 -3.709845,9.098223 -4.409709,12.921866 -0.477954,2.634445 -0.586063,4.978701 -0.233286,6.936042 0.352775,1.963033 1.223338,3.618807 2.753933,4.500747 1.496456,0.864872 3.317238,0.813663 5.14371,0.182079 1.826473,-0.625894 3.743983,-1.820784 5.735465,-3.470866 0.500715,-0.403988 0.574683,-1.137989 0.165007,-1.633015 -0.415365,-0.495026 -1.149368,-0.557614 -1.638704,-0.142248 -1.843542,1.530595 -3.578974,2.577544 -5.012841,3.07257 -1.433866,0.489335 -2.480816,0.438125 -3.237578,0 -0.785213,-0.449506 -1.359898,-1.365587 -1.644396,-2.918943 -0.278806,-1.553354 -0.210528,-3.658634 0.233289,-6.11669 0.568994,-3.11809 1.746814,-6.788104 3.465177,-10.685717 0.477955,0.910391 0.98436,1.826472 1.513526,2.748243 3.795193,6.566198 8.148001,11.954575 12.239071,15.431132 2.042691,1.735432 4.017102,2.998601 5.894783,3.670013 1.871991,0.671415 3.743985,0.751073 5.27458,-0.136558 1.530594,-0.88194 2.401157,-2.537714 2.753932,-4.500747 0.352777,-1.957341 0.244668,-4.301597 -0.233286,-6.936042 -0.961602,-5.280269 -3.453797,-11.749737 -7.243302,-18.315934 -0.312945,-0.557616 -1.024189,-0.756762 -1.581803,-0.432436 -0.557616,0.318637 -0.739694,1.035571 -0.415367,1.587495 3.681394,6.372739 6.076862,12.660128 6.975873,17.570551 0.443817,2.458056 0.512095,4.563336 0.233289,6.11669 -0.284498,1.553356 -0.859183,2.469437 -1.644396,2.918943 -0.779522,0.449504 -1.86061,0.495025 -3.345687,-0.03983 -1.479386,-0.529164 -3.277409,-1.644394 -5.17785,-3.260337 -3.806573,-3.23189 -8.051273,-8.449571 -11.732668,-14.827998 -0.825041,-1.422486 -1.581804,-2.839282 -2.270287,-4.239009 0.688483,-1.399728 1.445246,-2.816524 2.270287,-4.23901 0.819353,-1.428176 1.672845,-2.788072 2.537716,-4.09107 1.559044,-0.102418 3.16361,-0.153629 4.808004,-0.153629 7.36279,0 14.002954,1.069709 18.708539,2.748244 2.349948,0.842112 4.21056,1.837853 5.411139,2.856353 1.206268,1.018499 1.706984,1.980099 1.706984,2.879112 0,0.881941 -0.477956,1.809403 -1.621635,2.805142 -1.14368,0.995741 -2.913251,1.974412 -5.16078,2.805143 -0.608825,0.216218 -0.921772,0.887632 -0.694175,1.485077 0.221909,0.603134 0.893324,0.910391 1.490767,0.677103 2.423916,-0.899012 4.421088,-1.963032 5.877713,-3.231888 1.456627,-1.263169 2.412537,-2.816524 2.412537,-4.540577 0,-1.769573 -1.001431,-3.345688 -2.520646,-4.637306 -1.519216,-1.285927 -3.601735,-2.367017 -6.128071,-3.266028 -5.052671,-1.803712 -11.897676,-2.884802 -19.482372,-2.884802 -1.058329,0 -2.105279,0.02276 -3.135161,0.06259 2.514957,-3.436727 5.109572,-6.29308 7.522109,-8.34146 1.900441,-1.615945 3.698464,-2.731175 5.17785,-3.260339 1.485077,-0.5348538 2.566165,-0.4893342 3.345687,-0.03983 0.825044,0.477956 1.422487,1.473697 1.684224,3.16361 0.256047,1.695604 0.125179,3.994342 -0.426746,6.651546 -0.142248,0.631584 0.256049,1.251789 0.887633,1.382657 0.631583,0.130869 1.246096,-0.278808 1.365586,-0.910392 0.591755,-2.839283 0.773832,-5.365617 0.449505,-7.470898 -0.318637,-2.105285 -1.194887,-3.8805488 -2.805142,-4.8080087 -1.530595,-0.8876315 -3.402589,-0.807973 -5.27458,-0.1365587 -0.705553,0.2503575 -1.422485,0.5860646 -2.150799,1.0014303 -1.217649,0.6827935 -2.469436,1.5874951 -3.743984,2.6685841 -2.958772,2.514956 -6.059792,6.037031 -8.984424,10.27604 -2.594615,0.210529 -5.052671,0.551926 -7.322959,1.00143 -0.386916,-1.331446 -0.694173,-2.600304 -0.910391,-3.783812 -0.443817,-2.458058 -0.512095,-4.563336 -0.233289,-6.116691 0.284498,-1.553356 0.859183,-2.469436 1.644396,-2.918943 0.768141,-0.4438146 1.832161,-0.4893342 3.288788,0.01707 1.456625,0.512095 3.220509,1.593186 5.092501,3.16361 0.489334,0.421056 1.223338,0.364157 1.638703,-0.130869 C 29.755643,12.87028 29.687364,12.136276 29.186648,11.73229 27.172408,10.042381 25.226446,8.8133528 23.377215,8.1646998 21.527983,7.5103557 19.68444,7.447766 18.170915,8.3240183 Z m 1.359897,17.0243167 c 1.570425,-0.301569 3.237578,-0.551926 4.984392,-0.745384 -0.546235,0.870562 -1.09247,1.769574 -1.621634,2.685654 -0.529166,0.921772 -1.035571,1.837853 -1.513526,2.748244 -0.711243,-1.610255 -1.325757,-3.18068 -1.849232,-4.688514 z m 0,0"
       id="path31528" />
    <path
       style="fill:#d0ebee;fill-opacity:1;fill-rule:nonzero;stroke:none;stroke-width:1.45663"
       d="m 32.236459,29.792181 c 1.598874,0 2.890493,1.291617 2.890493,2.890492 0,1.598874 -1.291619,2.890493 -2.890493,2.890493 -1.598875,0 -2.890493,-1.291619 -2.890493,-2.890493 0,-1.598875 1.291618,-2.890492 2.890493,-2.890492 z m 0,0"
       id="path31530" />
  </g>
</svg>
