<?xml version="1.0" encoding="UTF-8" standalone="no"?>
<svg
   xmlns:dc="http://purl.org/dc/elements/1.1/"
   xmlns:cc="http://creativecommons.org/ns#"
   xmlns:rdf="http://www.w3.org/1999/02/22-rdf-syntax-ns#"
   xmlns:svg="http://www.w3.org/2000/svg"
   xmlns="http://www.w3.org/2000/svg"
   xmlns:sodipodi="http://sodipodi.sourceforge.net/DTD/sodipodi-0.dtd"
   xmlns:inkscape="http://www.inkscape.org/namespaces/inkscape"
   width="64px"
   height="64px"
   viewBox="0 0 64 64"
   version="1.1"
   id="svg9"
   sodipodi:docname="discord.svg"
   inkscape:version="1.0.2 (e86c870879, 2021-01-15)">
  <metadata
     id="metadata15">
    <rdf:RDF>
      <cc:Work
         rdf:about="">
        <dc:format>image/svg+xml</dc:format>
        <dc:type
           rdf:resource="http://purl.org/dc/dcmitype/StillImage" />
      </cc:Work>
    </rdf:RDF>
  </metadata>
  <defs
     id="defs13" />
  <sodipodi:namedview
     pagecolor="#ffffff"
     bordercolor="#666666"
     borderopacity="1"
     objecttolerance="10"
     gridtolerance="10"
     guidetolerance="10"
     inkscape:pageopacity="0"
     inkscape:pageshadow="2"
     inkscape:window-width="2560"
     inkscape:window-height="1403"
     id="namedview11"
     showgrid="false"
     inkscape:zoom="15.75"
     inkscape:cx="32"
     inkscape:cy="32"
     inkscape:window-x="0"
     inkscape:window-y="0"
     inkscape:window-maximized="1"
     inkscape:current-layer="surface1" />
  <g
     id="surface1">
    <path
       style="fill:#0c0e11;fill-opacity:1;fill-rule:nonzero;stroke:none"
       d="M 5.4216892,8.1996528 H 58.335751 c 1.460938,0 2.648438,1.183594 2.648438,2.6445312 v 42.335938 c 0,1.460937 -1.1875,2.644531 -2.648438,2.644531 H 5.4216892 c -1.460938,0 -2.648438,-1.183594 -2.648438,-2.644531 V 10.844184 c 0,-1.4609372 1.1875,-2.6445312 2.648438,-2.6445312 z m 0,0"
       id="path4" />
    <path
       style="fill:#d0ebee;fill-opacity:1;fill-rule:nonzero;stroke:none"
       d="m 27.757626,21.434028 c -2.566406,0.121094 -5.113281,1.125 -7.109375,2.714844 -2.265625,4.515625 -3.585937,9.539062 -3.613281,14.597656 -0.199219,2.707031 4.785156,3.765625 7.742188,3.832031 1.515624,-0.07422 2.5625,-1.476562 1.550781,-2.128906 -1.339844,-0.480469 -3.277344,-0.902344 -4.238281,-1.800781 -1.050782,-0.695313 -0.699219,-1.398438 -0.05469,-1.125 2.921875,1.84375 6.359375,2.835937 9.804688,2.875 h 0.05469 c 3.445313,-0.03906 6.886719,-1.03125 9.804687,-2.875 0.644532,-0.273438 0.996094,0.429687 -0.05469,1.125 -0.960937,0.898437 -2.898437,1.320312 -4.238281,1.800781 -1.011719,0.652344 0.03516,2.054688 1.550781,2.128906 2.957031,-0.06641 7.941406,-1.125 7.742187,-3.832031 -0.02734,-5.058594 -1.347656,-10.082031 -3.613281,-14.597656 -1.992187,-1.589844 -4.542969,-2.59375 -7.109375,-2.714844 -0.121094,0.02734 -0.195312,0.226563 -0.292968,0.304687 2.382812,0.695313 4.742187,1.683594 6.648437,3.300782 -2.074219,-1.070313 -4.3125,-1.878906 -6.628906,-2.226563 -1.265625,-0.214843 -2.550781,-0.320312 -3.839844,-0.3125 -1.28125,-0.0078 -2.566406,0.09766 -3.832031,0.3125 -2.316406,0.347657 -4.554688,1.15625 -6.628906,2.226563 1.90625,-1.617188 4.265624,-2.605469 6.648437,-3.300782 -0.09766,-0.07812 -0.171875,-0.277343 -0.292969,-0.304687 z m -1.464844,8.8125 c 1.550782,0 2.796876,1.25 2.796876,2.800781 0,1.554688 -1.246094,2.804688 -2.796876,2.804688 -1.554687,0 -2.800781,-1.25 -2.800781,-2.804688 0,-1.550781 1.246094,-2.800781 2.800781,-2.800781 z m 11.207032,0 c 1.550781,0 2.800781,1.25 2.800781,2.800781 0,1.554688 -1.25,2.804688 -2.800781,2.804688 -1.554688,0 -2.804688,-1.25 -2.804688,-2.804688 0,-1.550781 1.25,-2.800781 2.804688,-2.800781 z m 0,0"
       id="path6" />
  </g>
</svg>
