<?xml version="1.0" encoding="UTF-8" standalone="no"?>
<svg
   xmlns:dc="http://purl.org/dc/elements/1.1/"
   xmlns:cc="http://creativecommons.org/ns#"
   xmlns:rdf="http://www.w3.org/1999/02/22-rdf-syntax-ns#"
   xmlns:svg="http://www.w3.org/2000/svg"
   xmlns="http://www.w3.org/2000/svg"
   xmlns:sodipodi="http://sodipodi.sourceforge.net/DTD/sodipodi-0.dtd"
   xmlns:inkscape="http://www.inkscape.org/namespaces/inkscape"
   width="64px"
   height="64px"
   viewBox="0 0 64 64"
   version="1.1"
   id="svg23"
   sodipodi:docname="disk-utility.svg"
   inkscape:version="1.0.2 (e86c870879, 2021-01-15)">
  <metadata
     id="metadata29">
    <rdf:RDF>
      <cc:Work
         rdf:about="">
        <dc:format>image/svg+xml</dc:format>
        <dc:type
           rdf:resource="http://purl.org/dc/dcmitype/StillImage" />
      </cc:Work>
    </rdf:RDF>
  </metadata>
  <defs
     id="defs27" />
  <sodipodi:namedview
     pagecolor="#ffffff"
     bordercolor="#666666"
     borderopacity="1"
     objecttolerance="10"
     gridtolerance="10"
     guidetolerance="10"
     inkscape:pageopacity="0"
     inkscape:pageshadow="2"
     inkscape:window-width="2560"
     inkscape:window-height="1403"
     id="namedview25"
     showgrid="false"
     inkscape:zoom="15.75"
     inkscape:cx="32"
     inkscape:cy="32"
     inkscape:window-x="0"
     inkscape:window-y="0"
     inkscape:window-maximized="1"
     inkscape:current-layer="surface1" />
  <g
     id="surface1">
    <path
       style="fill:#d0ebee;fill-opacity:1;fill-rule:nonzero;stroke:none"
       d="m 10.582031,3.144531 h 42.335938 c 1.460937,0 2.644531,1.1875 2.644531,2.648438 v 52.914062 c 0,1.460938 -1.183594,2.648438 -2.644531,2.648438 H 10.582031 c -1.460937,0 -2.644531,-1.1875 -2.644531,-2.648438 V 5.792969 c 0,-1.460938 1.183594,-2.648438 2.644531,-2.648438 z m 0,0"
       id="path2" />
    <path
       style="fill:#0c0e11;fill-opacity:1;fill-rule:nonzero;stroke:none"
       d="m 31.75,8.4375 c 10.230469,0 18.519531,8.292969 18.519531,18.519531 0,10.230469 -8.289062,18.523438 -18.519531,18.523438 -10.230469,0 -18.519531,-8.292969 -18.519531,-18.523438 C 13.230469,16.730469 21.519531,8.4375 31.75,8.4375 Z m 0,0"
       id="path4" />
    <path
       style="fill:#2e3436;fill-opacity:1;fill-rule:nonzero;stroke:none"
       d="m 31.75,9.761719 c 9.5,0 17.199219,7.699219 17.199219,17.195312 0,9.5 -7.699219,17.199219 -17.199219,17.199219 -9.5,0 -17.199219,-7.699219 -17.199219,-17.199219 C 14.550781,17.460938 22.25,9.761719 31.75,9.761719 Z m 0,0"
       id="path6" />
    <path
       style="fill:#733447;fill-opacity:1;fill-rule:nonzero;stroke:none"
       d="m 14.550781,26.957031 c 0,9.527344 7.671875,17.199219 17.199219,17.199219 9.527344,0 17.199219,-7.671875 17.199219,-17.199219 -11.90625,-5.289062 -22.492188,7.9375 -34.398438,0 z m 0,0"
       id="path8" />
    <path
       style="fill:#0c0e11;fill-opacity:1;fill-rule:nonzero;stroke:none"
       d="m 27.421875,33.953125 c -0.195313,-0.199219 -0.496094,-0.253906 -0.75,-0.136719 l -8.195313,3.722656 c -1.335937,0.01563 -2.667968,0.53125 -3.691406,1.554688 -2.070312,2.074219 -2.070312,5.410156 0,7.484375 2.074219,2.074219 5.410156,2.074219 7.484375,0 1.023438,-1.023437 1.542969,-2.355469 1.554688,-3.691406 l 3.726562,-8.195313 c 0.113281,-0.25 0.05859,-0.542968 -0.128906,-0.738281 z m 0,0"
       id="path10" />
    <path
       style="fill:#0c0e11;fill-opacity:1;fill-rule:nonzero;stroke:none"
       d="m 15.875,53.417969 c 1.460938,0 2.644531,1.183593 2.644531,2.644531 0,1.460938 -1.183593,2.644531 -2.644531,2.644531 -1.460938,0 -2.644531,-1.183593 -2.644531,-2.644531 0,-1.460938 1.183593,-2.644531 2.644531,-2.644531 z m 0,0"
       id="path12" />
    <path
       style="fill:#0c0e11;fill-opacity:1;fill-rule:nonzero;stroke:none"
       d="m 47.625,53.417969 c 1.460938,0 2.644531,1.183593 2.644531,2.644531 0,1.460938 -1.183593,2.644531 -2.644531,2.644531 -1.460938,0 -2.644531,-1.183593 -2.644531,-2.644531 0,-1.460938 1.183593,-2.644531 2.644531,-2.644531 z m 0,0"
       id="path14" />
    <path
       style="fill:#0c0e11;fill-opacity:1;fill-rule:nonzero;stroke:none"
       d="m 23.8125,50.769531 h 15.875 c 0.730469,0 1.324219,0.59375 1.324219,1.324219 0,0.730469 -0.59375,1.324219 -1.324219,1.324219 h -15.875 c -0.730469,0 -1.324219,-0.59375 -1.324219,-1.324219 0,-0.730469 0.59375,-1.324219 1.324219,-1.324219 z m 0,0"
       id="path16" />
    <path
       style="fill:#d0ebee;fill-opacity:1;fill-rule:nonzero;stroke:none"
       d="m 15.875,54.738281 c 0.730469,0 1.324219,0.59375 1.324219,1.324219 0,0.730469 -0.59375,1.324219 -1.324219,1.324219 -0.730469,0 -1.324219,-0.59375 -1.324219,-1.324219 0,-0.730469 0.59375,-1.324219 1.324219,-1.324219 z m 0,0"
       id="path18" />
    <path
       style="fill:#d0ebee;fill-opacity:1;fill-rule:nonzero;stroke:none"
       d="m 47.625,54.738281 c 0.730469,0 1.324219,0.59375 1.324219,1.324219 0,0.730469 -0.59375,1.324219 -1.324219,1.324219 -0.730469,0 -1.324219,-0.59375 -1.324219,-1.324219 0,-0.730469 0.59375,-1.324219 1.324219,-1.324219 z m 0,0"
       id="path20" />
  </g>
</svg>
