<?xml version="1.0" encoding="UTF-8" standalone="no"?>
<svg
   xmlns:dc="http://purl.org/dc/elements/1.1/"
   xmlns:cc="http://creativecommons.org/ns#"
   xmlns:rdf="http://www.w3.org/1999/02/22-rdf-syntax-ns#"
   xmlns:svg="http://www.w3.org/2000/svg"
   xmlns="http://www.w3.org/2000/svg"
   xmlns:sodipodi="http://sodipodi.sourceforge.net/DTD/sodipodi-0.dtd"
   xmlns:inkscape="http://www.inkscape.org/namespaces/inkscape"
   width="64px"
   height="64px"
   viewBox="0 0 64 64"
   version="1.1"
   id="svg37"
   sodipodi:docname="document-viewer.svg"
   inkscape:version="1.0.2 (e86c870879, 2021-01-15)">
  <metadata
     id="metadata43">
    <rdf:RDF>
      <cc:Work
         rdf:about="">
        <dc:format>image/svg+xml</dc:format>
        <dc:type
           rdf:resource="http://purl.org/dc/dcmitype/StillImage" />
      </cc:Work>
    </rdf:RDF>
  </metadata>
  <defs
     id="defs41" />
  <sodipodi:namedview
     pagecolor="#ffffff"
     bordercolor="#666666"
     borderopacity="1"
     objecttolerance="10"
     gridtolerance="10"
     guidetolerance="10"
     inkscape:pageopacity="0"
     inkscape:pageshadow="2"
     inkscape:window-width="2560"
     inkscape:window-height="1403"
     id="namedview39"
     showgrid="false"
     inkscape:zoom="15.75"
     inkscape:cx="32"
     inkscape:cy="32"
     inkscape:window-x="0"
     inkscape:window-y="0"
     inkscape:window-maximized="1"
     inkscape:current-layer="surface1" />
  <g
     id="surface1">
    <path
       style="fill:#d0ebee;fill-opacity:1;fill-rule:nonzero;stroke:none"
       d="m 42.332031,3.144531 h -31.75 c -1.464843,0 -2.644531,1.179688 -2.644531,2.648438 v 52.914062 c 0,1.46875 1.179688,2.648438 2.644531,2.648438 h 42.335938 c 1.464843,0 2.644531,-1.179688 2.644531,-2.648438 V 16.375 Z m 0,0"
       id="path2" />
    <path
       style="fill:#2e3436;fill-opacity:1;fill-rule:nonzero;stroke:none"
       d="M 55.5625,16.375 42.332031,3.144531 v 10.585938 c 0,1.464843 1.179688,2.644531 2.648438,2.644531 z m 0,0"
       id="path6" />
    <path
       style="fill:#0c0e11;fill-opacity:1;fill-rule:nonzero;stroke:none"
       d="m 17.199219,24.3125 h 29.101562 c 0.730469,0 1.324219,0.570312 1.324219,1.269531 0,0.703125 -0.59375,1.269531 -1.324219,1.269531 H 17.199219 c -0.730469,0 -1.324219,-0.566406 -1.324219,-1.269531 0,-0.699219 0.59375,-1.269531 1.324219,-1.269531 z m 0,0"
       id="path8" />
    <path
       style="fill:#0c0e11;fill-opacity:1;fill-rule:nonzero;stroke:none"
       d="m 17.199219,19.019531 h 29.101562 c 0.730469,0 1.324219,0.59375 1.324219,1.324219 0,0.730469 -0.59375,1.324219 -1.324219,1.324219 H 17.199219 c -0.730469,0 -1.324219,-0.59375 -1.324219,-1.324219 0,-0.730469 0.59375,-1.324219 1.324219,-1.324219 z m 0,0"
       id="path10" />
    <path
       style="fill:#0c0e11;fill-opacity:1;fill-rule:nonzero;stroke:none"
       d="m 17.199219,34.894531 h 29.101562 c 0.730469,0 1.324219,0.550781 1.324219,1.230469 v 0.1875 c 0,0.679688 -0.59375,1.230469 -1.324219,1.230469 H 17.199219 C 16.46875,37.542969 15.875,36.992188 15.875,36.3125 V 36.125 c 0,-0.679688 0.59375,-1.230469 1.324219,-1.230469 z m 0,0"
       id="path12" />
    <path
       style="fill:#0c0e11;fill-opacity:1;fill-rule:nonzero;stroke:none"
       d="m 17.199219,29.710938 h 29.101562 c 0.730469,0 1.324219,0.566406 1.324219,1.269531 0,0.699219 -0.59375,1.269531 -1.324219,1.269531 H 17.199219 C 16.46875,32.25 15.875,31.679688 15.875,30.980469 c 0,-0.703125 0.59375,-1.269531 1.324219,-1.269531 z m 0,0"
       id="path14" />
    <path
       style="fill:#0c0e11;fill-opacity:1;fill-rule:nonzero;stroke:none"
       d="m 17.199219,40.1875 h 29.101562 c 0.730469,0 1.324219,0.550781 1.324219,1.230469 v 0.183593 c 0,0.679688 -0.59375,1.230469 -1.324219,1.230469 H 17.199219 c -0.730469,0 -1.324219,-0.550781 -1.324219,-1.230469 v -0.183593 c 0,-0.679688 0.59375,-1.230469 1.324219,-1.230469 z m 0,0"
       id="path16" />
  </g>
</svg>
