<?xml version="1.0" encoding="UTF-8" standalone="no"?>
<svg
   width="64px"
   height="64px"
   viewBox="0 0 64 64"
   version="1.1"
   id="svg11"
   sodipodi:docname="fleet.svg"
   inkscape:version="1.2 (dc2aedaf03, 2022-05-15)"
   inkscape:export-filename="Fleet.png"
   inkscape:export-xdpi="96"
   inkscape:export-ydpi="96"
   xmlns:inkscape="http://www.inkscape.org/namespaces/inkscape"
   xmlns:sodipodi="http://sodipodi.sourceforge.net/DTD/sodipodi-0.dtd"
   xmlns="http://www.w3.org/2000/svg"
   xmlns:svg="http://www.w3.org/2000/svg">
  <defs
     id="defs15" />
  <sodipodi:namedview
     id="namedview13"
     pagecolor="#505050"
     bordercolor="#eeeeee"
     borderopacity="1"
     inkscape:showpageshadow="0"
     inkscape:pageopacity="0"
     inkscape:pagecheckerboard="0"
     inkscape:deskcolor="#505050"
     showgrid="false"
     inkscape:zoom="13.625"
     inkscape:cx="15.816514"
     inkscape:cy="32"
     inkscape:window-width="2560"
     inkscape:window-height="1384"
     inkscape:window-x="0"
     inkscape:window-y="0"
     inkscape:window-maximized="1"
     inkscape:current-layer="surface1" />
  <g
     id="surface1">
    <path
       style="stroke:none;fill-rule:nonzero;fill:#0c0e11;fill-opacity:1"
       d="M 5.292969 3.144531 L 58.207031 3.144531 C 59.667969 3.144531 60.855469 4.332031 60.855469 5.792969 L 60.855469 58.707031 C 60.855469 60.167969 59.667969 61.355469 58.207031 61.355469 L 5.292969 61.355469 C 3.832031 61.355469 2.644531 60.167969 2.644531 58.707031 L 2.644531 5.792969 C 2.644531 4.332031 3.832031 3.144531 5.292969 3.144531 Z M 5.292969 3.144531 "
       id="path2" />
    <path
       style="stroke:none;fill-rule:nonzero;fill:#d0ebee;fill-opacity:1"
       d="M 19.183594 16.375 L 25.796875 16.375 C 26.164062 16.375 26.457031 16.671875 26.457031 17.035156 L 26.457031 47.464844 C 26.457031 47.828125 26.164062 48.125 25.796875 48.125 L 19.183594 48.125 C 18.816406 48.125 18.519531 47.828125 18.519531 47.464844 L 18.519531 17.035156 C 18.519531 16.671875 18.816406 16.375 19.183594 16.375 Z M 19.183594 16.375 "
       id="path4" />
    <path
       style="stroke:none;fill-rule:nonzero;fill:#d0ebee;fill-opacity:1"
       d="M 28.441406 16.375 L 44.316406 16.375 C 44.683594 16.375 44.980469 16.671875 44.980469 17.035156 L 44.980469 23.652344 C 44.980469 24.015625 44.683594 24.3125 44.316406 24.3125 L 28.441406 24.3125 C 28.078125 24.3125 27.78125 24.015625 27.78125 23.652344 L 27.78125 17.035156 C 27.78125 16.671875 28.078125 16.375 28.441406 16.375 Z M 28.441406 16.375 "
       id="path6" />
    <path
       style="stroke:none;fill-rule:nonzero;fill:#d0ebee;fill-opacity:1"
       d="M 28.441406 29.605469 L 39.027344 29.605469 C 39.390625 29.605469 39.6875 29.898438 39.6875 30.265625 L 39.6875 36.878906 C 39.6875 37.246094 39.390625 37.542969 39.027344 37.542969 L 28.441406 37.542969 C 28.078125 37.542969 27.78125 37.246094 27.78125 36.878906 L 27.78125 30.265625 C 27.78125 29.898438 28.078125 29.605469 28.441406 29.605469 Z M 28.441406 29.605469 "
       id="path8" />
  </g>
</svg>
