<?xml version="1.0" encoding="UTF-8" standalone="no"?>
<svg
   xmlns:dc="http://purl.org/dc/elements/1.1/"
   xmlns:cc="http://creativecommons.org/ns#"
   xmlns:rdf="http://www.w3.org/1999/02/22-rdf-syntax-ns#"
   xmlns:svg="http://www.w3.org/2000/svg"
   xmlns="http://www.w3.org/2000/svg"
   xmlns:xlink="http://www.w3.org/1999/xlink"
   xmlns:sodipodi="http://sodipodi.sourceforge.net/DTD/sodipodi-0.dtd"
   xmlns:inkscape="http://www.inkscape.org/namespaces/inkscape"
   width="384pt"
   height="384pt"
   version="1.1"
   viewBox="0 0 384 384"
   id="svg34823"
   sodipodi:docname="gimp.svg"
   inkscape:version="1.0.2 (e86c870879, 2021-01-15)">
  <metadata
     id="metadata34827">
    <rdf:RDF>
      <cc:Work
         rdf:about="">
        <dc:format>image/svg+xml</dc:format>
        <dc:type
           rdf:resource="http://purl.org/dc/dcmitype/StillImage" />
      </cc:Work>
    </rdf:RDF>
  </metadata>
  <sodipodi:namedview
     pagecolor="#ffffff"
     bordercolor="#666666"
     borderopacity="1"
     objecttolerance="10"
     gridtolerance="10"
     guidetolerance="10"
     inkscape:pageopacity="0"
     inkscape:pageshadow="2"
     inkscape:window-width="2560"
     inkscape:window-height="1403"
     id="namedview34825"
     showgrid="false"
     inkscape:zoom="1.84375"
     inkscape:cx="190.07908"
     inkscape:cy="237.71829"
     inkscape:window-x="0"
     inkscape:window-y="0"
     inkscape:window-maximized="1"
     inkscape:current-layer="g34821"
     inkscape:document-rotation="0" />
  <defs
     id="defs34801">
    <filter
       id="alpha"
       width="100%"
       height="100%"
       x="0%"
       y="0%"
       filterUnits="objectBoundingBox">
      <feColorMatrix
         in="SourceGraphic"
         type="matrix"
         values="0 0 0 0 1 0 0 0 0 1 0 0 0 0 1 0 0 0 1 0"
         id="feColorMatrix34776" />
    </filter>
    <mask
       id="mask0">
      <g
         filter="url(#alpha)"
         id="g34781">
        <rect
           width="384"
           height="384"
           x="0"
           y="0"
           style="fill:rgb(0%,0%,0%);fill-opacity:0.94902"
           id="rect34779" />
      </g>
    </mask>
    <clipPath
       id="clip1">
      <rect
         width="384"
         height="384"
         x="0"
         y="0"
         id="rect34784" />
    </clipPath>
    <g
       id="surface5"
       clip-path="url(#clip1)">
      <path
         style="fill:rgb(0%,0%,0%);fill-opacity:0.156863"
         d="M 275.855469 71.628906 C 276.289062 72.238281 276.703125 72.855469 277.105469 73.476562 C 277.167969 73.574219 277.230469 73.667969 277.292969 73.761719 C 277.449219 74.011719 277.601562 74.257812 277.757812 74.507812 C 277.84375 74.648438 277.929688 74.785156 278.011719 74.925781 C 278.15625 75.164062 278.292969 75.398438 278.433594 75.636719 C 278.523438 75.792969 278.617188 75.953125 278.707031 76.113281 C 278.839844 76.347656 278.972656 76.582031 279.101562 76.816406 C 279.1875 76.96875 279.265625 77.121094 279.347656 77.273438 C 279.480469 77.523438 279.617188 77.769531 279.746094 78.023438 C 279.792969 78.113281 279.839844 78.207031 279.886719 78.300781 C 280.183594 78.882812 280.46875 79.46875 280.746094 80.058594 C 280.78125 80.140625 280.820312 80.21875 280.855469 80.300781 C 280.972656 80.554688 281.085938 80.804688 281.199219 81.058594 C 281.269531 81.21875 281.339844 81.382812 281.410156 81.542969 C 281.511719 81.78125 281.609375 82.019531 281.710938 82.257812 C 281.785156 82.433594 281.855469 82.613281 281.929688 82.789062 C 282.027344 83.035156 282.125 83.28125 282.21875 83.527344 C 282.277344 83.679688 282.335938 83.835938 282.394531 83.992188 C 282.492188 84.25 282.589844 84.511719 282.683594 84.773438 C 282.738281 84.925781 282.792969 85.082031 282.847656 85.238281 C 283.039062 85.789062 283.226562 86.339844 283.402344 86.894531 C 283.429688 86.984375 283.457031 87.078125 283.488281 87.167969 C 283.488281 87.167969 283.488281 87.171875 283.488281 87.175781 C 283.5625 87.410156 283.632812 87.648438 283.703125 87.886719 C 283.761719 88.082031 283.820312 88.28125 283.878906 88.476562 C 283.941406 88.703125 284.003906 88.925781 284.066406 89.152344 C 284.121094 89.363281 284.179688 89.570312 284.234375 89.78125 C 284.292969 90.003906 284.347656 90.222656 284.402344 90.445312 C 284.457031 90.660156 284.507812 90.875 284.5625 91.089844 C 284.613281 91.3125 284.664062 91.53125 284.714844 91.753906 C 284.765625 91.972656 284.8125 92.1875 284.859375 92.40625 C 284.90625 92.625 284.957031 92.84375 285 93.066406 C 285.082031 93.46875 285.160156 93.875 285.234375 94.28125 C 285.234375 94.28125 285.234375 94.285156 285.234375 94.285156 C 285.269531 94.472656 285.300781 94.664062 285.335938 94.851562 C 285.378906 95.109375 285.421875 95.367188 285.464844 95.625 C 285.496094 95.820312 285.527344 96.019531 285.558594 96.21875 C 285.59375 96.464844 285.628906 96.707031 285.664062 96.953125 C 285.691406 97.15625 285.71875 97.359375 285.746094 97.5625 C 285.777344 97.8125 285.808594 98.0625 285.839844 98.308594 C 285.859375 98.507812 285.886719 98.703125 285.90625 98.898438 C 285.9375 99.175781 285.964844 99.449219 285.992188 99.726562 C 286.007812 99.890625 286.023438 100.050781 286.039062 100.214844 C 286.070312 100.578125 286.097656 100.9375 286.125 101.300781 C 286.140625 101.519531 286.152344 101.734375 286.167969 101.953125 C 286.1875 102.257812 286.207031 102.558594 286.21875 102.863281 C 286.230469 103.039062 286.234375 103.210938 286.242188 103.386719 C 286.253906 103.65625 286.265625 103.925781 286.273438 104.191406 C 286.277344 104.386719 286.28125 104.582031 286.285156 104.777344 C 286.292969 105.035156 286.296875 105.296875 286.296875 105.554688 C 286.300781 105.742188 286.300781 105.933594 286.300781 106.121094 C 286.300781 106.402344 286.300781 106.683594 286.296875 106.964844 C 286.296875 107.125 286.296875 107.28125 286.292969 107.4375 C 286.289062 107.789062 286.277344 108.136719 286.265625 108.484375 C 286.261719 108.585938 286.261719 108.6875 286.257812 108.789062 C 286.257812 108.804688 286.253906 108.824219 286.253906 108.84375 C 286.238281 109.25 286.222656 109.65625 286.199219 110.0625 C 286.191406 110.1875 286.183594 110.316406 286.175781 110.445312 C 286.15625 110.746094 286.136719 111.050781 286.117188 111.351562 C 286.105469 111.5 286.09375 111.648438 286.082031 111.796875 C 286.050781 112.21875 286.015625 112.636719 285.976562 113.050781 L 285.976562 113.0625 C 285.929688 113.535156 285.878906 114.003906 285.824219 114.472656 C 285.824219 114.476562 285.824219 114.476562 285.824219 114.480469 C 285.785156 114.84375 285.734375 115.210938 285.6875 115.574219 C 285.671875 115.679688 285.660156 115.78125 285.648438 115.886719 C 285.574219 116.378906 285.492188 116.871094 285.40625 117.359375 C 285.390625 117.460938 285.371094 117.5625 285.351562 117.664062 C 285.265625 118.140625 285.175781 118.617188 285.078125 119.089844 C 285.0625 119.164062 285.046875 119.238281 285.03125 119.3125 C 284.933594 119.78125 284.832031 120.246094 284.726562 120.710938 C 284.71875 120.746094 284.710938 120.785156 284.699219 120.820312 C 284.589844 121.304688 284.46875 121.789062 284.34375 122.273438 C 284.320312 122.363281 284.296875 122.457031 284.273438 122.546875 C 284.148438 123.023438 284.019531 123.5 283.886719 123.972656 C 283.871094 124.019531 283.859375 124.0625 283.84375 124.109375 C 283.71875 124.554688 283.585938 125 283.449219 125.441406 C 283.421875 125.523438 283.398438 125.605469 283.375 125.683594 C 283.230469 126.148438 283.078125 126.609375 282.925781 127.070312 C 282.894531 127.160156 282.863281 127.246094 282.835938 127.335938 C 282.671875 127.808594 282.507812 128.285156 282.339844 128.753906 C 282.222656 129.078125 282.101562 129.398438 281.980469 129.71875 C 281.621094 130.679688 281.238281 131.632812 280.835938 132.582031 C 280.734375 132.820312 280.632812 133.058594 280.527344 133.292969 C 280.496094 133.375 280.460938 133.453125 280.425781 133.53125 C 280.425781 133.535156 280.421875 133.539062 280.421875 133.542969 C 280.320312 133.769531 280.222656 133.996094 280.121094 134.21875 C 280.074219 134.324219 280.027344 134.429688 279.976562 134.535156 C 279.886719 134.734375 279.796875 134.933594 279.703125 135.128906 C 279.648438 135.253906 279.59375 135.375 279.535156 135.492188 C 279.269531 136.0625 278.996094 136.625 278.71875 137.1875 C 278.6875 137.257812 278.652344 137.324219 278.621094 137.390625 C 278.332031 137.972656 278.039062 138.550781 277.738281 139.125 C 277.734375 139.132812 277.730469 139.136719 277.726562 139.144531 C 277.722656 139.152344 277.714844 139.164062 277.710938 139.175781 C 277.394531 139.78125 277.070312 140.386719 276.742188 140.984375 C 276.421875 141.566406 276.09375 142.148438 275.757812 142.726562 C 275.691406 142.847656 275.617188 142.96875 275.546875 143.089844 C 275.296875 143.523438 275.042969 143.953125 274.785156 144.382812 C 274.664062 144.585938 274.539062 144.792969 274.417969 144.996094 C 274.207031 145.34375 273.992188 145.6875 273.777344 146.035156 C 273.636719 146.257812 273.5 146.484375 273.355469 146.707031 C 273.152344 147.03125 272.945312 147.351562 272.738281 147.675781 C 272.582031 147.917969 272.425781 148.164062 272.265625 148.40625 C 272.09375 148.671875 271.917969 148.933594 271.742188 149.195312 C 271.308594 149.851562 270.867188 150.503906 270.421875 151.15625 C 270.355469 151.246094 270.292969 151.339844 270.230469 151.429688 C 269.964844 151.816406 269.695312 152.195312 269.425781 152.578125 C 269.363281 152.667969 269.296875 152.761719 269.234375 152.851562 C 264.105469 160.074219 258.253906 166.992188 252.273438 173.671875 C 252.503906 173.914062 252.839844 174.09375 253.257812 174.226562 C 255.996094 174.644531 260.703125 173.804688 263.488281 173.773438 C 263.472656 173.773438 263.457031 173.773438 263.441406 173.773438 C 263.382812 173.777344 263.316406 173.777344 263.253906 173.78125 C 263.117188 173.78125 262.980469 173.785156 262.835938 173.792969 C 276.898438 172.476562 290.679688 168.132812 303.773438 164.246094 C 303.769531 164.390625 303.757812 164.535156 303.75 164.683594 C 304.042969 164.59375 304.339844 164.507812 304.628906 164.421875 C 303.804688 186.621094 290.371094 206.453125 278.285156 225.828125 C 278.273438 225.878906 278.253906 225.9375 278.234375 225.996094 C 278.230469 226.003906 278.230469 226.007812 278.226562 226.015625 C 278.21875 226.039062 278.207031 226.066406 278.199219 226.09375 C 278.183594 226.132812 278.164062 226.171875 278.148438 226.214844 C 278.125 226.265625 278.09375 226.324219 278.066406 226.382812 C 278.046875 226.421875 278.027344 226.460938 278.003906 226.507812 C 278.003906 226.507812 278 226.511719 278 226.515625 C 277.992188 226.53125 277.980469 226.550781 277.96875 226.566406 C 277.933594 226.632812 277.898438 226.699219 277.859375 226.765625 C 277.851562 226.78125 277.84375 226.792969 277.835938 226.808594 C 277.820312 226.835938 277.800781 226.867188 277.785156 226.894531 C 277.78125 226.894531 277.777344 226.898438 277.773438 226.902344 C 277.675781 227.066406 277.570312 227.238281 277.449219 227.425781 C 277.433594 227.445312 277.425781 227.464844 277.410156 227.484375 C 277.402344 227.496094 277.394531 227.511719 277.386719 227.523438 C 277.238281 227.75 277.074219 227.992188 276.894531 228.25 C 276.890625 228.253906 276.886719 228.257812 276.882812 228.261719 C 276.882812 228.265625 276.878906 228.265625 276.875 228.269531 C 276.863281 228.292969 276.84375 228.316406 276.828125 228.335938 C 276.6875 228.535156 276.535156 228.742188 276.382812 228.953125 C 276.335938 229.019531 276.292969 229.082031 276.242188 229.152344 C 276.242188 229.152344 276.238281 229.15625 276.238281 229.15625 C 276.210938 229.195312 276.175781 229.238281 276.148438 229.277344 C 275.949219 229.542969 275.746094 229.816406 275.535156 230.09375 C 275.535156 230.09375 275.535156 230.09375 275.53125 230.097656 C 275.5 230.136719 275.464844 230.179688 275.433594 230.222656 C 275.226562 230.496094 275.011719 230.773438 274.789062 231.058594 C 274.785156 231.066406 274.78125 231.070312 274.777344 231.074219 C 274.699219 231.171875 274.621094 231.273438 274.546875 231.367188 C 274.445312 231.496094 274.34375 231.625 274.242188 231.753906 C 274.160156 231.859375 274.078125 231.964844 273.992188 232.070312 C 273.988281 232.074219 273.984375 232.078125 273.980469 232.085938 C 273.894531 232.191406 273.8125 232.296875 273.726562 232.402344 C 273.328125 232.898438 272.929688 233.390625 272.535156 233.878906 C 272.476562 233.949219 272.421875 234.019531 272.363281 234.089844 C 272.359375 234.09375 272.359375 234.097656 272.355469 234.101562 C 272.320312 234.144531 272.292969 234.175781 272.257812 234.21875 C 271.660156 234.949219 271.121094 235.597656 270.59375 236.234375 C 270.394531 236.476562 270.1875 236.730469 270.003906 236.949219 C 269.382812 237.695312 268.863281 238.316406 268.519531 238.730469 C 268.136719 239.171875 267.746094 239.613281 267.355469 240.050781 C 267.226562 240.195312 267.097656 240.335938 266.96875 240.480469 C 266.695312 240.78125 266.421875 241.082031 266.148438 241.382812 C 266 241.542969 265.851562 241.699219 265.703125 241.859375 C 265.445312 242.136719 265.1875 242.414062 264.925781 242.691406 C 264.773438 242.855469 264.617188 243.015625 264.460938 243.179688 C 264.195312 243.460938 263.925781 243.738281 263.65625 244.015625 C 263.503906 244.171875 263.351562 244.328125 263.199219 244.484375 C 262.929688 244.757812 262.65625 245.03125 262.386719 245.304688 C 262.226562 245.460938 262.070312 245.621094 261.914062 245.777344 C 261.621094 246.066406 261.328125 246.355469 261.03125 246.644531 C 260.894531 246.777344 260.757812 246.910156 260.621094 247.042969 C 260.1875 247.460938 259.75 247.878906 259.3125 248.289062 C 258.378906 249.167969 257.429688 250.035156 256.46875 250.890625 C 256.027344 251.28125 255.585938 251.667969 255.140625 252.054688 C 255.027344 252.152344 254.914062 252.25 254.804688 252.347656 C 254.441406 252.65625 254.082031 252.96875 253.714844 253.277344 C 253.617188 253.355469 253.523438 253.4375 253.425781 253.519531 C 252.964844 253.90625 252.5 254.292969 252.03125 254.675781 C 250.019531 256.328125 247.949219 257.933594 245.824219 259.492188 C 245.292969 259.882812 244.757812 260.269531 244.222656 260.652344 C 243.730469 261 243.238281 261.347656 242.746094 261.691406 C 242.621094 261.78125 242.492188 261.867188 242.363281 261.957031 C 241.96875 262.230469 241.570312 262.503906 241.167969 262.773438 C 241.054688 262.851562 240.941406 262.929688 240.824219 263.007812 C 240.316406 263.351562 239.808594 263.691406 239.296875 264.027344 C 238.796875 264.355469 238.292969 264.679688 237.789062 265.003906 C 237.640625 265.097656 237.496094 265.191406 237.347656 265.285156 C 236.960938 265.53125 236.574219 265.773438 236.183594 266.015625 C 236.039062 266.105469 235.894531 266.195312 235.75 266.285156 C 235.238281 266.605469 234.722656 266.921875 234.207031 267.234375 C 233.632812 267.578125 233.054688 267.921875 232.472656 268.261719 C 232.25 268.390625 232.027344 268.519531 231.804688 268.648438 C 230.859375 269.195312 229.914062 269.734375 228.957031 270.261719 C 227.773438 270.917969 226.578125 271.558594 225.375 272.183594 C 224.773438 272.496094 224.167969 272.804688 223.558594 273.109375 C 222.953125 273.417969 222.339844 273.71875 221.726562 274.019531 C 220.503906 274.617188 219.269531 275.199219 218.023438 275.769531 C 216.777344 276.339844 215.523438 276.890625 214.261719 277.429688 C 212.996094 277.96875 211.722656 278.492188 210.441406 279.003906 C 209.84375 279.238281 209.242188 279.472656 208.640625 279.703125 C 208.398438 279.796875 208.15625 279.886719 207.914062 279.980469 C 207.554688 280.117188 207.195312 280.25 206.832031 280.386719 C 206.566406 280.484375 206.300781 280.578125 206.03125 280.675781 C 205.679688 280.804688 205.324219 280.933594 204.96875 281.0625 C 204.699219 281.15625 204.425781 281.253906 204.152344 281.347656 C 203.8125 281.46875 203.472656 281.585938 203.128906 281.703125 C 202.851562 281.796875 202.570312 281.894531 202.292969 281.988281 C 201.941406 282.105469 201.589844 282.222656 201.238281 282.339844 C 200.96875 282.425781 200.699219 282.515625 200.429688 282.601562 C 200.066406 282.71875 199.699219 282.835938 199.335938 282.949219 C 199.066406 283.035156 198.800781 283.117188 198.53125 283.203125 C 197.996094 283.367188 197.453125 283.535156 196.914062 283.695312 C 196.839844 283.714844 196.765625 283.738281 196.691406 283.761719 C 196.023438 283.957031 195.355469 284.152344 194.683594 284.34375 C 194.011719 284.53125 193.339844 284.71875 192.664062 284.898438 C 191.988281 285.078125 191.3125 285.257812 190.636719 285.429688 C 189.957031 285.601562 189.277344 285.769531 188.597656 285.933594 C 188.578125 285.941406 188.558594 285.941406 188.539062 285.949219 C 187.941406 286.089844 187.34375 286.230469 186.746094 286.367188 C 186.5625 286.40625 186.378906 286.449219 186.199219 286.488281 C 185.757812 286.589844 185.320312 286.683594 184.878906 286.78125 C 184.675781 286.824219 184.46875 286.867188 184.265625 286.910156 C 183.671875 287.035156 183.082031 287.160156 182.488281 287.277344 C 182.46875 287.28125 182.449219 287.285156 182.429688 287.289062 C 182.308594 287.3125 182.191406 287.332031 182.074219 287.355469 C 180.8125 287.605469 179.546875 287.839844 178.277344 288.058594 L 178.273438 288.058594 C 178.171875 288.074219 178.066406 288.089844 177.964844 288.109375 C 176.675781 288.328125 175.386719 288.53125 174.09375 288.714844 C 173.394531 288.816406 172.691406 288.910156 171.992188 289.003906 C 171.289062 289.09375 170.585938 289.179688 169.882812 289.261719 C 169.179688 289.34375 168.476562 289.417969 167.769531 289.492188 C 164.945312 289.777344 162.109375 289.988281 159.261719 290.117188 C 158.550781 290.148438 157.835938 290.175781 157.125 290.199219 C 155.699219 290.246094 154.269531 290.269531 152.835938 290.273438 C 152.832031 290.273438 152.828125 290.273438 152.824219 290.273438 C 152.171875 290.273438 151.382812 290.28125 150.535156 290.292969 C 144.359375 290.375 133.539062 290.621094 125.570312 289.761719 C 122.089844 289.464844 118.664062 288.925781 115.308594 288.199219 C 106.332031 286.34375 97.886719 283.023438 90.46875 278.558594 L 150.117188 322.398438 L 206.492188 360.019531 C 293.707031 352.496094 360.691406 279.539062 360.75 192 C 360.675781 168.117188 355.535156 144.519531 345.664062 122.769531 L 339.273438 118.042969 Z M 210.324219 78.433594 L 210.304688 78.722656 L 210.210938 78.65625 L 210.105469 80.777344 C 210.125 80.824219 210.144531 80.871094 210.164062 80.917969 L 207.46875 122.082031 C 212.09375 120.78125 216.367188 119.382812 220.003906 117.722656 C 220.429688 117.519531 220.890625 117.296875 221.328125 117.089844 C 221.273438 116.722656 221.203125 116.351562 221.148438 115.984375 C 228.390625 112.519531 236.796875 108.378906 244.839844 103.488281 L 210.515625 78.875 C 210.453125 78.726562 210.390625 78.582031 210.324219 78.433594 Z M 207.46875 122.082031 Z M 263.660156 173.777344 C 263.964844 173.777344 264.242188 173.792969 264.488281 173.816406 C 264.425781 173.808594 264.359375 173.804688 264.292969 173.800781 C 264.195312 173.792969 264.097656 173.785156 263.996094 173.78125 C 263.9375 173.777344 263.878906 173.777344 263.816406 173.777344 C 263.765625 173.777344 263.710938 173.777344 263.660156 173.777344 Z M 83.964844 236.019531 C 83.902344 236.066406 83.835938 236.109375 83.769531 236.152344 C 83.835938 236.109375 83.902344 236.066406 83.964844 236.019531 Z M 83.964844 236.019531"
         id="path34787" />
    </g>
    <mask
       id="mask1">
      <g
         filter="url(#alpha)"
         id="g34792">
        <rect
           width="384"
           height="384"
           x="0"
           y="0"
           style="fill:rgb(0%,0%,0%);fill-opacity:0.101961"
           id="rect34790" />
      </g>
    </mask>
    <clipPath
       id="clip2">
      <rect
         width="384"
         height="384"
         x="0"
         y="0"
         id="rect34795" />
    </clipPath>
    <g
       id="surface8"
       clip-path="url(#clip2)">
      <path
         style="fill:rgb(99.215686%,99.215686%,99.215686%)"
         d="M 278.117188 225.507812 C 277.679688 225.492188 276.410156 226.300781 273.929688 228.335938 C 270.890625 229.996094 269.199219 230.238281 268.242188 229.648438 C 243.628906 260.929688 199.476562 282.519531 156.027344 287.78125 C 150.609375 288.488281 138.988281 289.832031 129.914062 290.101562 C 138.359375 290.601562 148.265625 290.277344 152.84375 290.269531 C 198.652344 290.15625 242.304688 268.890625 268.527344 238.726562 C 270.664062 236.132812 279.679688 225.566406 278.117188 225.507812 Z M 129.914062 290.101562 C 128.414062 290.011719 125.578125 289.757812 125.578125 289.757812 L 124.738281 289.71875 L 125.484375 290.128906 C 125.484375 290.128906 128.332031 290.175781 129.914062 290.101562 Z M 129.914062 290.101562"
         id="path34798" />
    </g>
  </defs>
  <g
     id="g34821">
    <path
       style="fill:#d0ebee;fill-opacity:1"
       d="M 192,23.25 C 98.800781,23.25 23.25,98.800781 23.25,192 23.25,285.19922 98.800781,360.75 192,360.75 285.19922,360.75 360.75,285.19922 360.75,192 360.75,98.800781 285.19922,23.25 192,23.25 Z m 0,0"
       id="path34803" />
    <path
       style="fill:#0c0e11;fill-opacity:1"
       d="m 210.32422,78.433594 c -6.35547,10.738281 -10.55078,22.593746 -18.10156,32.601566 -5.90625,7.83203 -12.47266,15.34375 -20.95313,21.05078 16.46484,-6.03516 36.26563,-8.67188 48.73438,-14.36328 0.42578,-0.20313 0.88671,-0.42578 1.32421,-0.63282 -1.95703,-13.14453 -5.45312,-26.265621 -11.0039,-38.656246 z m 0,0"
       id="path34805" />
    <use
       mask="url(#mask0)"
       xlink:href="#surface5"
       id="use34807"
       x="0"
       y="0"
       width="100%"
       height="100%" />
    <path
       style="fill:#0c0e11;fill-opacity:1"
       d="m 311.69922,104.875 c -13.35547,2.32813 1.97656,16.30078 -1.22266,23.92578 11.59375,-3.22656 13.90235,-20.71094 1.22266,-23.92578 z m 5.54297,29.55078 c -0.64453,0.008 -1.35157,0.24219 -1.79297,0.5625 -8.33594,6.0625 -2.59766,18.94141 -8.16016,26.49609 3.9336,0.22266 7.88281,-1.07812 11.35547,-2.46484 11.28906,-3.71094 7.14453,-19.02734 -0.38281,-24.33594 -0.26953,-0.1875 -0.63281,-0.26562 -1.01953,-0.25781 z m -17.23828,0.58594 c -4.01563,-0.0312 -2.64844,10.52734 1.76562,10.70312 3.73047,0.14844 4.13672,-6.1289 2.57031,-8.89453 -0.68359,-1.19922 -3.3125,-1.80078 -4.33593,-1.80859 z m 4.58593,29.41015 c -13.09765,3.88672 -26.88281,8.23438 -40.95312,9.54297 0.004,0 0.008,0 0.008,0 0.14844,-0.004 0.28906,-0.008 0.42578,-0.0117 0.0625,0 0.12891,-0.004 0.19141,-0.004 0.1289,0 0.25,0 0.375,0.004 0.0586,0 0.12109,0 0.17578,0.004 0.10547,0.004 0.19922,0.0117 0.29687,0.0195 0.0703,0.004 0.14063,0.008 0.20704,0.0156 0.1289,0.0156 0.25,0.0312 0.36328,0.0547 0,0 0,0 0.004,0 0.004,0 0.008,0 0.0117,0.004 0.0547,0.0117 0.10938,0.0234 0.16016,0.0391 0.008,0 0.0156,0.004 0.0234,0.004 0.0508,0.0156 0.0976,0.0312 0.14062,0.0469 0.004,0.004 0.008,0.004 0.008,0.004 0.0469,0.0195 0.0937,0.0391 0.13282,0.0625 0.20703,0.10547 0.32421,0.25391 0.34375,0.44922 0.004,0.008 0.004,0.0156 0.004,0.0234 0.004,0.0312 0,0.0625 -0.004,0.0937 0,0.0156 0,0.0273 -0.004,0.0391 -0.004,0.0352 -0.0117,0.0703 -0.0234,0.10547 0,0.0156 -0.004,0.0273 -0.0117,0.043 -0.0117,0.0352 -0.0234,0.0703 -0.043,0.10937 -0.008,0.0195 -0.0117,0.0352 -0.0234,0.0547 -0.0156,0.0352 -0.0352,0.0703 -0.0547,0.10547 -0.0117,0.0234 -0.0273,0.0508 -0.043,0.0742 -0.0234,0.0352 -0.0469,0.0742 -0.0703,0.10937 -0.0195,0.0312 -0.0391,0.0586 -0.0625,0.0859 -0.0234,0.0391 -0.0547,0.0742 -0.0859,0.11328 -0.0234,0.0312 -0.0508,0.0664 -0.0781,0.0977 -0.0312,0.0391 -0.0625,0.0781 -0.0977,0.11718 -0.0312,0.0352 -0.0625,0.0703 -0.0977,0.10938 -0.043,0.0469 -0.0859,0.0898 -0.13281,0.14062 -0.0156,0.0195 -0.0391,0.0391 -0.0586,0.0586 -0.13672,0.14062 -0.29688,0.29297 -0.46875,0.45312 -0.11328,0.10157 -0.25,0.21875 -0.38282,0.32813 -0.10156,0.0898 -0.1914,0.17187 -0.30078,0.26172 -0.15625,0.1289 -0.33593,0.26953 -0.50781,0.40625 -0.11719,0.0898 -0.22266,0.17578 -0.34766,0.27343 -0.30859,0.23829 -0.64453,0.48829 -1.00781,0.75 -0.41015,0.44922 -0.77734,0.89063 -1.10547,1.32813 -0.97656,1.32031 -1.57812,2.60937 -1.85156,3.85547 -0.043,0.20703 -0.082,0.41406 -0.10937,0.62109 -0.10547,0.79688 -0.0781,1.57422 0.0664,2.32813 0.004,0.0273 0.004,0.0508 0.0117,0.0781 0.0391,0.19531 0.0859,0.38672 0.14063,0.57813 0.16406,0.57812 0.39453,1.14453 0.6914,1.6914 0.0977,0.1836 0.20313,0.36719 0.3125,0.54688 0,0 0.004,0 0.004,0 0.10937,0.17969 0.23047,0.35547 0.35547,0.53515 0.125,0.17579 0.2539,0.35157 0.39062,0.52344 0.14063,0.17188 0.28516,0.34375 0.4336,0.51563 0.14843,0.16797 0.30468,0.33593 0.46875,0.5039 0.32421,0.33203 0.66796,0.65625 1.03515,0.97266 1.47266,1.26562 3.27735,2.41016 5.30078,3.40234 -0.10156,0.21094 -0.21875,0.41797 -0.35156,0.63282 -0.0664,0.10546 -0.13672,0.21093 -0.21094,0.3164 -0.0742,0.10938 -0.15234,0.21485 -0.23437,0.32422 -0.16016,0.21484 -0.33594,0.43359 -0.52344,0.65234 -0.1875,0.21875 -0.38672,0.4375 -0.59766,0.66016 -0.42187,0.44531 -0.88281,0.89453 -1.36718,1.34766 -0.48828,0.45312 -1.00391,0.91015 -1.53516,1.37109 -1.32031,1.15234 -2.73047,2.32031 -4.01172,3.48438 -1.92187,1.7539 -3.55859,3.49609 -4.1875,5.16406 -0.043,0.11328 -0.0781,0.22265 -0.11328,0.33594 -0.0312,0.10937 -0.0586,0.21875 -0.082,0.32812 -0.0469,0.21875 -0.0742,0.4375 -0.082,0.65625 -0.004,0.21484 0.0117,0.42969 0.0508,0.64453 0.0195,0.10547 0.043,0.21094 0.0742,0.31641 0.0312,0.10547 0.0703,0.21094 0.11328,0.3164 0.0859,0.21094 0.19531,0.41797 0.33203,0.6211 0.0703,0.10156 0.14453,0.20312 0.22656,0.30469 0.082,0.10156 0.17188,0.20312 0.26953,0.30468 0.19141,0.19922 0.41016,0.39844 0.66016,0.59375 0.125,0.0977 0.25781,0.19532 0.39844,0.29297 0.27734,0.19141 0.58984,0.38281 0.93359,0.57031 0.33985,0.1875 0.71875,0.375 1.125,0.55469 0.34375,0.15625 0.71875,0.30469 1.11328,0.45313 0.0742,0.0273 0.14453,0.0586 0.21875,0.0859 0.48047,0.17579 0.9961,0.35157 1.54688,0.51954 0.26953,0.0195 0.51953,0.0547 0.7539,0.10156 0.0234,0.004 0.0469,0.008 0.0664,0.0117 0.004,0 0.004,0 0.004,0 0.0273,0.004 0.0547,0.0117 0.082,0.0195 0.22265,0.0508 0.43359,0.10937 0.6289,0.18359 0.10938,0.0391 0.21485,0.0859 0.31641,0.13281 0.10156,0.0469 0.19922,0.10157 0.29297,0.15625 0.1875,0.10938 0.35547,0.23047 0.51562,0.36329 0.0781,0.0664 0.15235,0.13671 0.22266,0.20703 0.0742,0.0742 0.14063,0.14843 0.20703,0.22656 0.0625,0.0781 0.125,0.15625 0.1836,0.23828 0.0586,0.0859 0.11328,0.16797 0.16796,0.25781 0.15625,0.26172 0.28907,0.54297 0.39844,0.83985 0.0937,0.2539 0.17188,0.52343 0.23438,0.80078 0.0117,0.0469 0.0273,0.0898 0.0351,0.13672 0.0508,0.21484 0.0899,0.4375 0.1211,0.66406 0.0351,0.22656 0.0625,0.45312 0.0859,0.6875 0.0195,0.23437 0.0391,0.46875 0.0508,0.70312 0,0.008 0,0.0156 0,0.0234 0.0273,0.46485 0.0391,0.9375 0.0469,1.40235 0.008,0.47265 0.0117,0.9414 0.0234,1.39453 0.0156,0.67968 0.0469,1.32812 0.1289,1.91015 0.0274,0.19141 0.0586,0.375 0.0977,0.55469 0.0195,0.0859 0.043,0.17578 0.0664,0.25781 0.0234,0.0859 0.0469,0.16407 0.0742,0.2461 0.0273,0.0781 0.0586,0.15234 0.0898,0.22656 0.0312,0.0742 0.0664,0.14453 0.10156,0.21484 0.0117,0.0234 0.0274,0.043 0.0391,0.0625 0.0625,0.11328 0.13282,0.21875 0.20704,0.3125 0.0469,0.0547 0.0976,0.10938 0.14843,0.16016 0.16016,0.14844 0.33985,0.26953 0.55469,0.35547 0.21094,0.0859 0.45703,0.13672 0.73438,0.15234 0.1875,0.008 0.38671,0 0.60546,-0.0273 0.10938,-0.0117 0.22266,-0.0312 0.33985,-0.0508 0.23437,-0.0469 0.48828,-0.10938 0.76172,-0.19532 0.13281,-0.043 0.27343,-0.0898 0.42187,-0.14062 0.58203,-0.21094 1.24219,-0.5 1.98828,-0.88672 0.1875,-0.0977 0.38282,-0.19922 0.57813,-0.30859 0.39062,-0.31641 0.74219,-0.59766 1.07031,-0.85938 0.12891,-0.10156 0.23828,-0.18359 0.35938,-0.27734 0.19531,-0.15235 0.38671,-0.29688 0.5625,-0.42578 0.10546,-0.082 0.20703,-0.15235 0.30468,-0.22266 0.16016,-0.11719 0.3125,-0.22266 0.45313,-0.32031 0.11719,-0.0781 0.24219,-0.16406 0.34375,-0.23047 0.0234,-0.0117 0.0469,-0.0273 0.0664,-0.0391 0.14844,-0.0937 0.28125,-0.17188 0.40235,-0.23438 0.0469,-0.0234 0.0937,-0.0508 0.13672,-0.0703 0.0195,-0.008 0.0391,-0.0195 0.0586,-0.0273 0.0586,-0.0273 0.11328,-0.0469 0.16406,-0.0664 0.008,0 0.0117,-0.004 0.0195,-0.008 0.0547,-0.0195 0.10547,-0.0312 0.15235,-0.0391 0.004,0 0.0117,0 0.0156,0 0.0352,-0.004 0.0664,-0.008 0.0977,-0.004 0.008,0 0.0156,0.004 0.0234,0.004 0.0234,0.004 0.043,0.0117 0.0586,0.0234 0.008,0.004 0.0117,0.008 0.0156,0.0117 0.0195,0.0117 0.0312,0.0312 0.043,0.0508 0,0.004 0.004,0.008 0.004,0.0117 0.0117,0.0234 0.0156,0.0547 0.0156,0.0898 0,0.0391 -0.004,0.082 -0.0117,0.12891 12.08984,-19.37891 25.52343,-39.21094 26.34765,-61.41016 z m 0,0"
       id="path34809" />
    <path
       style="fill:#0c0e11;fill-opacity:1"
       d="m 85.476562,235.82812 c -7.964843,5.94922 -24.230468,5.95313 -17.453124,18.53516 3.640624,5.625 6.441406,10.17578 10.921874,14.53906 0.324219,-0.21875 0.59375,-0.43359 0.773438,-0.59765 3.492188,-3.27344 7.914062,-14.91797 7.90625,-25.48828 0,-4.10938 -1.046875,-6.35547 -2.148438,-6.98829 z m 0,0"
       id="path34811" />
    <path
       style="fill:#733447;fill-opacity:1"
       d="m 275.74219,71.46875 c -5.44922,20.949219 -34.95703,35.71875 -54.75782,45.16406 -0.1289,0.0625 -0.26171,0.125 -0.39062,0.1875 -0.3125,0.14844 -0.63281,0.30078 -0.93359,0.44532 -0.35938,0.16406 -0.72266,0.32421 -1.09375,0.48437 -0.0586,0.0234 -0.11329,0.0469 -0.17188,0.0703 -0.19141,0.082 -0.38672,0.16016 -0.58203,0.24219 -0.3125,0.12891 -0.62891,0.25781 -0.94922,0.38281 -0.16406,0.0625 -0.33203,0.12891 -0.49609,0.19141 -0.35157,0.13672 -0.70703,0.26562 -1.0625,0.39844 -0.14844,0.0547 -0.29688,0.10937 -0.44532,0.16406 -0.47265,0.16797 -0.95312,0.33594 -1.4414,0.5 -0.0234,0.008 -0.0469,0.0195 -0.0742,0.0273 0,0 -0.004,0 -0.008,0.004 -0.53125,0.17969 -1.07422,0.35547 -1.6211,0.53125 -0.10547,0.0312 -0.21093,0.0664 -0.3164,0.0977 -0.44532,0.14062 -0.89063,0.27734 -1.33985,0.41406 -0.14453,0.0469 -0.28906,0.0898 -0.43359,0.13281 -0.45313,0.13281 -0.90625,0.26953 -1.36719,0.40234 -0.10156,0.0273 -0.20312,0.0586 -0.30469,0.0859 -0.75,0.21875 -1.51562,0.42969 -2.28515,0.64063 -0.67969,0.18359 -1.36719,0.36718 -2.0586,0.55078 -0.33593,0.0898 -0.67578,0.17578 -1.01171,0.26562 -0.19141,0.0469 -0.38282,0.0977 -0.57032,0.14453 -1.16797,0.30079 -2.34765,0.60157 -3.54297,0.89844 -3.75,0.9375 -7.60937,1.875 -11.47265,2.875 -5.46875,1.41797 -10.94141,2.97266 -16.08594,4.85938 -4.03516,1.48046 -7.875,3.16015 -11.35156,5.14453 -15.73438,8.97265 -27.17969,21.20312 -36.09375,35.42187 -11.98828,19.13281 -3.68359,43.73047 -36.484376,62.03125 -0.542969,0.64453 -1.210938,1.23828 -1.972656,1.79688 0.03516,-0.0273 0.07422,-0.0547 0.109374,-0.082 1.105469,0.63281 2.148438,2.88281 2.152344,6.99218 0.0039,10.56641 -4.414062,22.21485 -7.910156,25.48438 -0.175781,0.16406 -0.445312,0.3789 -0.769531,0.59765 11.703125,11.39844 28.640621,19.16797 46.972661,20.74219 9.07812,0.98047 21.87499,0.51953 27.26562,0.51172 45.80859,-0.11328 89.46094,-21.37891 115.68359,-51.54297 2.73438,-3.32031 16.74219,-19.70703 5.40235,-10.39062 -12.70313,6.93359 -2.00782,-10.71875 -11.375,-11.39453 -17.67969,-5.44141 3.01172,-14.19141 6.23047,-20.85157 -8.08985,-3.97265 -12.72657,-10.34375 -6.14063,-17.48047 12.09375,-8.77734 -7.46484,-1.87109 -10.37109,-4.9375 15.45312,-17.26953 30.11328,-36.10937 33.375,-57.78515 2.04687,-15.05078 -0.53516,-31.312501 -9.90625,-44.41797 z M 150.03516,176.24609 c 9.34765,-0.0117 10.04687,14.51563 11.07421,21.03516 1.55469,9.75 3.35938,20.71094 -11.05078,24.36328 -0.98047,0.41797 -4.76562,2.83594 -3.65234,-0.15625 4.09375,-7.12109 -3.00391,-25.10156 -13.96094,-16.16016 -1.08984,-10.14843 2.53906,-21.75781 13.02735,-28.12109 1.71484,-0.66016 3.22656,-0.96094 4.5625,-0.96094 z m -65.25391,59.94922 c -0.0625,0.0469 -0.128906,0.0898 -0.191406,0.13281 0.0625,-0.043 0.128906,-0.0859 0.191406,-0.13281 z m -6.457031,32.54688 v 0.004 c 0.04297,0.043 0.08984,0.0859 0.132812,0.12891 -0.04297,-0.043 -0.08594,-0.0898 -0.132812,-0.13281 z m 0,0"
       id="path34813" />
    <path
       style="fill:#0c0e11;fill-opacity:1;fill-rule:evenodd;stroke:#00334c;stroke-width:0.955207;stroke-linejoin:round"
       d="m 179.26042,372.00521 c 7.02604,-0.71875 10.14583,-0.96354 18.49479,-7.82813 9.16146,-8.42708 17.17708,-18.28646 25.74479,-27.46354 0.47917,-1.69271 -2.08854,-5.84896 -2.89063,-3.09375 -0.20833,1.73438 -1,2.21875 -2.89583,4.6875 -8.79167,9.17188 -17.71354,20.46875 -26.36979,27.50521 -1.13542,1.24479 -8.59896,5.21354 -12.08333,6.19271 z m 0,0"
       id="path34815"
       transform="scale(0.75)" />
    <path
       style="fill:#d0ebee;fill-rule:evenodd;fill-opacity:1"
       d="m 139.11719,211.73437 c -1.15625,1.66797 -3.08203,1.82813 -4.29297,0.35938 -1.21485,-1.47266 -1.26563,-4.01563 -0.10938,-5.6875 1.15625,-1.67188 3.08203,-1.83594 4.29688,-0.36719 1.21484,1.46485 1.26562,4.01172 0.11328,5.6836"
       id="path34817" />
    <use
       mask="url(#mask1)"
       xlink:href="#surface8"
       id="use34819"
       x="0"
       y="0"
       width="100%"
       height="100%"
       style="fill:#733447;fill-opacity:1" />
  </g>
</svg>
