<?xml version="1.0" encoding="UTF-8" standalone="no"?>
<svg
   xmlns:dc="http://purl.org/dc/elements/1.1/"
   xmlns:cc="http://creativecommons.org/ns#"
   xmlns:rdf="http://www.w3.org/1999/02/22-rdf-syntax-ns#"
   xmlns:svg="http://www.w3.org/2000/svg"
   xmlns="http://www.w3.org/2000/svg"
   xmlns:sodipodi="http://sodipodi.sourceforge.net/DTD/sodipodi-0.dtd"
   xmlns:inkscape="http://www.inkscape.org/namespaces/inkscape"
   width="64px"
   height="64px"
   viewBox="0 0 64 64"
   version="1.1"
   id="svg36019"
   sodipodi:docname="inkscape.svg"
   inkscape:version="1.0.2 (e86c870879, 2021-01-15)">
  <metadata
     id="metadata36025">
    <rdf:RDF>
      <cc:Work
         rdf:about="">
        <dc:format>image/svg+xml</dc:format>
        <dc:type
           rdf:resource="http://purl.org/dc/dcmitype/StillImage" />
      </cc:Work>
    </rdf:RDF>
  </metadata>
  <defs
     id="defs36023" />
  <sodipodi:namedview
     pagecolor="#ffffff"
     bordercolor="#666666"
     borderopacity="1"
     objecttolerance="10"
     gridtolerance="10"
     guidetolerance="10"
     inkscape:pageopacity="0"
     inkscape:pageshadow="2"
     inkscape:window-width="2560"
     inkscape:window-height="1403"
     id="namedview36021"
     showgrid="false"
     inkscape:zoom="10.429825"
     inkscape:cx="36.016025"
     inkscape:cy="27.437728"
     inkscape:window-x="0"
     inkscape:window-y="0"
     inkscape:window-maximized="1"
     inkscape:current-layer="surface1"
     inkscape:document-rotation="0" />
  <g
     id="surface1">
    <path
       style="fill:#0c0e11;fill-opacity:1;fill-rule:nonzero;stroke:none"
       d="M 31.765625,3.160156 C 31.019531,3.15625 30.304688,3.46875 29.800781,4.019531 L 3.34375,33.125 c -1.304688,1.433594 -0.664062,3.734375 1.191406,4.292969 l 10.015625,4.09375 c 3.640625,1.648437 -4.183593,3.085937 -4.296875,5.617187 0.328125,2.320313 5.621094,3.640625 8.265625,3.640625 6.617188,0 -1.320312,2.648438 1.324219,5.292969 3.308594,2.644531 9.261719,2.078125 9.261719,2.644531 0,1.46875 1.769531,2.648438 3.96875,2.648438 2.382812,-0.03906 8.597656,-2.648438 3.96875,-5.953125 -4.632813,-3.308594 15.875,-3.96875 8.597656,-8.601563 C 42.996094,44.816406 45.96875,42.5 50.269531,40.847656 l 8.695313,-3.429687 C 60.855469,36.878906 61.460938,34.558594 60.15625,33.125 L 33.699219,4.019531 C 33.21875,3.492188 32.546875,3.183594 31.835938,3.160156 c -0.02344,0 -0.04688,0 -0.07031,0 z m 0,0"
       id="path36000" />
    <path
       style="fill:#d0ebee;fill-opacity:1;fill-rule:nonzero;stroke:none"
       d="M 31.765625,3.160156 C 31.019531,3.15625 30.304688,3.46875 29.800781,4.019531 L 14.46875,20.886719 c 1.019531,1.207031 2.535156,2.296875 4.050781,0.78125 2.648438,-2.648438 7.9375,-2.648438 7.9375,-2.648438 l 2.648438,-5.289062 V 16.375 c 0,5.292969 5.289062,2.644531 5.289062,2.644531 0,0 5.292969,-5.289062 7.9375,0 2.21875,4.4375 6.296875,3.296875 7.554688,2.808594 L 33.699219,4.019531 C 33.21875,3.492188 32.546875,3.183594 31.835938,3.160156 c -0.02344,0 -0.04688,0 -0.07031,0 z m 0,0"
       id="path36002" />
    <path
       style="fill:#0c0e11;fill-opacity:1;fill-rule:nonzero;stroke:none"
       d="m 48.949219,46.800781 c 0,0 6.507812,-4.300781 8.605469,-0.105469 2.097656,4.199219 -8.605469,0.105469 -8.605469,0.105469 z m 0,0"
       id="path36004" />
    <path
       style="fill:#0c0e11;fill-opacity:1;fill-rule:nonzero;stroke:none"
       d="m 48.949219,49.449219 c 0,0 4.398437,2.195312 2.769531,4.664062 -1.632812,2.46875 -2.769531,-4.664062 -2.769531,-4.664062 z m 0,0"
       id="path36006" />
    <path
       style="fill:#0c0e11;fill-opacity:1;fill-rule:nonzero;stroke:none"
       d="m 15.875,52.09375 c 0,0 -5.957031,-1.972656 -5.523438,2.457031 0.4375,4.425781 5.523438,-2.457031 5.523438,-2.457031 z m 0,0"
       id="path36008" />
    <path
       style="fill:#733447;fill-opacity:1;fill-rule:nonzero;stroke:none"
       d="M 10.847656,34.292969 10.320312,35.5 31.75,44.875 53.179688,35.5 52.652344,34.292969 31.75,43.4375 Z m 0,0"
       id="path36010" />
    <path
       style="fill:#2e3436;fill-opacity:1;fill-rule:nonzero;stroke:none"
       d="m 31.691406,40.304688 h 0.117188 c 2.160156,0 3.910156,1.75 3.910156,3.910156 0,2.160156 -1.75,3.910156 -3.910156,3.910156 h -0.117188 c -2.160156,0 -3.910156,-1.75 -3.910156,-3.910156 0,-2.160156 1.75,-3.910156 3.910156,-3.910156 z m 0,0"
       id="path36012" />
    <path
       style="fill:#2e3436;fill-opacity:1;fill-rule:nonzero;stroke:none"
       d="m 10.542969,32.328125 h 0.07813 c 1.441406,0 2.609375,1.167969 2.609375,2.605469 0,1.441406 -1.167969,2.609375 -2.609375,2.609375 h -0.07813 c -1.4375,0 -2.605469,-1.167969 -2.605469,-2.609375 0,-1.4375 1.167969,-2.605469 2.605469,-2.605469 z m 0,0"
       id="path36014" />
    <path
       style="fill:#2e3436;fill-opacity:1;fill-rule:nonzero;stroke:none"
       d="m 52.878906,32.328125 h 0.07813 c 1.4375,0 2.605469,1.167969 2.605469,2.605469 0,1.441406 -1.167969,2.609375 -2.605469,2.609375 h -0.07813 c -1.441406,0 -2.609375,-1.167969 -2.609375,-2.609375 0,-1.4375 1.167969,-2.605469 2.609375,-2.605469 z m 0,0"
       id="path36016" />
  </g>
</svg>
