<?xml version="1.0" encoding="UTF-8" standalone="no"?>
<svg
   xmlns:dc="http://purl.org/dc/elements/1.1/"
   xmlns:cc="http://creativecommons.org/ns#"
   xmlns:rdf="http://www.w3.org/1999/02/22-rdf-syntax-ns#"
   xmlns:svg="http://www.w3.org/2000/svg"
   xmlns="http://www.w3.org/2000/svg"
   xmlns:sodipodi="http://sodipodi.sourceforge.net/DTD/sodipodi-0.dtd"
   xmlns:inkscape="http://www.inkscape.org/namespaces/inkscape"
   width="64px"
   height="64px"
   viewBox="0 0 64 64"
   version="1.1"
   id="svg17"
   sodipodi:docname="com.jetbrains.IntelliJ-IDEA-Ultimate.svg"
   inkscape:version="1.0.2 (e86c870879, 2021-01-15)">
  <metadata
     id="metadata23">
    <rdf:RDF>
      <cc:Work
         rdf:about="">
        <dc:format>image/svg+xml</dc:format>
        <dc:type
           rdf:resource="http://purl.org/dc/dcmitype/StillImage" />
      </cc:Work>
    </rdf:RDF>
  </metadata>
  <defs
     id="defs21" />
  <sodipodi:namedview
     pagecolor="#ffffff"
     bordercolor="#666666"
     borderopacity="1"
     objecttolerance="10"
     gridtolerance="10"
     guidetolerance="10"
     inkscape:pageopacity="0"
     inkscape:pageshadow="2"
     inkscape:window-width="2560"
     inkscape:window-height="1403"
     id="namedview19"
     showgrid="false"
     inkscape:zoom="10.429825"
     inkscape:cx="33.03745"
     inkscape:cy="17.327708"
     inkscape:window-x="0"
     inkscape:window-y="0"
     inkscape:window-maximized="1"
     inkscape:current-layer="surface1"
     inkscape:document-rotation="0" />
  <g
     id="surface1">
    <path
       style="fill:#52677c;fill-opacity:1;fill-rule:nonzero;stroke:none"
       d="m 5.292969,3.144531 c -1.46875,0 -2.648438,1.179688 -2.648438,2.648438 V 32.25 H 31.75 V 3.144531 Z m 0,0"
       id="path2" />
    <path
       style="fill:#733447;fill-opacity:1;fill-rule:nonzero;stroke:none"
       d="m 58.207031,3.144531 c 1.46875,0 2.648438,1.179688 2.648438,2.648438 V 32.25 H 31.75 V 3.144531 Z m 0,0"
       id="path4" />
    <path
       style="fill:#733447;fill-opacity:1;fill-rule:nonzero;stroke:none"
       d="m 5.292969,61.355469 c -1.46875,0 -2.648438,-1.179688 -2.648438,-2.648438 V 32.25 H 31.75 v 29.105469 z m 0,0"
       id="path6" />
    <path
       style="fill:#52677c;fill-opacity:1;fill-rule:nonzero;stroke:none"
       d="m 58.207031,61.355469 c 1.46875,0 2.648438,-1.179688 2.648438,-2.648438 V 32.25 H 31.75 v 29.105469 z m 0,0"
       id="path8" />
    <path
       style="fill:#0c0e11;fill-opacity:1;fill-rule:nonzero;stroke:none"
       d="m 15.792969,13.8125 h 31.914062 c 1.417969,0 2.5625,1.148438 2.5625,2.5625 v 33.074219 c 0,1.414062 -1.144531,2.5625 -2.5625,2.5625 H 15.792969 c -1.417969,0 -2.5625,-1.148438 -2.5625,-2.5625 V 16.375 c 0,-1.414062 1.144531,-2.5625 2.5625,-2.5625 z m 0,0"
       id="path10" />
    <path
       style="fill:#d0ebee;fill-opacity:1;fill-rule:nonzero;stroke:none"
       d="m 40.347656,21.667969 c -0.363281,0 -0.660156,0.292969 -0.660156,0.660156 V 36.21875 c 0,2.199219 -1.769531,3.96875 -3.96875,3.96875 h -1.324219 c -2.199219,0 -3.96875,-1.769531 -3.96875,-3.96875 0,-0.367188 -0.292969,-0.660156 -0.660156,-0.660156 h -1.324219 c -0.363281,0 -0.660156,0.292968 -0.660156,0.660156 0,3.664062 2.949219,6.613281 6.613281,6.613281 h 1.324219 c 3.664062,0 6.613281,-2.949219 6.613281,-6.613281 V 22.328125 c 0,-0.367187 -0.292969,-0.660156 -0.660156,-0.660156 z m 0,0"
       id="path12" />
    <path
       style="fill:#d0ebee;fill-opacity:1;fill-rule:nonzero;stroke:none"
       d="m 21.828125,21.667969 h 1.324219 c 0.363281,0 0.660156,0.292969 0.660156,0.660156 v 19.84375 c 0,0.367187 -0.296875,0.660156 -0.660156,0.660156 h -1.324219 c -0.367187,0 -0.660156,-0.292969 -0.660156,-0.660156 v -19.84375 c 0,-0.367187 0.292969,-0.660156 0.660156,-0.660156 z m 0,0"
       id="path14" />
  </g>
</svg>
