<?xml version="1.0" encoding="UTF-8" standalone="no"?>
<svg
   width="64px"
   height="64px"
   viewBox="0 0 64 64"
   version="1.1"
   id="svg1120"
   sodipodi:docname="krita.svg"
   inkscape:version="1.1.1 (3bf5ae0d25, 2021-09-20)"
   xmlns:inkscape="http://www.inkscape.org/namespaces/inkscape"
   xmlns:sodipodi="http://sodipodi.sourceforge.net/DTD/sodipodi-0.dtd"
   xmlns="http://www.w3.org/2000/svg"
   xmlns:svg="http://www.w3.org/2000/svg">
  <defs
     id="defs1124" />
  <sodipodi:namedview
     id="namedview1122"
     pagecolor="#505050"
     bordercolor="#eeeeee"
     borderopacity="1"
     inkscape:pageshadow="0"
     inkscape:pageopacity="0"
     inkscape:pagecheckerboard="0"
     showgrid="false"
     inkscape:zoom="18.71875"
     inkscape:cx="31.973289"
     inkscape:cy="32"
     inkscape:window-width="2560"
     inkscape:window-height="1412"
     inkscape:window-x="0"
     inkscape:window-y="0"
     inkscape:window-maximized="1"
     inkscape:current-layer="surface1" />
  <g
     id="surface1">
    <path
       style="stroke:none;fill-rule:nonzero;fill:#0c0e11;fill-opacity:1"
       d="M 31.75 3.144531 C 15.625 3.144531 2.644531 16.125 2.644531 32.25 C 2.644531 48.375 15.625 61.355469 31.75 61.355469 C 42.332031 61.355469 34.433594 48.601562 34.394531 45.480469 C 34.394531 29.605469 60.855469 53.417969 60.855469 32.25 C 60.855469 16.125 47.875 3.144531 31.75 3.144531 Z M 31.75 3.144531 "
       id="path1099" />
    <path
       style="fill:#52677c;fill-opacity:1;fill-rule:nonzero;stroke:none"
       d="m 41.110881,17.272798 c -1.027343,0.902344 -1.777343,-0.515625 -3.058593,-0.140625 -1.28125,0.378906 -1.058594,1.40625 -2.414063,1.171875 -1.359375,-0.230469 -0.433594,-0.652344 -1.539063,-1.414062 -1.109374,-0.765626 -2.164062,0.03516 -2.808593,-1.191407 -0.648438,-1.230469 1,-1.34375 0.765625,-2.703125 -0.234375,-1.355468 -1.222656,-1.152344 -0.757813,-2.40625 0.460938,-1.2578116 1.40625,-0.410156 2.289063,-1.3945306 0.882812,-0.984375 0.02734,-1.210937 1.289062,-1.757813 1.265625,-0.546874 1.066406,0.917969 2.394532,0.992188 1.332031,0.074219 1.398437,-0.996094 2.589843,-0.386719 1.191407,0.605469 -0.109375,1.328125 0.695313,2.3789066 0.804687,1.046874 1.519531,0.40625 1.710937,1.734374 0.1875,1.332032 -0.652343,0.914063 -1.117187,2.144532 -0.460938,1.230468 0.988281,2.070312 -0.03906,2.972656 z m 0,0"
       id="path1103" />
    <path
       style="stroke:none;fill-rule:nonzero;fill:#733447;fill-opacity:1"
       d="M 17.199219 28.28125 C 16.171875 29.183594 15.421875 27.765625 14.136719 28.140625 C 12.855469 28.519531 13.082031 29.546875 11.722656 29.3125 C 10.363281 29.082031 11.289062 28.660156 10.183594 27.898438 C 9.078125 27.132812 8.019531 27.933594 7.375 26.707031 C 6.730469 25.476562 8.375 25.363281 8.140625 24.003906 C 7.90625 22.648438 6.921875 22.851562 7.382812 21.597656 C 7.847656 20.339844 8.789062 21.1875 9.671875 20.203125 C 10.554688 19.21875 9.699219 18.992188 10.964844 18.445312 C 12.226562 17.898438 12.027344 19.363281 13.359375 19.4375 C 14.6875 19.511719 14.753906 18.441406 15.949219 19.050781 C 17.140625 19.65625 15.835938 20.378906 16.640625 21.429688 C 17.449219 22.476562 18.164062 21.835938 18.351562 23.164062 C 18.539062 24.496094 17.699219 24.078125 17.234375 25.308594 C 16.773438 26.539062 18.226562 27.378906 17.199219 28.28125 Z M 17.199219 28.28125 "
       id="path1107" />
    <path
       style="fill:#d0ebee;fill-opacity:1;fill-rule:nonzero;stroke:none"
       d="m 22.34043,46.452871 c -1.027343,0.898437 -1.777343,-0.519531 -3.058593,-0.140625 -1.28125,0.375 -1.058594,1.402344 -2.414063,1.171875 -1.359375,-0.234375 -0.433594,-0.652344 -1.539063,-1.417969 -1.109374,-0.761719 -2.164062,0.03906 -2.808593,-1.191406 -0.648438,-1.226563 1,-1.339844 0.765625,-2.699219 -0.234375,-1.359375 -1.222656,-1.152344 -0.757813,-2.410156 0.460938,-1.257813 1.40625,-0.40625 2.289063,-1.390625 0.882812,-0.984375 0.02734,-1.210938 1.289062,-1.757813 1.265625,-0.550781 1.066406,0.917969 2.394532,0.992188 1.332031,0.07422 1.398437,-0.996094 2.589843,-0.386719 1.191407,0.605469 -0.109375,1.328125 0.695313,2.375 0.804687,1.050781 1.519531,0.40625 1.710937,1.738281 0.1875,1.332031 -0.652343,0.910157 -1.117187,2.140625 -0.460938,1.230469 0.988281,2.074219 -0.03906,2.976563 z m 0,0"
       id="path1111" />
    <path
       style="stroke:none;fill-rule:nonzero;fill:#733447;fill-opacity:1"
       d="M 35.496094 41.160156 C 38.777344 44.730469 40.699219 46.816406 42.808594 48.925781 C 51.101562 57.21875 59.027344 62.640625 60.582031 61.085938 C 62.136719 59.53125 56.710938 51.605469 48.421875 43.3125 C 46.324219 41.214844 44.269531 39.324219 40.710938 36.054688 C 39.117188 37.96875 37.390625 39.699219 35.496094 41.160156 Z M 35.496094 41.160156 "
       id="path1113" />
    <path
       style="stroke:none;fill-rule:nonzero;fill:#d0ebee;fill-opacity:1"
       d="M 29.710938 32.085938 C 31.582031 35.828125 33.300781 38.765625 35.550781 41.214844 C 37.496094 39.613281 39.214844 37.902344 40.710938 36.054688 C 38.355469 33.863281 35.324219 32.085938 31.582031 30.214844 Z M 29.710938 32.085938 "
       id="path1115" />
    <path
       style="stroke:none;fill-rule:nonzero;fill:#2e3436;fill-opacity:1"
       d="M 31.589844 30.207031 C 31.589844 30.207031 33.886719 22.960938 29.171875 22.242188 C 23.742188 21.417969 29.105469 17.035156 29.105469 17.035156 C 16.945312 17.972656 18.960938 32.546875 29.71875 32.078125 Z M 31.589844 30.207031 "
       id="path1117" />
  </g>
</svg>
