<?xml version="1.0" encoding="UTF-8" standalone="no"?>
<svg
   xmlns:dc="http://purl.org/dc/elements/1.1/"
   xmlns:cc="http://creativecommons.org/ns#"
   xmlns:rdf="http://www.w3.org/1999/02/22-rdf-syntax-ns#"
   xmlns:svg="http://www.w3.org/2000/svg"
   xmlns="http://www.w3.org/2000/svg"
   xmlns:sodipodi="http://sodipodi.sourceforge.net/DTD/sodipodi-0.dtd"
   xmlns:inkscape="http://www.inkscape.org/namespaces/inkscape"
   width="64px"
   height="64px"
   viewBox="0 0 64 64"
   version="1.1"
   id="svg21"
   sodipodi:docname="org.gnome.font-viewer.svg"
   inkscape:version="1.0.2 (e86c870879, 2021-01-15)">
  <metadata
     id="metadata27">
    <rdf:RDF>
      <cc:Work
         rdf:about="">
        <dc:format>image/svg+xml</dc:format>
        <dc:type
           rdf:resource="http://purl.org/dc/dcmitype/StillImage" />
      </cc:Work>
    </rdf:RDF>
  </metadata>
  <defs
     id="defs25" />
  <sodipodi:namedview
     pagecolor="#ffffff"
     bordercolor="#666666"
     borderopacity="1"
     objecttolerance="10"
     gridtolerance="10"
     guidetolerance="10"
     inkscape:pageopacity="0"
     inkscape:pageshadow="2"
     inkscape:window-width="2560"
     inkscape:window-height="1403"
     id="namedview23"
     showgrid="false"
     inkscape:zoom="15.75"
     inkscape:cx="32"
     inkscape:cy="32"
     inkscape:window-x="0"
     inkscape:window-y="0"
     inkscape:window-maximized="1"
     inkscape:current-layer="surface1" />
  <g
     id="surface1">
    <path
       style="fill:#d0ebee;fill-opacity:1;fill-rule:nonzero;stroke:none"
       d="m 14.550781,3.144531 h 35.71875 c 1.460938,0 2.648438,1.1875 2.648438,2.648438 v 52.914062 c 0,1.460938 -1.1875,2.648438 -2.648438,2.648438 h -35.71875 c -1.460937,0 -2.644531,-1.1875 -2.644531,-2.648438 V 5.792969 c 0,-1.460938 1.183594,-2.648438 2.644531,-2.648438 z m 0,0"
       id="path6" />
    <path
       style="fill:#0c0e11;fill-opacity:1;fill-rule:nonzero;stroke:none"
       d="m 10.582031,3.144531 c -1.464843,0 -2.644531,1.179688 -2.644531,2.648438 v 52.914062 c 0,1.46875 1.179688,2.648438 2.644531,2.648438 H 15.875 V 3.144531 Z m 0,0"
       id="path8" />
    <path
       style="fill:#2e3436;fill-opacity:1;fill-rule:nonzero;stroke:none"
       d="m 7.9375,30.925781 h 6.613281 v 2.648438 H 7.9375 Z m 0,0"
       id="path10" />
    <path
       style="fill:#2e3436;fill-opacity:1;fill-rule:nonzero;stroke:none"
       d="m 7.9375,16.375 h 6.613281 v 2.644531 H 7.9375 Z m 0,0"
       id="path12" />
    <path
       style="fill:#2e3436;fill-opacity:1;fill-rule:nonzero;stroke:none"
       d="m 7.9375,45.480469 h 6.613281 V 48.125 H 7.9375 Z m 0,0"
       id="path14" />
    <path
       style="fill:#2e3436;fill-opacity:1;fill-rule:nonzero;stroke:none"
       d="m 31.089844,19.019531 c -4.03125,0 -7.277344,2.953125 -7.277344,6.617188 v 13.890625 c 0,0.363281 0.296875,0.660156 0.660156,0.660156 h 1.324219 c 0.367187,0 0.660156,-0.296875 0.660156,-0.660156 v -5.953125 h 9.261719 v 5.953125 c 0,0.363281 0.296875,0.660156 0.660156,0.660156 h 1.324219 c 0.367187,0 0.660156,-0.296875 0.660156,-0.660156 V 25.636719 c 0,-3.664063 -3.242187,-6.617188 -7.273437,-6.617188 z m 0,2.648438 c 2.5625,0 4.628906,1.769531 4.628906,3.96875 v 5.289062 h -9.261719 v -5.289062 c 0,-2.199219 2.066407,-3.96875 4.632813,-3.96875 z m 0,0"
       id="path16" />
    <path
       style="fill:#0c0e11;fill-opacity:1;fill-rule:nonzero;stroke:none"
       d="m 37.703125,32.429688 c -4.03125,0 -7.277344,2.953124 -7.277344,6.617187 0,3.664063 3.246094,6.613281 7.277344,6.613281 1.761719,0 3.375,-0.5625 4.628906,-1.503906 V 45 c 0,0.367188 0.296875,0.660156 0.664063,0.660156 h 1.320312 c 0.367188,0 0.664063,-0.292968 0.664063,-0.660156 V 33.09375 c 0,-0.367188 -0.296875,-0.664062 -0.664063,-0.664062 h -1.320312 c -0.367188,0 -0.664063,0.296874 -0.664063,0.664062 v 0.84375 c -1.253906,-0.941406 -2.867187,-1.507812 -4.628906,-1.507812 z m 0,2.648437 c 2.566406,0 4.628906,1.769531 4.628906,3.96875 0,2.199219 -2.0625,3.96875 -4.628906,3.96875 -2.566406,0 -4.628906,-1.769531 -4.628906,-3.96875 0,-2.199219 2.0625,-3.96875 4.628906,-3.96875 z m 0,0"
       id="path18" />
  </g>
</svg>
