<?xml version="1.0" encoding="UTF-8" standalone="no"?>
<svg
   xmlns:dc="http://purl.org/dc/elements/1.1/"
   xmlns:cc="http://creativecommons.org/ns#"
   xmlns:rdf="http://www.w3.org/1999/02/22-rdf-syntax-ns#"
   xmlns:svg="http://www.w3.org/2000/svg"
   xmlns="http://www.w3.org/2000/svg"
   xmlns:sodipodi="http://sodipodi.sourceforge.net/DTD/sodipodi-0.dtd"
   xmlns:inkscape="http://www.inkscape.org/namespaces/inkscape"
   width="64px"
   height="64px"
   viewBox="0 0 64 64"
   version="1.1"
   id="svg21"
   sodipodi:docname="org.gnome.Boxes.svg"
   inkscape:version="1.0.2 (e86c870879, 2021-01-15)">
  <metadata
     id="metadata27">
    <rdf:RDF>
      <cc:Work
         rdf:about="">
        <dc:format>image/svg+xml</dc:format>
        <dc:type
           rdf:resource="http://purl.org/dc/dcmitype/StillImage" />
      </cc:Work>
    </rdf:RDF>
  </metadata>
  <defs
     id="defs25" />
  <sodipodi:namedview
     pagecolor="#ffffff"
     bordercolor="#666666"
     borderopacity="1"
     objecttolerance="10"
     gridtolerance="10"
     guidetolerance="10"
     inkscape:pageopacity="0"
     inkscape:pageshadow="2"
     inkscape:window-width="2560"
     inkscape:window-height="1403"
     id="namedview23"
     showgrid="false"
     inkscape:zoom="15.75"
     inkscape:cx="32"
     inkscape:cy="32"
     inkscape:window-x="0"
     inkscape:window-y="0"
     inkscape:window-maximized="1"
     inkscape:current-layer="surface1" />
  <g
     id="surface1">
    <path
       style="fill:#2e3436;fill-opacity:1;fill-rule:nonzero;stroke:none"
       d="m 10.484375,8.957031 -1.871094,1.871094 0.648438,0.648437 v 41.390626 l -0.648438,0.648437 1.871094,1.871094 0.648437,-0.648438 h 41.390626 l 0.648437,0.648438 1.871094,-1.871094 -0.804688,-0.804687 V 11.632812 L 55.042969,10.828125 53.171875,8.957031 52.367188,9.761719 H 11.289062 Z m 3.449219,3.449219 h 35.789062 l -9.261718,9.261719 H 23.195312 Z m -2.027344,1.714844 9.261719,9.261718 v 17.578126 l -9.261719,9.261718 z m 39.6875,0.15625 V 50.066406 L 42.332031,40.804688 V 23.539062 Z M 23.8125,24.3125 h 15.875 v 15.875 h -15.875 z m -0.773438,18.519531 h 17.578126 l 9.261718,9.261719 H 13.777344 Z m 0,0"
       id="path2" />
    <path
       style="fill:#d0ebee;fill-opacity:1;fill-rule:nonzero;stroke:none"
       d="m 10.582031,3.144531 c 4.386719,0 7.9375,3.554688 7.9375,7.9375 0,4.386719 -3.550781,7.9375 -7.9375,7.9375 -4.382812,0 -7.9375,-3.550781 -7.9375,-7.9375 0,-4.382812 3.554688,-7.9375 7.9375,-7.9375 z m 0,0"
       id="path4" />
    <path
       style="fill:#d0ebee;fill-opacity:1;fill-rule:nonzero;stroke:none"
       d="m 52.917969,3.144531 c 4.382812,0 7.9375,3.554688 7.9375,7.9375 0,4.386719 -3.554688,7.9375 -7.9375,7.9375 -4.386719,0 -7.9375,-3.550781 -7.9375,-7.9375 0,-4.382812 3.550781,-7.9375 7.9375,-7.9375 z m 0,0"
       id="path6" />
    <path
       style="fill:#d0ebee;fill-opacity:1;fill-rule:nonzero;stroke:none"
       d="m 52.917969,45.480469 c 4.382812,0 7.9375,3.550781 7.9375,7.9375 0,4.382812 -3.554688,7.9375 -7.9375,7.9375 -4.386719,0 -7.9375,-3.554688 -7.9375,-7.9375 0,-4.386719 3.550781,-7.9375 7.9375,-7.9375 z m 0,0"
       id="path8" />
    <path
       style="fill:#d0ebee;fill-opacity:1;fill-rule:nonzero;stroke:none"
       d="m 10.582031,45.480469 c 4.386719,0 7.9375,3.550781 7.9375,7.9375 0,4.382812 -3.550781,7.9375 -7.9375,7.9375 -4.382812,0 -7.9375,-3.554688 -7.9375,-7.9375 0,-4.386719 3.554688,-7.9375 7.9375,-7.9375 z m 0,0"
       id="path10" />
    <path
       style="fill:#d0ebee;fill-opacity:1;fill-rule:nonzero;stroke:none"
       d="m 22.488281,37.542969 c 2.191407,0 3.96875,1.777343 3.96875,3.96875 0,2.191406 -1.777343,3.96875 -3.96875,3.96875 -2.191406,0 -3.96875,-1.777344 -3.96875,-3.96875 0,-2.191407 1.777344,-3.96875 3.96875,-3.96875 z m 0,0"
       id="path12" />
    <path
       style="fill:#d0ebee;fill-opacity:1;fill-rule:nonzero;stroke:none"
       d="m 41.011719,37.542969 c 2.191406,0 3.96875,1.777343 3.96875,3.96875 0,2.191406 -1.777344,3.96875 -3.96875,3.96875 -2.191407,0 -3.96875,-1.777344 -3.96875,-3.96875 0,-2.191407 1.777343,-3.96875 3.96875,-3.96875 z m 0,0"
       id="path14" />
    <path
       style="fill:#d0ebee;fill-opacity:1;fill-rule:nonzero;stroke:none"
       d="m 41.011719,19.019531 c 2.191406,0 3.96875,1.777344 3.96875,3.96875 0,2.191407 -1.777344,3.96875 -3.96875,3.96875 -2.191407,0 -3.96875,-1.777343 -3.96875,-3.96875 0,-2.191406 1.777343,-3.96875 3.96875,-3.96875 z m 0,0"
       id="path16" />
    <path
       style="fill:#d0ebee;fill-opacity:1;fill-rule:nonzero;stroke:none"
       d="m 22.488281,19.019531 c 2.191407,0 3.96875,1.777344 3.96875,3.96875 0,2.191407 -1.777343,3.96875 -3.96875,3.96875 -2.191406,0 -3.96875,-1.777343 -3.96875,-3.96875 0,-2.191406 1.777344,-3.96875 3.96875,-3.96875 z m 0,0"
       id="path18" />
  </g>
</svg>
