<?xml version="1.0" encoding="UTF-8" standalone="no"?>
<svg
   xmlns:dc="http://purl.org/dc/elements/1.1/"
   xmlns:cc="http://creativecommons.org/ns#"
   xmlns:rdf="http://www.w3.org/1999/02/22-rdf-syntax-ns#"
   xmlns:svg="http://www.w3.org/2000/svg"
   xmlns="http://www.w3.org/2000/svg"
   xmlns:sodipodi="http://sodipodi.sourceforge.net/DTD/sodipodi-0.dtd"
   xmlns:inkscape="http://www.inkscape.org/namespaces/inkscape"
   width="64px"
   height="64px"
   viewBox="0 0 64 64"
   version="1.1"
   id="svg5"
   sodipodi:docname="org.gnome.Extensions.svg"
   inkscape:version="1.0.2 (e86c870879, 2021-01-15)">
  <metadata
     id="metadata11">
    <rdf:RDF>
      <cc:Work
         rdf:about="">
        <dc:format>image/svg+xml</dc:format>
        <dc:type
           rdf:resource="http://purl.org/dc/dcmitype/StillImage" />
      </cc:Work>
    </rdf:RDF>
  </metadata>
  <defs
     id="defs9" />
  <sodipodi:namedview
     pagecolor="#ffffff"
     bordercolor="#666666"
     borderopacity="1"
     objecttolerance="10"
     gridtolerance="10"
     guidetolerance="10"
     inkscape:pageopacity="0"
     inkscape:pageshadow="2"
     inkscape:window-width="2560"
     inkscape:window-height="1403"
     id="namedview7"
     showgrid="false"
     inkscape:zoom="15.75"
     inkscape:cx="32"
     inkscape:cy="32"
     inkscape:window-x="0"
     inkscape:window-y="0"
     inkscape:window-maximized="1"
     inkscape:current-layer="surface1" />
  <g
     id="surface1">
    <path
       style="fill:#257b76;fill-opacity:1;fill-rule:nonzero;stroke:none"
       d="m 23.8125,3.144531 c -4.398438,0 -7.9375,3.542969 -7.9375,7.9375 0,2.363281 1.019531,4.476563 2.644531,5.925781 v 2.011719 H 6.613281 c -2.199219,0 -3.96875,1.769531 -3.96875,3.96875 v 11.90625 H 4.65625 C 6.109375,33.269531 8.222656,32.25 10.582031,32.25 c 4.398438,0 7.9375,3.539062 7.9375,7.9375 0,4.398438 -3.539062,7.9375 -7.9375,7.9375 -2.359375,0 -4.472656,-1.019531 -5.925781,-2.644531 H 2.644531 v 11.90625 c 0,2.199219 1.769531,3.96875 3.96875,3.96875 h 11.90625 V 59.34375 C 16.894531,57.890625 15.875,55.777344 15.875,53.417969 c 0,-4.398438 3.539062,-7.9375 7.9375,-7.9375 4.398438,0 7.9375,3.539062 7.9375,7.9375 0,2.359375 -1.019531,4.472656 -2.644531,5.925781 v 2.011719 h 11.90625 c 2.199219,0 3.96875,-1.769531 3.96875,-3.96875 v -11.90625 h 2.011719 c 1.449218,1.625 3.5625,2.644531 5.925781,2.644531 4.394531,0 7.9375,-3.539062 7.9375,-7.9375 0,-4.398438 -3.542969,-7.9375 -7.9375,-7.9375 -2.363281,0 -4.476563,1.019531 -5.925781,2.644531 h -2.011719 v -11.90625 c 0,-2.199219 -1.769531,-3.96875 -3.96875,-3.96875 h -11.90625 v -2.011719 c 1.625,-1.449218 2.644531,-3.5625 2.644531,-5.925781 0,-4.394531 -3.539062,-7.9375 -7.9375,-7.9375 z m 0,0"
       id="path2" />
  </g>
</svg>
