<?xml version="1.0" encoding="UTF-8" standalone="no"?>
<svg
   xmlns:dc="http://purl.org/dc/elements/1.1/"
   xmlns:cc="http://creativecommons.org/ns#"
   xmlns:rdf="http://www.w3.org/1999/02/22-rdf-syntax-ns#"
   xmlns:svg="http://www.w3.org/2000/svg"
   xmlns="http://www.w3.org/2000/svg"
   xmlns:sodipodi="http://sodipodi.sourceforge.net/DTD/sodipodi-0.dtd"
   xmlns:inkscape="http://www.inkscape.org/namespaces/inkscape"
   width="64px"
   height="64px"
   viewBox="0 0 64 64"
   version="1.1"
   id="svg13"
   sodipodi:docname="org.gnome.clocks.svg"
   inkscape:version="1.0.2 (e86c870879, 2021-01-15)">
  <metadata
     id="metadata19">
    <rdf:RDF>
      <cc:Work
         rdf:about="">
        <dc:format>image/svg+xml</dc:format>
        <dc:type
           rdf:resource="http://purl.org/dc/dcmitype/StillImage" />
      </cc:Work>
    </rdf:RDF>
  </metadata>
  <defs
     id="defs17" />
  <sodipodi:namedview
     pagecolor="#ffffff"
     bordercolor="#666666"
     borderopacity="1"
     objecttolerance="10"
     gridtolerance="10"
     guidetolerance="10"
     inkscape:pageopacity="0"
     inkscape:pageshadow="2"
     inkscape:window-width="2560"
     inkscape:window-height="1403"
     id="namedview15"
     showgrid="false"
     inkscape:zoom="15.75"
     inkscape:cx="32"
     inkscape:cy="32"
     inkscape:window-x="0"
     inkscape:window-y="0"
     inkscape:window-maximized="1"
     inkscape:current-layer="surface1" />
  <g
     id="surface1">
    <path
       style="fill:#d0ebee;fill-opacity:1;fill-rule:nonzero;stroke:none"
       d="m 31.75,3.144531 c 16.074219,0 29.105469,13.03125 29.105469,29.105469 0,16.074219 -13.03125,29.105469 -29.105469,29.105469 C 15.675781,61.355469 2.644531,48.324219 2.644531,32.25 2.644531,16.175781 15.675781,3.144531 31.75,3.144531 Z m 0,0"
       id="path2" />
    <path
       style="fill:#0c0e11;fill-opacity:1;fill-rule:nonzero;stroke:none"
       d="m 31.75,5.792969 c 14.613281,0 26.457031,11.84375 26.457031,26.457031 0,14.613281 -11.84375,26.457031 -26.457031,26.457031 C 17.136719,58.707031 5.292969,46.863281 5.292969,32.25 5.292969,17.636719 17.136719,5.792969 31.75,5.792969 Z m 0,0"
       id="path4" />
    <path
       style="fill:#257b76;fill-opacity:1;fill-rule:nonzero;stroke:none"
       d="m 15.847656,14.8125 c -0.207031,0 -0.417968,0.08203 -0.574218,0.238281 l -0.722657,0.722657 c -0.316406,0.316406 -0.316406,0.832031 0,1.148437 l 15.21875,15.21875 c 0.05469,-1.011719 0.859375,-1.816406 1.871094,-1.871094 L 16.421875,15.050781 C 16.261719,14.894531 16.054688,14.8125 15.847656,14.8125 Z m 17.882813,17.546875 c -0.05469,1.011719 -0.859375,1.816406 -1.871094,1.871094 l 0.25,0.25 c 0.320313,0.320312 0.832031,0.320312 1.152344,0 l 0.71875,-0.71875 c 0.320312,-0.320313 0.320312,-0.832031 0,-1.152344 z m 0,0"
       id="path6" />
    <path
       style="fill:#257b76;fill-opacity:0.99607843;fill-rule:nonzero;stroke:none"
       d="m 25.90625,55.335938 -0.640625,-0.171876 c -0.175781,-0.04687 -0.28125,-0.226562 -0.230469,-0.402343 l 5.304688,-19.808594 c 0.04687,-0.175781 0.230468,-0.28125 0.40625,-0.234375 l 0.636718,0.171875 c 0.179688,0.04687 0.28125,0.230469 0.234376,0.40625 L 26.3125,55.101562 c -0.04687,0.175782 -0.230469,0.28125 -0.40625,0.234376 z m 0,0"
       id="path8" />
    <path
       style="fill:#733447;fill-opacity:1;fill-rule:nonzero;stroke:none"
       d="m 46.527344,19.351562 c -0.167969,0 -0.332032,0.04688 -0.476563,0.152344 l -12.667969,9.125 c -0.5,-0.222656 -1.050781,-0.347656 -1.632812,-0.347656 -2.199219,0 -3.96875,1.769531 -3.96875,3.96875 0,2.199219 1.769531,3.96875 3.96875,3.96875 2.199219,0 3.96875,-1.769531 3.96875,-3.96875 0,-0.136719 -0.0078,-0.269531 -0.01953,-0.398438 l 12.671875,-9.128906 c 0.355468,-0.253906 0.433594,-0.746094 0.179687,-1.101562 l -1.398437,-1.9375 C 47,19.472656 46.765625,19.359375 46.527344,19.351562 Z M 31.75,30.265625 c 1.097656,0 1.984375,0.886719 1.984375,1.984375 0,1.097656 -0.886719,1.984375 -1.984375,1.984375 -1.097656,0 -1.984375,-0.886719 -1.984375,-1.984375 0,-1.097656 0.886719,-1.984375 1.984375,-1.984375 z m 0,0"
       id="path10" />
  </g>
</svg>
