<?xml version="1.0" encoding="UTF-8" standalone="no"?>
<svg
   xmlns:dc="http://purl.org/dc/elements/1.1/"
   xmlns:cc="http://creativecommons.org/ns#"
   xmlns:rdf="http://www.w3.org/1999/02/22-rdf-syntax-ns#"
   xmlns:svg="http://www.w3.org/2000/svg"
   xmlns="http://www.w3.org/2000/svg"
   xmlns:sodipodi="http://sodipodi.sourceforge.net/DTD/sodipodi-0.dtd"
   xmlns:inkscape="http://www.inkscape.org/namespaces/inkscape"
   width="64px"
   height="64px"
   viewBox="0 0 64 64"
   version="1.1"
   id="svg13"
   sodipodi:docname="com.github.themix_project.Oomox.svg"
   inkscape:version="1.0.2 (e86c870879, 2021-01-15)">
  <metadata
     id="metadata19">
    <rdf:RDF>
      <cc:Work
         rdf:about="">
        <dc:format>image/svg+xml</dc:format>
        <dc:type
           rdf:resource="http://purl.org/dc/dcmitype/StillImage" />
      </cc:Work>
    </rdf:RDF>
  </metadata>
  <defs
     id="defs17" />
  <sodipodi:namedview
     pagecolor="#ffffff"
     bordercolor="#666666"
     borderopacity="1"
     objecttolerance="10"
     gridtolerance="10"
     guidetolerance="10"
     inkscape:pageopacity="0"
     inkscape:pageshadow="2"
     inkscape:window-width="2560"
     inkscape:window-height="1403"
     id="namedview15"
     showgrid="false"
     inkscape:zoom="15.75"
     inkscape:cx="32"
     inkscape:cy="32"
     inkscape:window-x="0"
     inkscape:window-y="0"
     inkscape:window-maximized="1"
     inkscape:current-layer="surface1" />
  <g
     id="surface1">
    <path
       style="fill:#52677c;fill-opacity:1;fill-rule:nonzero;stroke:none"
       d="m 5.292969,7.113281 h 52.914062 c 1.460938,0 2.648438,1.1875 2.648438,2.648438 v 44.976562 c 0,1.460938 -1.1875,2.648438 -2.648438,2.648438 H 5.292969 c -1.460938,0 -2.648438,-1.1875 -2.648438,-2.648438 V 9.761719 c 0,-1.460938 1.1875,-2.648438 2.648438,-2.648438 z m 0,0"
       id="path2" />
    <path
       style="fill:#257b76;fill-opacity:1;fill-rule:nonzero;stroke:none"
       d="M 3.511719,7.796875 C 2.980469,8.28125 2.644531,8.980469 2.644531,9.761719 v 44.976562 c 0,1.46875 1.179688,2.648438 2.648438,2.648438 h 52.914062 c 0.671875,0 1.28125,-0.25 1.746094,-0.65625 l -43.875,-39.03125 z m 0,0"
       id="path4" />
    <path
       style="fill:#733447;fill-opacity:1;fill-rule:nonzero;stroke:none"
       d="M 60.023438,7.832031 3.476562,56.667969 c 0.472657,0.445312 1.109376,0.71875 1.816407,0.71875 h 52.914062 c 1.46875,0 2.648438,-1.179688 2.648438,-2.648438 V 9.761719 C 60.855469,9 60.535156,8.3125 60.023438,7.832031 Z m 0,0"
       id="path6" />
    <path
       style="fill:#0c0e11;fill-opacity:1;fill-rule:nonzero;stroke:none"
       d="m 26.652344,18.402344 c -0.546875,0 -1.097656,0.05469 -1.640625,0.167968 l -0.652344,2.441407 -1.261719,0.726562 -2.441406,-0.652343 c -0.742188,0.828124 -1.289062,1.792968 -1.632812,2.820312 l 1.789062,1.789062 v 1.457032 L 19.027344,28.9375 c 0.171875,0.507812 0.394531,1.007812 0.671875,1.492188 0.28125,0.484374 0.601562,0.929687 0.960937,1.328124 l 2.4375,-0.652343 1.261719,0.730469 0.652344,2.441406 c 1.0625,0.21875 2.171875,0.226562 3.257812,-0.0039 l 0.65625,-2.4375 1.261719,-0.730469 2.4375,0.65625 c 0.742188,-0.828125 1.292969,-1.792969 1.632812,-2.820313 L 32.46875,27.152344 v -1.457032 l 1.785156,-1.785156 C 34.085938,23.402344 33.859375,22.898438 33.582031,22.417969 33.300781,21.933594 32.980469,21.488281 32.625,21.085938 l -2.4375,0.652343 -1.261719,-0.726562 -0.65625,-2.441407 c -0.53125,-0.109374 -1.074219,-0.167968 -1.617187,-0.167968 z m -0.01172,4.644531 c 1.871094,0 3.375,1.507813 3.375,3.375 0,1.871094 -1.503906,3.378906 -3.375,3.378906 -1.871094,0 -3.375,-1.507812 -3.375,-3.378906 0,-1.867187 1.503906,-3.375 3.375,-3.375 z m 0,0"
       id="path8" />
    <path
       style="fill:#0c0e11;fill-opacity:1;fill-rule:nonzero;stroke:none"
       d="m 37.699219,30.773438 c -0.546875,0 -1.09375,0.05469 -1.640625,0.167968 l -0.652344,2.441406 -1.261719,0.726563 -2.441406,-0.652344 C 30.964844,34.285156 30.414062,35.25 30.074219,36.277344 l 1.789062,1.789062 v 1.457032 l -1.785156,1.785156 c 0.167969,0.507812 0.390625,1.007812 0.671875,1.492187 0.277344,0.484375 0.601562,0.929688 0.957031,1.332031 l 2.4375,-0.65625 1.261719,0.730469 0.65625,2.441407 c 1.058594,0.21875 2.167969,0.226562 3.257812,-0.0039 l 0.652344,-2.4375 1.261719,-0.730469 2.441406,0.65625 c 0.738281,-0.828124 1.289063,-1.792968 1.628907,-2.820312 l -1.785157,-1.789062 v -1.457032 l 1.78125,-1.785156 c -0.167969,-0.507812 -0.390625,-1.007812 -0.671875,-1.492188 -0.277344,-0.484374 -0.601562,-0.929687 -0.957031,-1.332031 l -2.4375,0.652344 -1.261719,-0.726563 -0.652344,-2.441406 c -0.53125,-0.109375 -1.074218,-0.167968 -1.621093,-0.167968 z m -0.0078,4.644531 c 1.867188,0 3.375,1.507812 3.375,3.375 0,1.871093 -1.507812,3.378906 -3.375,3.378906 -1.871094,0 -3.378906,-1.507813 -3.378906,-3.378906 0,-1.867188 1.507812,-3.375 3.378906,-3.375 z m 0,0"
       id="path10" />
  </g>
</svg>
