<?xml version="1.0" encoding="UTF-8" standalone="no"?>
<svg
   xmlns:dc="http://purl.org/dc/elements/1.1/"
   xmlns:cc="http://creativecommons.org/ns#"
   xmlns:rdf="http://www.w3.org/1999/02/22-rdf-syntax-ns#"
   xmlns:svg="http://www.w3.org/2000/svg"
   xmlns="http://www.w3.org/2000/svg"
   xmlns:sodipodi="http://sodipodi.sourceforge.net/DTD/sodipodi-0.dtd"
   xmlns:inkscape="http://www.inkscape.org/namespaces/inkscape"
   width="64px"
   height="64px"
   viewBox="0 0 64 64"
   version="1.1"
   id="svg9"
   sodipodi:docname="preferences-security.svg"
   inkscape:version="1.0.2 (e86c870879, 2021-01-15)">
  <metadata
     id="metadata15">
    <rdf:RDF>
      <cc:Work
         rdf:about="">
        <dc:format>image/svg+xml</dc:format>
        <dc:type
           rdf:resource="http://purl.org/dc/dcmitype/StillImage" />
      </cc:Work>
    </rdf:RDF>
  </metadata>
  <defs
     id="defs13" />
  <sodipodi:namedview
     pagecolor="#ffffff"
     bordercolor="#666666"
     borderopacity="1"
     objecttolerance="10"
     gridtolerance="10"
     guidetolerance="10"
     inkscape:pageopacity="0"
     inkscape:pageshadow="2"
     inkscape:window-width="2560"
     inkscape:window-height="1403"
     id="namedview11"
     showgrid="false"
     inkscape:zoom="15.75"
     inkscape:cx="32"
     inkscape:cy="32"
     inkscape:window-x="0"
     inkscape:window-y="0"
     inkscape:window-maximized="1"
     inkscape:current-layer="surface1" />
  <g
     id="surface1">
    <path
       style="fill:#0c0e11;fill-opacity:1;fill-rule:nonzero;stroke:none"
       d="m 31.75,6.121094 c -6.9375,4.890625 -17.726562,4.964844 -26.441406,4.960937 0.25,10.652344 3.449218,22.464844 8.265625,31.632813 2.507812,4.773437 5.457031,8.828125 8.582031,11.640625 3.125,2.808593 6.375,4.351562 9.59375,4.351562 3.21875,0 6.46875,-1.542969 9.59375,-4.351562 3.125,-2.8125 6.074219,-6.867188 8.582031,-11.640625 4.816407,-9.167969 8.015625,-20.980469 8.265625,-31.632813 C 49.476562,11.085938 38.6875,11.011719 31.75,6.121094 Z m 0,0"
       id="path2" />
    <path
       style="fill:#733447;fill-opacity:1;fill-rule:nonzero;stroke:none"
       d="M 31.714844,3.144531 C 31.425781,3.152344 31.148438,3.253906 30.921875,3.433594 24.914062,8.242188 13.230469,8.4375 3.96875,8.4375 c -0.730469,0 -1.324219,0.59375 -1.324219,1.324219 0,11.503906 3.351563,24.21875 8.585938,34.183593 2.617187,4.980469 5.707031,9.277344 9.15625,12.378907 3.445312,3.101562 7.304687,5.03125 11.363281,5.03125 4.058594,0 7.917969,-1.929688 11.363281,-5.03125 3.449219,-3.101563 6.539063,-7.398438 9.15625,-12.378907 5.234375,-9.964843 8.585938,-22.679687 8.585938,-34.183593 0,-0.730469 -0.59375,-1.324219 -1.324219,-1.324219 -9.261719,0 -20.945312,-0.195312 -26.953125,-5.003906 C 32.332031,3.238281 32.027344,3.136719 31.714844,3.144531 Z M 31.75,6.121094 c 6.9375,4.890625 17.726562,4.964844 26.441406,4.960937 -0.25,10.652344 -3.449218,22.464844 -8.265625,31.632813 -2.507812,4.773437 -5.457031,8.828125 -8.582031,11.640625 -3.125,2.808593 -6.375,4.351562 -9.59375,4.351562 -3.21875,0 -6.46875,-1.542969 -9.59375,-4.351562 -3.125,-2.8125 -6.074219,-6.867188 -8.582031,-11.640625 C 8.757812,33.546875 5.558594,21.734375 5.308594,11.082031 14.023438,11.085938 24.8125,11.011719 31.75,6.121094 Z m 0,0"
       id="path4" />
    <path
       style="fill:#733447;fill-opacity:1;fill-rule:nonzero;stroke:none"
       d="m 31.75,19.019531 c -3.664062,0 -6.613281,2.953125 -6.613281,6.617188 v 5.289062 H 23.8125 c -0.734375,0 -1.324219,0.589844 -1.324219,1.324219 v 6.613281 c 0,0.734375 0.589844,1.324219 1.324219,1.324219 h 15.875 c 0.734375,0 1.324219,-0.589844 1.324219,-1.324219 V 32.25 c 0,-0.734375 -0.589844,-1.324219 -1.324219,-1.324219 h -1.324219 v -5.289062 c 0,-3.664063 -2.949219,-6.617188 -6.613281,-6.617188 z m 0,2.648438 c 2.199219,0 3.96875,1.769531 3.96875,3.96875 v 5.289062 h -7.9375 v -5.289062 c 0,-2.199219 1.769531,-3.96875 3.96875,-3.96875 z m 0,0"
       id="path6" />
  </g>
</svg>
