<?xml version="1.0" encoding="UTF-8" standalone="no"?>
<svg
   xmlns:dc="http://purl.org/dc/elements/1.1/"
   xmlns:cc="http://creativecommons.org/ns#"
   xmlns:rdf="http://www.w3.org/1999/02/22-rdf-syntax-ns#"
   xmlns:svg="http://www.w3.org/2000/svg"
   xmlns="http://www.w3.org/2000/svg"
   xmlns:sodipodi="http://sodipodi.sourceforge.net/DTD/sodipodi-0.dtd"
   xmlns:inkscape="http://www.inkscape.org/namespaces/inkscape"
   width="64px"
   height="64px"
   viewBox="0 0 64 64"
   version="1.1"
   id="svg17"
   sodipodi:docname="qv4l2.svg"
   inkscape:version="1.0.2 (e86c870879, 2021-01-15)">
  <metadata
     id="metadata23">
    <rdf:RDF>
      <cc:Work
         rdf:about="">
        <dc:format>image/svg+xml</dc:format>
        <dc:type
           rdf:resource="http://purl.org/dc/dcmitype/StillImage" />
      </cc:Work>
    </rdf:RDF>
  </metadata>
  <defs
     id="defs21" />
  <sodipodi:namedview
     pagecolor="#ffffff"
     bordercolor="#666666"
     borderopacity="1"
     objecttolerance="10"
     gridtolerance="10"
     guidetolerance="10"
     inkscape:pageopacity="0"
     inkscape:pageshadow="2"
     inkscape:window-width="2560"
     inkscape:window-height="1403"
     id="namedview19"
     showgrid="false"
     inkscape:zoom="15.75"
     inkscape:cx="32"
     inkscape:cy="32"
     inkscape:window-x="0"
     inkscape:window-y="0"
     inkscape:window-maximized="1"
     inkscape:current-layer="surface1" />
  <g
     id="surface1">
    <path
       style="fill:#733447;fill-opacity:1;fill-rule:nonzero;stroke:none"
       d="m 5.292969,5.792969 h 52.914062 c 1.460938,0 2.648438,1.183593 2.648438,2.644531 v 47.625 c 0,1.460938 -1.1875,2.644531 -2.648438,2.644531 H 5.292969 c -1.460938,0 -2.648438,-1.183593 -2.648438,-2.644531 V 8.4375 c 0,-1.460938 1.1875,-2.644531 2.648438,-2.644531 z m 0,0"
       id="path2" />
    <path
       style="fill:#0c0e11;fill-opacity:1;fill-rule:nonzero;stroke:none"
       d="m 15.875,11.082031 h 31.75 c 4.382812,0 7.9375,3.554688 7.9375,7.9375 V 40.1875 c 0,4.382812 -3.554688,7.9375 -7.9375,7.9375 h -31.75 c -4.382812,0 -7.9375,-3.554688 -7.9375,-7.9375 V 19.019531 c 0,-4.382812 3.554688,-7.9375 7.9375,-7.9375 z m 0,0"
       id="path4" />
    <path
       style="fill:#d0ebee;fill-opacity:1;fill-rule:nonzero;stroke:none"
       d="m 52.917969,50.769531 c 1.460937,0 2.644531,1.1875 2.644531,2.648438 0,1.460937 -1.183594,2.644531 -2.644531,2.644531 -1.460938,0 -2.648438,-1.183594 -2.648438,-2.644531 0,-1.460938 1.1875,-2.648438 2.648438,-2.648438 z m 0,0"
       id="path6" />
    <path
       style="fill:#d0ebee;fill-opacity:1;fill-rule:nonzero;stroke:none"
       d="m 10.582031,50.769531 c 1.460938,0 2.648438,1.1875 2.648438,2.648438 0,1.460937 -1.1875,2.644531 -2.648438,2.644531 -1.460937,0 -2.644531,-1.183594 -2.644531,-2.644531 0,-1.460938 1.183594,-2.648438 2.644531,-2.648438 z m 0,0"
       id="path8" />
    <path
       style="fill:#0c0e11;fill-opacity:1;fill-rule:nonzero;stroke:none"
       d="m 52.917969,52.09375 c 0.730469,0 1.320312,0.59375 1.320312,1.324219 0,0.730469 -0.589843,1.320312 -1.320312,1.320312 -0.730469,0 -1.324219,-0.589843 -1.324219,-1.320312 0,-0.730469 0.59375,-1.324219 1.324219,-1.324219 z m 0,0"
       id="path10" />
    <path
       style="fill:#0c0e11;fill-opacity:1;fill-rule:nonzero;stroke:none"
       d="m 10.582031,52.09375 c 0.730469,0 1.324219,0.59375 1.324219,1.324219 0,0.730469 -0.59375,1.320312 -1.324219,1.320312 -0.730469,0 -1.320312,-0.589843 -1.320312,-1.320312 0,-0.730469 0.589843,-1.324219 1.320312,-1.324219 z m 0,0"
       id="path12" />
    <path
       style="fill:#d0ebee;fill-opacity:1;fill-rule:nonzero;stroke:none"
       d="m 14.730469,14.390625 c 0.632812,0.367187 0.257812,2.199219 -0.839844,4.097656 -1.097656,1.898438 -2.496094,3.140625 -3.128906,2.777344 -0.632813,-0.367187 -0.257813,-2.203125 0.835937,-4.097656 1.097656,-1.898438 2.5,-3.144531 3.132813,-2.777344 z m 0,0"
       id="path14" />
  </g>
</svg>
