<?xml version="1.0" encoding="UTF-8" standalone="no"?>
<svg
   xmlns:dc="http://purl.org/dc/elements/1.1/"
   xmlns:cc="http://creativecommons.org/ns#"
   xmlns:rdf="http://www.w3.org/1999/02/22-rdf-syntax-ns#"
   xmlns:svg="http://www.w3.org/2000/svg"
   xmlns="http://www.w3.org/2000/svg"
   xmlns:sodipodi="http://sodipodi.sourceforge.net/DTD/sodipodi-0.dtd"
   xmlns:inkscape="http://www.inkscape.org/namespaces/inkscape"
   width="64px"
   height="64px"
   viewBox="0 0 64 64"
   version="1.1"
   id="svg39"
   sodipodi:docname="org.gnome.Photos.svg"
   inkscape:version="1.0.2 (e86c870879, 2021-01-15)">
  <metadata
     id="metadata45">
    <rdf:RDF>
      <cc:Work
         rdf:about="">
        <dc:format>image/svg+xml</dc:format>
        <dc:type
           rdf:resource="http://purl.org/dc/dcmitype/StillImage" />
      </cc:Work>
    </rdf:RDF>
  </metadata>
  <defs
     id="defs43" />
  <sodipodi:namedview
     pagecolor="#ffffff"
     bordercolor="#666666"
     borderopacity="1"
     objecttolerance="10"
     gridtolerance="10"
     guidetolerance="10"
     inkscape:pageopacity="0"
     inkscape:pageshadow="2"
     inkscape:window-width="2560"
     inkscape:window-height="1403"
     id="namedview41"
     showgrid="false"
     inkscape:zoom="15.75"
     inkscape:cx="32"
     inkscape:cy="32"
     inkscape:window-x="0"
     inkscape:window-y="0"
     inkscape:window-maximized="1"
     inkscape:current-layer="surface1" />
  <g
     id="surface1">
    <path
       style="fill:#d0ebee;fill-opacity:1;fill-rule:nonzero;stroke:none"
       d="m 5.292969,3.144531 h 52.914062 c 1.460938,0 2.648438,1.1875 2.648438,2.648438 V 48.125 c 0,1.460938 -1.1875,2.644531 -2.648438,2.644531 H 5.292969 c -1.460938,0 -2.648438,-1.183593 -2.648438,-2.644531 V 5.792969 c 0,-1.460938 1.1875,-2.648438 2.648438,-2.648438 z m 0,0"
       id="path6" />
    <path
       style="fill:#733447;fill-opacity:1;fill-rule:nonzero;stroke:none"
       d="m 6.613281,5.792969 h 50.273438 c 0.730469,0 1.320312,0.589843 1.320312,1.320312 v 39.6875 c 0,0.730469 -0.589843,1.324219 -1.320312,1.324219 H 6.613281 c -0.730469,0 -1.320312,-0.59375 -1.320312,-1.324219 v -39.6875 c 0,-0.730469 0.589843,-1.320312 1.320312,-1.320312 z m 0,0"
       id="path8" />
    <path
       style="fill:#0c0e11;fill-opacity:1;fill-rule:nonzero;stroke:none"
       d="m 18.386719,20.792969 c -0.40625,0.0039 -0.800781,0.167969 -1.085938,0.460937 L 5.292969,33.261719 v 13.539062 c 0,0.734375 0.589843,1.324219 1.320312,1.324219 h 50.273438 c 0.730469,0 1.320312,-0.589844 1.320312,-1.324219 V 35.007812 l -10.1875,-9.054687 c -0.652343,-0.582031 -1.652343,-0.523437 -2.230469,0.136719 L 35.792969,37.519531 19.523438,21.253906 C 19.226562,20.953125 18.8125,20.785156 18.386719,20.792969 Z m 0,0"
       id="path10" />
    <path
       style="fill:#d0ebee;fill-opacity:1;fill-rule:nonzero;stroke:none"
       d="m 18.386719,20.792969 c -0.40625,0.0039 -0.800781,0.167969 -1.085938,0.460937 l -6.195312,6.1875 1.753906,2.066406 c 0.789063,0.792969 3.09375,0.839844 5.550781,-0.792968 1.574219,-1.5625 3.460938,-1.421875 4.757813,0 1.847656,1.710937 3.519531,1.585937 5.402343,1.585937 L 19.523438,21.253906 C 19.226562,20.953125 18.8125,20.785156 18.386719,20.792969 Z m 28.5625,4.761719 c -0.429688,0 -0.855469,0.1875 -1.160157,0.535156 l -3.683593,4.210937 h 0.109375 c 0.277344,0.601563 0.394531,2.777344 1.582031,1.585938 2.035156,-2.03125 2.382813,-1.191407 3.175781,-0.398438 1.191406,1.191407 1.984375,2.378907 3.171875,1.988281 1.988281,-0.796874 2.335938,-2.757812 1.449219,-4.347656 l -3.574219,-3.175781 c -0.304687,-0.273437 -0.6875,-0.40625 -1.070312,-0.398437 z m 0,0"
       id="path12" />
    <path
       style="fill:#d0ebee;fill-opacity:1;fill-rule:nonzero;stroke:none"
       d="m 46.964844,9.761719 c -1.609375,0 -3.023438,0.8125 -3.851563,2.050781 0.285157,-0.04297 0.578125,-0.06641 0.875,-0.06641 3.113281,0 5.621094,2.507812 5.621094,5.621094 0,0.296874 -0.02344,0.589843 -0.06641,0.875 C 50.78125,17.410156 51.59375,16 51.59375,14.390625 c 0,-2.566406 -2.066406,-4.628906 -4.628906,-4.628906 z m 0,0"
       id="path14" />
    <path
       style="fill:#2e3436;fill-opacity:0.99607843;fill-rule:nonzero;stroke:none"
       d="m 34.394531,38.203125 h 3.308594 c 0.367187,0 0.660156,0.296875 0.660156,0.660156 v 0.664063 c 0,0.363281 -0.292969,0.660156 -0.660156,0.660156 h -3.308594 c -0.363281,0 -0.660156,-0.296875 -0.660156,-0.660156 v -0.664063 c 0,-0.363281 0.296875,-0.660156 0.660156,-0.660156 z m 0,0"
       id="path16" />
    <path
       style="fill:#2e3436;fill-opacity:1;fill-rule:nonzero;stroke:none"
       d="m 42.996094,36.21875 c -0.234375,0 -0.449219,0.121094 -0.570313,0.320312 l -1.984375,3.308594 c -0.261718,0.441406 0.05469,1 0.570313,1 H 51.59375 c 0.515625,0 0.832031,-0.558594 0.566406,-1 L 50.175781,36.539062 C 50.058594,36.339844 49.84375,36.21875 49.609375,36.21875 Z m 0,0"
       id="path18" />
    <path
       style="fill:#2e3436;fill-opacity:0.99607843;fill-rule:nonzero;stroke:none"
       d="m 33,38.863281 h 26.605469 c 0.6875,0 1.25,0.5625 1.25,1.25 v 19.992188 c 0,0.6875 -0.5625,1.25 -1.25,1.25 H 33 c -0.691406,0 -1.25,-0.5625 -1.25,-1.25 V 40.113281 c 0,-0.6875 0.558594,-1.25 1.25,-1.25 z m 0,0"
       id="path20" />
    <path
       style="fill:#257b76;fill-opacity:1;fill-rule:nonzero;stroke:none"
       d="M 31.75,44.15625 H 60.855469 V 56.0625 H 31.75 Z m 0,0"
       id="path22" />
    <path
       style="fill:#7885ca;fill-opacity:0.995763;fill-rule:nonzero;stroke:none"
       d="m 46.300781,42.171875 c 4.386719,0 7.9375,3.554687 7.9375,7.9375 0,4.382813 -3.550781,7.9375 -7.9375,7.9375 -4.382812,0 -7.9375,-3.554687 -7.9375,-7.9375 0,-4.382813 3.554688,-7.9375 7.9375,-7.9375 z m 0,0"
       id="path24" />
    <path
       style="fill:#d0ebee;fill-opacity:0.99607843;fill-rule:nonzero;stroke:none"
       d="m 46.300781,42.171875 c 4.386719,0 7.9375,3.554687 7.9375,7.9375 0,4.382813 -3.550781,7.9375 -7.9375,7.9375 -4.382812,0 -7.9375,-3.554687 -7.9375,-7.9375 0,-4.382813 3.554688,-7.9375 7.9375,-7.9375 z m 0,0"
       id="path26" />
    <path
       style="fill:#2e3436;fill-opacity:0.99607843;fill-rule:nonzero;stroke:none"
       d="m 46.300781,43.496094 c 3.65625,0 6.617188,2.960937 6.617188,6.613281 0,3.652344 -2.960938,6.613281 -6.617188,6.613281 -3.652343,0 -6.613281,-2.960937 -6.613281,-6.613281 0,-3.652344 2.960938,-6.613281 6.613281,-6.613281 z m 0,0"
       id="path28" />
    <path
       style="fill:#0c0e11;fill-opacity:0.99607843;fill-rule:nonzero;stroke:none"
       d="m 46.300781,46.140625 c 2.191407,0 3.96875,1.777344 3.96875,3.96875 0,2.191406 -1.777343,3.96875 -3.96875,3.96875 -2.191406,0 -3.96875,-1.777344 -3.96875,-3.96875 0,-2.191406 1.777344,-3.96875 3.96875,-3.96875 z m 0,0"
       id="path30" />
    <path
       style="fill:#0c0e11;fill-opacity:0.99607843;fill-rule:nonzero;stroke:none"
       d="m 54.570312,40.1875 h 3.308594 c 0.179688,0 0.328125,0.148438 0.328125,0.332031 v 0.660157 c 0,0.183593 -0.148437,0.332031 -0.328125,0.332031 h -3.308594 c -0.183593,0 -0.332031,-0.148438 -0.332031,-0.332031 v -0.660157 c 0,-0.183593 0.148438,-0.332031 0.332031,-0.332031 z m 0,0"
       id="path32" />
    <path
       style="fill:#d0ebee;fill-opacity:0.99607843;fill-rule:nonzero;stroke:none"
       d="m 44.648438,47.464844 c 0.546874,0 0.992187,0.441406 0.992187,0.992187 0,0.546875 -0.445313,0.992188 -0.992187,0.992188 -0.546876,0 -0.992188,-0.445313 -0.992188,-0.992188 0,-0.550781 0.445312,-0.992187 0.992188,-0.992187 z m 0,0"
       id="path34" />
    <path
       style="fill:#bdbdbd;fill-opacity:0.995763;fill-rule:nonzero;stroke:none"
       d="m 54.734375,40.519531 h 0.167969 c 0.08984,0 0.164062,0.07422 0.164062,0.164063 v 0.332031 c 0,0.08984 -0.07422,0.164063 -0.164062,0.164063 h -0.167969 c -0.08984,0 -0.164063,-0.07422 -0.164063,-0.164063 v -0.332031 c 0,-0.08984 0.07422,-0.164063 0.164063,-0.164063 z m 0,0"
       id="path36" />
  </g>
</svg>
