<?xml version="1.0" encoding="UTF-8" standalone="no"?>
<svg
   xmlns:dc="http://purl.org/dc/elements/1.1/"
   xmlns:cc="http://creativecommons.org/ns#"
   xmlns:rdf="http://www.w3.org/1999/02/22-rdf-syntax-ns#"
   xmlns:svg="http://www.w3.org/2000/svg"
   xmlns="http://www.w3.org/2000/svg"
   xmlns:sodipodi="http://sodipodi.sourceforge.net/DTD/sodipodi-0.dtd"
   xmlns:inkscape="http://www.inkscape.org/namespaces/inkscape"
   width="64px"
   height="64px"
   viewBox="0 0 64 64"
   version="1.1"
   id="svg13"
   sodipodi:docname="shutter.svg"
   inkscape:version="1.0.2 (e86c870879, 2021-01-15)">
  <metadata
     id="metadata19">
    <rdf:RDF>
      <cc:Work
         rdf:about="">
        <dc:format>image/svg+xml</dc:format>
        <dc:type
           rdf:resource="http://purl.org/dc/dcmitype/StillImage" />
      </cc:Work>
    </rdf:RDF>
  </metadata>
  <defs
     id="defs17" />
  <sodipodi:namedview
     pagecolor="#ffffff"
     bordercolor="#666666"
     borderopacity="1"
     objecttolerance="10"
     gridtolerance="10"
     guidetolerance="10"
     inkscape:pageopacity="0"
     inkscape:pageshadow="2"
     inkscape:window-width="2560"
     inkscape:window-height="1403"
     id="namedview15"
     showgrid="false"
     inkscape:zoom="15.75"
     inkscape:cx="32"
     inkscape:cy="32"
     inkscape:window-x="0"
     inkscape:window-y="0"
     inkscape:window-maximized="1"
     inkscape:current-layer="surface1" />
  <g
     id="surface1">
    <path
       style="fill:#0c0e11;fill-opacity:1;fill-rule:nonzero;stroke:none"
       d="m 31.75,7.113281 c 13.882812,0 25.136719,11.253907 25.136719,25.136719 0,13.882812 -11.253907,25.136719 -25.136719,25.136719 C 17.867188,57.386719 6.613281,46.132812 6.613281,32.25 6.613281,18.367188 17.867188,7.113281 31.75,7.113281 Z m 0,0"
       id="path2" />
    <path
       style="fill:#257b76;fill-opacity:1;fill-rule:nonzero;stroke:none"
       d="m 31.730469,3.144531 c -0.21875,0 -0.445313,0.00781 -0.664063,0.011719 -3.257812,0.082031 -6.5,0.746094 -9.589844,1.917969 L 41.554688,25.148438 V 4.859375 C 38.402344,3.726562 35.078125,3.148438 31.730469,3.144531 Z M 43.753906,5.746094 V 34.136719 L 58.09375,19.792969 C 55.132812,13.554688 50.046875,8.578125 43.753906,5.746094 Z M 19.285156,5.984375 C 13.042969,8.949219 8.054688,14.039062 5.222656,20.34375 H 33.644531 Z M 59.023438,21.972656 38.949219,42.046875 h 20.285156 c 2.316406,-6.503906 2.242187,-13.621094 -0.210937,-20.074219 z m -54.65625,0.566406 c -2.3125,6.507813 -2.238282,13.625 0.214843,20.078126 L 24.65625,22.539062 Z m 25.59375,21.703126 14.34375,14.347656 c 6.238281,-2.960938 11.214843,-8.046875 14.042968,-14.347656 z m 0,0"
       id="path4" />
    <path
       style="fill:#2e3436;fill-opacity:1;fill-rule:nonzero;stroke:none"
       d="M 19.855469,30.453125 5.507812,44.796875 c 2.964844,6.234375 8.050782,11.214844 14.347657,14.042969 z m 2.195312,8.988281 v 20.289063 c 6.503907,2.3125 13.621094,2.238281 20.074219,-0.214844 z m 0,0"
       id="path6" />
    <path
       style="fill:#2e3436;fill-opacity:1;fill-rule:nonzero;stroke:none"
       d="m 31.75,24.3125 c 4.382812,0 7.9375,3.554688 7.9375,7.9375 0,4.382812 -3.554688,7.9375 -7.9375,7.9375 -4.382812,0 -7.9375,-3.554688 -7.9375,-7.9375 0,-4.382812 3.554688,-7.9375 7.9375,-7.9375 z m 0,0"
       id="path8" />
    <path
       style="fill:#d0ebee;fill-opacity:1;fill-rule:nonzero;stroke:none"
       d="m 29.492188,26.683594 c 0.515624,0.515625 0.09766,1.773437 -0.9375,2.808594 -1.03125,1.03125 -2.289063,1.449218 -2.804688,0.933593 -0.515625,-0.515625 -0.09766,-1.773437 0.933594,-2.804687 1.035156,-1.035156 2.292968,-1.453125 2.808594,-0.9375 z m 0,0"
       id="path10" />
  </g>
</svg>
