<?xml version="1.0" encoding="UTF-8" standalone="no"?>
<svg
   xmlns:dc="http://purl.org/dc/elements/1.1/"
   xmlns:cc="http://creativecommons.org/ns#"
   xmlns:rdf="http://www.w3.org/1999/02/22-rdf-syntax-ns#"
   xmlns:svg="http://www.w3.org/2000/svg"
   xmlns="http://www.w3.org/2000/svg"
   xmlns:sodipodi="http://sodipodi.sourceforge.net/DTD/sodipodi-0.dtd"
   xmlns:inkscape="http://www.inkscape.org/namespaces/inkscape"
   enable-background="new 0 0 3000 3000"
   viewBox="-270 -270 3000 3000"
   version="1.1"
   id="svg14"
   sodipodi:docname="slack.svg"
   inkscape:version="0.92.5 (2060ec1f9f, 2020-04-08)">
  <metadata
     id="metadata20">
    <rdf:RDF>
      <cc:Work
         rdf:about="">
        <dc:format>image/svg+xml</dc:format>
        <dc:type
           rdf:resource="http://purl.org/dc/dcmitype/StillImage" />
      </cc:Work>
    </rdf:RDF>
  </metadata>
  <defs
     id="defs18" />
  <sodipodi:namedview
     pagecolor="#ffffff"
     bordercolor="#666666"
     borderopacity="1"
     objecttolerance="10"
     gridtolerance="10"
     guidetolerance="10"
     inkscape:pageopacity="0"
     inkscape:pageshadow="2"
     inkscape:window-width="1143"
     inkscape:window-height="764"
     id="namedview16"
     showgrid="false"
     inkscape:zoom="0.078666667"
     inkscape:cx="1500"
     inkscape:cy="1500"
     inkscape:window-x="1112"
     inkscape:window-y="428"
     inkscape:window-maximized="0"
     inkscape:current-layer="svg14" />
  <g
     clip-rule="evenodd"
     fill-rule="evenodd"
     id="g12">
    <circle
       cx="1223"
       cy="1223"
       r="1450"
       fill="white"
       id="circle2" />
    <path
       d="m897.4 0c-135.3.1-244.8 109.9-244.7 245.2-.1 135.3 109.5 245.1 244.8 245.2h244.8v-245.1c.1-135.3-109.5-245.1-244.9-245.3.1 0 .1 0 0 0m0 654h-652.6c-135.3.1-244.9 109.9-244.8 245.2-.2 135.3 109.4 245.1 244.7 245.3h652.7c135.3-.1 244.9-109.9 244.8-245.2.1-135.4-109.5-245.2-244.8-245.3z"
       fill="#00a190"
       id="path4"
       style="fill:#52677c;fill-opacity:1" />
    <path
       d="m2447.6 899.2c.1-135.3-109.5-245.1-244.8-245.2-135.3.1-244.9 109.9-244.8 245.2v245.3h244.8c135.3-.1 244.9-109.9 244.8-245.3zm-652.7 0v-654c.1-135.2-109.4-245-244.7-245.2-135.3.1-244.9 109.9-244.8 245.2v654c-.2 135.3 109.4 245.1 244.7 245.3 135.3-.1 244.9-109.9 244.8-245.3z"
       fill="#00a190"
       id="path6"
       style="fill:#349f97;fill-opacity:1" />
    <path
       d="m1550.1 2452.5c135.3-.1 244.9-109.9 244.8-245.2.1-135.3-109.5-245.1-244.8-245.2h-244.8v245.2c-.1 135.2 109.5 245 244.8 245.2zm0-654.1h652.7c135.3-.1 244.9-109.9 244.8-245.2.2-135.3-109.4-245.1-244.7-245.3h-652.7c-135.3.1-244.9 109.9-244.8 245.2-.1 135.4 109.4 245.2 244.7 245.3z"
       fill="#00a190"
       id="path8"
       style="fill:#ef8573;fill-opacity:1" />
    <path
       d="m0 1553.2c-.1 135.3 109.5 245.1 244.8 245.2 135.3-.1 244.9-109.9 244.8-245.2v-245.2h-244.8c-135.3.1-244.9 109.9-244.8 245.2zm652.7 0v654c-.2 135.3 109.4 245.1 244.7 245.3 135.3-.1 244.9-109.9 244.8-245.2v-653.9c.2-135.3-109.4-245.1-244.7-245.3-135.4 0-244.9 109.8-244.8 245.1 0 0 0 .1 0 0"
       fill="#00a190"
       id="path10"
       style="fill:#93394a;fill-opacity:1" />
  </g>
</svg>
