<?xml version="1.0" encoding="UTF-8" standalone="no"?>
<svg
   xmlns:dc="http://purl.org/dc/elements/1.1/"
   xmlns:cc="http://creativecommons.org/ns#"
   xmlns:rdf="http://www.w3.org/1999/02/22-rdf-syntax-ns#"
   xmlns:svg="http://www.w3.org/2000/svg"
   xmlns="http://www.w3.org/2000/svg"
   xmlns:sodipodi="http://sodipodi.sourceforge.net/DTD/sodipodi-0.dtd"
   xmlns:inkscape="http://www.inkscape.org/namespaces/inkscape"
   width="64px"
   height="64px"
   viewBox="0 0 64 64"
   version="1.1"
   id="svg19"
   sodipodi:docname="slack.svg"
   inkscape:version="1.0.2 (e86c870879, 2021-01-15)">
  <metadata
     id="metadata25">
    <rdf:RDF>
      <cc:Work
         rdf:about="">
        <dc:format>image/svg+xml</dc:format>
        <dc:type
           rdf:resource="http://purl.org/dc/dcmitype/StillImage" />
      </cc:Work>
    </rdf:RDF>
  </metadata>
  <defs
     id="defs23" />
  <sodipodi:namedview
     pagecolor="#ffffff"
     bordercolor="#666666"
     borderopacity="1"
     objecttolerance="10"
     gridtolerance="10"
     guidetolerance="10"
     inkscape:pageopacity="0"
     inkscape:pageshadow="2"
     inkscape:window-width="2560"
     inkscape:window-height="1403"
     id="namedview21"
     showgrid="false"
     inkscape:zoom="15.75"
     inkscape:cx="32"
     inkscape:cy="32"
     inkscape:window-x="0"
     inkscape:window-y="0"
     inkscape:window-maximized="1"
     inkscape:current-layer="surface1" />
  <g
     id="surface1">
    <path
       style="fill:#257b76;fill-opacity:1;fill-rule:nonzero;stroke:none;stroke-width:1"
       d="m 39.027344,3.96875 c 3.285156,0 5.953125,2.6640618 5.953125,5.9531247 V 24.472655 c 0,3.289063 -2.667969,5.953126 -5.953125,5.953126 -3.289063,0 -5.953125,-2.664063 -5.953125,-5.953126 V 9.9218747 c 0,-3.2890629 2.664062,-5.9531247 5.953125,-5.9531247 z m 0,0"
       id="path2" />
    <path
       style="fill:#257b76;fill-opacity:1;fill-rule:nonzero;stroke:none"
       d="m 53.578125,18.519531 c -3.296875,0 -5.953125,2.65625 -5.953125,5.953125 v 5.953125 h 5.953125 c 3.296875,0 5.953125,-2.652343 5.953125,-5.953125 0,-3.296875 -2.65625,-5.953125 -5.953125,-5.953125 z m 0,0"
       id="path4" />
    <path
       style="fill:#733447;fill-opacity:1;fill-rule:nonzero;stroke:none"
       d="m 24.472656,59.53125 c -3.285156,0 -5.953125,-2.664062 -5.953125,-5.953125 V 39.027344 c 0,-3.289063 2.667969,-5.953125 5.953125,-5.953125 3.289063,0 5.953125,2.664062 5.953125,5.953125 v 14.550781 c 0,3.289063 -2.664062,5.953125 -5.953125,5.953125 z m 0,0"
       id="path6" />
    <path
       style="fill:#733447;fill-opacity:1;fill-rule:nonzero;stroke:none"
       d="m 9.921875,44.980469 c 3.296875,0 5.953125,-2.65625 5.953125,-5.953125 V 33.074219 H 9.921875 c -3.296875,0 -5.953125,2.652343 -5.953125,5.953125 0,3.296875 2.65625,5.953125 5.953125,5.953125 z m 0,0"
       id="path8" />
    <path
       style="fill:#52677c;fill-opacity:1;fill-rule:nonzero;stroke:none"
       d="m 58.207031,39.027344 c 0,3.285156 -2.664062,5.953125 -5.953125,5.953125 H 39.027344 c -3.289063,0 -5.953125,-2.667969 -5.953125,-5.953125 0,-3.289063 2.664062,-5.953125 5.953125,-5.953125 h 13.226562 c 3.289063,0 5.953125,2.664062 5.953125,5.953125 z m 0,0"
       id="path10" />
    <path
       style="fill:#52677c;fill-opacity:1;fill-rule:nonzero;stroke:none"
       d="m 44.980469,53.578125 c 0,-3.296875 -2.65625,-5.953125 -5.953125,-5.953125 h -5.953125 v 5.953125 c 0,3.296875 2.652343,5.953125 5.953125,5.953125 3.296875,0 5.953125,-2.65625 5.953125,-5.953125 z m 0,0"
       id="path12" />
    <path
       style="fill:#52677c;fill-opacity:1;fill-rule:nonzero;stroke:none"
       d="m 3.96875,24.472656 c 0,-3.285156 2.664062,-5.953125 5.953125,-5.953125 h 14.550781 c 3.289063,0 5.953125,2.667969 5.953125,5.953125 0,3.289063 -2.664062,5.953125 -5.953125,5.953125 H 9.921875 c -3.289063,0 -5.953125,-2.664062 -5.953125,-5.953125 z m 0,0"
       id="path14" />
    <path
       style="fill:#52677c;fill-opacity:1;fill-rule:nonzero;stroke:none"
       d="m 18.519531,9.921875 c 0,3.296875 2.65625,5.953125 5.953125,5.953125 h 5.953125 V 9.921875 c 0,-3.296875 -2.652343,-5.953125 -5.953125,-5.953125 -3.296875,0 -5.953125,2.65625 -5.953125,5.953125 z m 0,0"
       id="path16" />
  </g>
</svg>
