<?xml version="1.0" encoding="UTF-8" standalone="no"?>
<svg
   xmlns:dc="http://purl.org/dc/elements/1.1/"
   xmlns:cc="http://creativecommons.org/ns#"
   xmlns:rdf="http://www.w3.org/1999/02/22-rdf-syntax-ns#"
   xmlns:svg="http://www.w3.org/2000/svg"
   xmlns="http://www.w3.org/2000/svg"
   xmlns:sodipodi="http://sodipodi.sourceforge.net/DTD/sodipodi-0.dtd"
   xmlns:inkscape="http://www.inkscape.org/namespaces/inkscape"
   width="64px"
   height="64px"
   viewBox="0 0 64 64"
   version="1.1"
   id="svg45"
   sodipodi:docname="standard-notes.svg"
   inkscape:version="1.0.2 (e86c870879, 2021-01-15)">
  <metadata
     id="metadata51">
    <rdf:RDF>
      <cc:Work
         rdf:about="">
        <dc:format>image/svg+xml</dc:format>
        <dc:type
           rdf:resource="http://purl.org/dc/dcmitype/StillImage" />
      </cc:Work>
    </rdf:RDF>
  </metadata>
  <defs
     id="defs49" />
  <sodipodi:namedview
     pagecolor="#ffffff"
     bordercolor="#666666"
     borderopacity="1"
     objecttolerance="10"
     gridtolerance="10"
     guidetolerance="10"
     inkscape:pageopacity="0"
     inkscape:pageshadow="2"
     inkscape:window-width="2560"
     inkscape:window-height="1375"
     id="namedview47"
     showgrid="false"
     inkscape:zoom="15.75"
     inkscape:cx="32"
     inkscape:cy="32"
     inkscape:window-x="0"
     inkscape:window-y="0"
     inkscape:window-maximized="1"
     inkscape:current-layer="surface1" />
  <g
     id="surface1">
    <path
       style="fill:#bdbdbd;fill-opacity:1;fill-rule:nonzero;stroke:none"
       d="m 44.316406,58.707031 8.601563,-8.597656 h -6.617188 c -1.097656,0 -1.984375,0.886719 -1.984375,1.984375 z m 0,0"
       id="path2" />
    <path
       style="fill:#733447;fill-opacity:1;fill-rule:nonzero;stroke:none"
       d="m 10.582031,3.144531 h 42.335938 c 1.460937,0 2.644531,1.1875 2.644531,2.648438 v 52.914062 c 0,1.460938 -1.183594,2.648438 -2.644531,2.648438 H 10.582031 c -1.460937,0 -2.644531,-1.1875 -2.644531,-2.648438 V 5.792969 c 0,-1.460938 1.183594,-2.648438 2.644531,-2.648438 z m 0,0"
       id="path4" />
    <path
       style="fill:#d0ebee;fill-opacity:1;fill-rule:nonzero;stroke:none"
       d="m 11.90625,5.792969 c -0.734375,0 -1.324219,0.589843 -1.324219,1.320312 v 50.273438 c 0,0.730469 0.589844,1.320312 1.324219,1.320312 H 42.332031 L 52.917969,48.125 V 7.113281 c 0,-0.730469 -0.589844,-1.320312 -1.324219,-1.320312 z m 0,0"
       id="path6" />
    <path
       style="fill:#733447;fill-opacity:1;fill-rule:nonzero;stroke:none"
       d="M 9.921875,3.144531 C 8.824219,3.144531 7.9375,4.03125 7.9375,5.128906 v 8.601563 h 47.625 V 5.128906 c 0,-1.097656 -0.886719,-1.984375 -1.984375,-1.984375 z m 0,0"
       id="path8" />
    <path
       style="fill:#0c0e11;fill-opacity:1;fill-rule:nonzero;stroke:none"
       d="m 15.875,19.019531 h 1.324219 c 0.730469,0 1.320312,0.535157 1.320312,1.191407 v 0.265624 c 0,0.65625 -0.589843,1.191407 -1.320312,1.191407 H 15.875 c -0.730469,0 -1.324219,-0.535157 -1.324219,-1.191407 v -0.265624 c 0,-0.65625 0.59375,-1.191407 1.324219,-1.191407 z m 0,0"
       id="path10" />
    <path
       style="fill:#0c0e11;fill-opacity:0.23529412;fill-rule:nonzero;stroke:none"
       d="m 15.875,7.113281 c 0.730469,0 1.324219,0.59375 1.324219,1.324219 0,0.730469 -0.59375,1.324219 -1.324219,1.324219 -0.730469,0 -1.324219,-0.59375 -1.324219,-1.324219 0,-0.730469 0.59375,-1.324219 1.324219,-1.324219 z m 0,0"
       id="path12" />
    <path
       style="fill:#0c0e11;fill-opacity:1;fill-rule:nonzero;stroke:none"
       d="M 22.488281,26.957031 H 47.625 c 0.730469,0 1.324219,0.59375 1.324219,1.324219 0,0.730469 -0.59375,1.324219 -1.324219,1.324219 H 22.488281 c -0.730469,0 -1.320312,-0.59375 -1.320312,-1.324219 0,-0.730469 0.589843,-1.324219 1.320312,-1.324219 z m 0,0"
       id="path14" />
    <path
       style="fill:#d0ebee;fill-opacity:1;fill-rule:nonzero;stroke:none"
       d="m 15.875,5.792969 c -1.464844,0 -2.644531,1.179687 -2.644531,2.644531 0,1.464844 1.179687,2.644531 2.644531,2.644531 1.464844,0 2.644531,-1.179687 2.644531,-2.644531 0,-1.464844 -1.179687,-2.644531 -2.644531,-2.644531 z m 0,1.320312 c 0.734375,0 1.324219,0.589844 1.324219,1.324219 0,0.734375 -0.589844,1.324219 -1.324219,1.324219 -0.734375,0 -1.324219,-0.589844 -1.324219,-1.324219 0,-0.734375 0.589844,-1.324219 1.324219,-1.324219 z m 0,0"
       id="path16" />
    <path
       style="fill:#0c0e11;fill-opacity:1;fill-rule:nonzero;stroke:none"
       d="m 15.875,34.894531 h 1.324219 c 0.730469,0 1.320312,0.59375 1.320312,1.324219 0,0.730469 -0.589843,1.324219 -1.320312,1.324219 H 15.875 c -0.730469,0 -1.324219,-0.59375 -1.324219,-1.324219 0,-0.730469 0.59375,-1.324219 1.324219,-1.324219 z m 0,0"
       id="path18" />
    <path
       style="fill:#0c0e11;fill-opacity:0.23529412;fill-rule:nonzero;stroke:none"
       d="m 31.75,7.113281 c 0.730469,0 1.324219,0.59375 1.324219,1.324219 0,0.730469 -0.59375,1.324219 -1.324219,1.324219 -0.730469,0 -1.324219,-0.59375 -1.324219,-1.324219 0,-0.730469 0.59375,-1.324219 1.324219,-1.324219 z m 0,0"
       id="path20" />
    <path
       style="fill:#0c0e11;fill-opacity:1;fill-rule:nonzero;stroke:none"
       d="m 15.875,42.832031 h 1.324219 c 0.730469,0 1.320312,0.59375 1.320312,1.324219 0,0.730469 -0.589843,1.324219 -1.320312,1.324219 H 15.875 c -0.730469,0 -1.324219,-0.59375 -1.324219,-1.324219 0,-0.730469 0.59375,-1.324219 1.324219,-1.324219 z m 0,0"
       id="path22" />
    <path
       style="fill:#d0ebee;fill-opacity:1;fill-rule:nonzero;stroke:none"
       d="m 31.75,5.792969 c -1.464844,0 -2.644531,1.179687 -2.644531,2.644531 0,1.464844 1.179687,2.644531 2.644531,2.644531 1.464844,0 2.644531,-1.179687 2.644531,-2.644531 0,-1.464844 -1.179687,-2.644531 -2.644531,-2.644531 z m 0,1.320312 c 0.734375,0 1.324219,0.589844 1.324219,1.324219 0,0.734375 -0.589844,1.324219 -1.324219,1.324219 -0.734375,0 -1.324219,-0.589844 -1.324219,-1.324219 0,-0.734375 0.589844,-1.324219 1.324219,-1.324219 z m 0,0"
       id="path24" />
    <path
       style="fill:#0c0e11;fill-opacity:1;fill-rule:nonzero;stroke:none"
       d="m 22.488281,19.019531 h 11.90625 c 0.730469,0 1.324219,0.59375 1.324219,1.324219 0,0.730469 -0.59375,1.324219 -1.324219,1.324219 h -11.90625 c -0.730469,0 -1.320312,-0.59375 -1.320312,-1.324219 0,-0.730469 0.589843,-1.324219 1.320312,-1.324219 z m 0,0"
       id="path26" />
    <path
       style="fill:#0c0e11;fill-opacity:0.23529412;fill-rule:nonzero;stroke:none"
       d="m 47.625,7.113281 c 0.730469,0 1.324219,0.59375 1.324219,1.324219 0,0.730469 -0.59375,1.324219 -1.324219,1.324219 -0.730469,0 -1.324219,-0.59375 -1.324219,-1.324219 0,-0.730469 0.59375,-1.324219 1.324219,-1.324219 z m 0,0"
       id="path28" />
    <path
       style="fill:#0c0e11;fill-opacity:1;fill-rule:nonzero;stroke:none"
       d="M 22.488281,34.894531 H 43.65625 c 0.730469,0 1.324219,0.550781 1.324219,1.230469 v 0.1875 c 0,0.679688 -0.59375,1.230469 -1.324219,1.230469 H 22.488281 c -0.730469,0 -1.320312,-0.550781 -1.320312,-1.230469 V 36.125 c 0,-0.679688 0.589843,-1.230469 1.320312,-1.230469 z m 0,0"
       id="path30" />
    <path
       style="fill:#d0ebee;fill-opacity:1;fill-rule:nonzero;stroke:none"
       d="m 47.625,5.792969 c -1.464844,0 -2.644531,1.179687 -2.644531,2.644531 0,1.464844 1.179687,2.644531 2.644531,2.644531 1.464844,0 2.644531,-1.179687 2.644531,-2.644531 0,-1.464844 -1.179687,-2.644531 -2.644531,-2.644531 z m 0,1.320312 c 0.734375,0 1.324219,0.589844 1.324219,1.324219 0,0.734375 -0.589844,1.324219 -1.324219,1.324219 -0.734375,0 -1.324219,-0.589844 -1.324219,-1.324219 0,-0.734375 0.589844,-1.324219 1.324219,-1.324219 z m 0,0"
       id="path32" />
    <path
       style="fill:#0c0e11;fill-opacity:1;fill-rule:nonzero;stroke:none"
       d="m 15.875,26.957031 h 1.324219 c 0.730469,0 1.320312,0.59375 1.320312,1.324219 0,0.730469 -0.589843,1.324219 -1.320312,1.324219 H 15.875 c -0.730469,0 -1.324219,-0.59375 -1.324219,-1.324219 0,-0.730469 0.59375,-1.324219 1.324219,-1.324219 z m 0,0"
       id="path34" />
    <path
       style="fill:#0c0e11;fill-opacity:1;fill-rule:nonzero;stroke:none"
       d="m 22.488281,42.832031 h 15.875 c 0.730469,0 1.324219,0.59375 1.324219,1.324219 0,0.730469 -0.59375,1.324219 -1.324219,1.324219 h -15.875 c -0.730469,0 -1.320312,-0.59375 -1.320312,-1.324219 0,-0.730469 0.589843,-1.324219 1.320312,-1.324219 z m 0,0"
       id="path36" />
    <path
       style="fill:#0c0e11;fill-opacity:1;fill-rule:nonzero;stroke:none"
       d="M 41.011719,19.019531 H 47.625 c 0.730469,0 1.324219,0.59375 1.324219,1.324219 0,0.730469 -0.59375,1.324219 -1.324219,1.324219 h -6.613281 c -0.730469,0 -1.324219,-0.59375 -1.324219,-1.324219 0,-0.730469 0.59375,-1.324219 1.324219,-1.324219 z m 0,0"
       id="path38" />
    <path
       style="fill:#52677c;fill-opacity:1;fill-rule:nonzero;stroke:none"
       d="M 52.917969,48.125 42.332031,58.707031 h 9.261719 c 0.734375,0 1.324219,-0.589843 1.324219,-1.320312 z m 0,0"
       id="path40" />
    <path
       style="fill:#d0ebee;fill-opacity:1;fill-rule:nonzero;stroke:none"
       d="M 42.332031,58.707031 52.917969,48.125 H 43.65625 c -0.734375,0 -1.324219,0.589844 -1.324219,1.324219 z m 0,0"
       id="path42" />
  </g>
</svg>
