<?xml version="1.0" encoding="UTF-8" standalone="no"?>
<svg
   xmlns:dc="http://purl.org/dc/elements/1.1/"
   xmlns:cc="http://creativecommons.org/ns#"
   xmlns:rdf="http://www.w3.org/1999/02/22-rdf-syntax-ns#"
   xmlns:svg="http://www.w3.org/2000/svg"
   xmlns="http://www.w3.org/2000/svg"
   xmlns:sodipodi="http://sodipodi.sourceforge.net/DTD/sodipodi-0.dtd"
   xmlns:inkscape="http://www.inkscape.org/namespaces/inkscape"
   width="64px"
   height="64px"
   viewBox="0 0 64 64"
   version="1.1"
   id="svg35413"
   sodipodi:docname="steam.svg"
   inkscape:version="1.0.2 (e86c870879, 2021-01-15)">
  <metadata
     id="metadata35419">
    <rdf:RDF>
      <cc:Work
         rdf:about="">
        <dc:format>image/svg+xml</dc:format>
        <dc:type
           rdf:resource="http://purl.org/dc/dcmitype/StillImage" />
      </cc:Work>
    </rdf:RDF>
  </metadata>
  <defs
     id="defs35417" />
  <sodipodi:namedview
     pagecolor="#ffffff"
     bordercolor="#666666"
     borderopacity="1"
     objecttolerance="10"
     gridtolerance="10"
     guidetolerance="10"
     inkscape:pageopacity="0"
     inkscape:pageshadow="2"
     inkscape:window-width="2560"
     inkscape:window-height="1403"
     id="namedview35415"
     showgrid="false"
     inkscape:zoom="14.75"
     inkscape:cx="35.043231"
     inkscape:cy="28.949377"
     inkscape:window-x="0"
     inkscape:window-y="0"
     inkscape:window-maximized="1"
     inkscape:current-layer="surface1"
     inkscape:document-rotation="0" />
  <g
     id="surface1">
    <path
       style="fill:#0c0e11;fill-opacity:1;fill-rule:nonzero;stroke:none"
       d="m 31.75,3.144531 c 16.074219,0 29.105469,13.03125 29.105469,29.105469 0,16.074219 -13.03125,29.105469 -29.105469,29.105469 C 15.675781,61.355469 2.644531,48.324219 2.644531,32.25 2.644531,16.175781 15.675781,3.144531 31.75,3.144531 Z m 0,0"
       id="path35408" />
    <path
       style="fill:#d0ebee;fill-opacity:1;fill-rule:nonzero;stroke:none"
       d="m 40.480469,15.082031 c -5.585938,0 -10.113281,4.527344 -10.113281,10.113281 v 0.0039 l -6.683594,9.164062 c -0.296875,-0.03906 -0.597656,-0.0625 -0.898438,-0.06641 -1.871094,0.0039 -3.675781,0.699219 -5.066406,1.953125 L 2.671875,31 c -0.015625,0.414062 -0.027344,0.832031 -0.027344,1.25 0,1.730469 0.152344,3.425781 0.4375,5.070312 l 12.121094,4.457032 c -0.0039,0.03516 -0.0039,0.07031 -0.0039,0.105468 0,4.191407 3.394531,7.585938 7.585937,7.585938 4.1875,0 7.582032,-3.394531 7.582032,-7.585938 0,-0.125 -0.0078,-0.25 -0.01563,-0.371093 l 8.554688,-6.332031 c 0.523438,0.08594 1.046875,0.128906 1.574219,0.128906 5.585937,0 10.113281,-4.527344 10.113281,-10.113282 0,-5.585937 -4.527344,-10.113281 -10.113281,-10.113281 z m 0,3.035157 c 3.910156,0 7.082031,3.167968 7.082031,7.078124 0,3.910157 -3.171875,7.082032 -7.082031,7.082032 -3.910157,0 -7.078125,-3.171875 -7.078125,-7.082032 0,-3.910156 3.167968,-7.078124 7.078125,-7.078124 z m 0,2.023437 c -2.792969,0 -5.054688,2.261719 -5.054688,5.054687 0,2.792969 2.261719,5.058594 5.054688,5.058594 2.792969,0 5.058593,-2.265625 5.058593,-5.058594 0,-2.792968 -2.265624,-5.054687 -5.058593,-5.054687 z M 22.785156,37.332031 c 2.511719,0 4.550782,2.039063 4.550782,4.550781 0,2.515626 -2.039063,4.550782 -4.550782,4.550782 -2.058594,0 -3.859375,-1.378906 -4.394531,-3.363282 l 2.753906,1.117188 c 1.558594,0.632812 3.320313,-0.113281 3.953125,-1.671875 0.632813,-1.558594 -0.113281,-3.320313 -1.671875,-3.953125 l -2.277343,-0.921875 c 0.519531,-0.203125 1.074218,-0.308594 1.636718,-0.308594 z m 0,0"
       id="path35410" />
  </g>
</svg>
