<?xml version="1.0" encoding="UTF-8" standalone="no"?>
<svg
   xmlns:dc="http://purl.org/dc/elements/1.1/"
   xmlns:cc="http://creativecommons.org/ns#"
   xmlns:rdf="http://www.w3.org/1999/02/22-rdf-syntax-ns#"
   xmlns:svg="http://www.w3.org/2000/svg"
   xmlns="http://www.w3.org/2000/svg"
   xmlns:sodipodi="http://sodipodi.sourceforge.net/DTD/sodipodi-0.dtd"
   xmlns:inkscape="http://www.inkscape.org/namespaces/inkscape"
   width="64px"
   height="64px"
   viewBox="0 0 64 64"
   version="1.1"
   id="svg9"
   sodipodi:docname="sublime-text.svg"
   inkscape:version="1.0.2 (e86c870879, 2021-01-15)">
  <metadata
     id="metadata15">
    <rdf:RDF>
      <cc:Work
         rdf:about="">
        <dc:format>image/svg+xml</dc:format>
        <dc:type
           rdf:resource="http://purl.org/dc/dcmitype/StillImage" />
      </cc:Work>
    </rdf:RDF>
  </metadata>
  <defs
     id="defs13" />
  <sodipodi:namedview
     pagecolor="#ffffff"
     bordercolor="#666666"
     borderopacity="1"
     objecttolerance="10"
     gridtolerance="10"
     guidetolerance="10"
     inkscape:pageopacity="0"
     inkscape:pageshadow="2"
     inkscape:window-width="2560"
     inkscape:window-height="1403"
     id="namedview11"
     showgrid="false"
     inkscape:zoom="15.75"
     inkscape:cx="32"
     inkscape:cy="34.539683"
     inkscape:window-x="0"
     inkscape:window-y="0"
     inkscape:window-maximized="1"
     inkscape:current-layer="surface1" />
  <g
     id="surface1">
    <path
       style="stroke:none;fill-rule:nonzero;fill:#733447;fill-opacity:1"
       d="M 54.238281 3.144531 C 54.113281 3.148438 53.992188 3.171875 53.871094 3.210938 L 8.890625 17.761719 C 8.347656 17.9375 7.976562 18.445312 7.976562 19.019531 L 7.976562 30.925781 C 7.976562 31.824219 8.851562 32.464844 9.707031 32.1875 L 54.6875 17.632812 C 55.230469 17.457031 55.601562 16.949219 55.601562 16.375 L 55.601562 4.46875 C 55.601562 3.722656 54.984375 3.125 54.238281 3.144531 Z M 54.238281 3.144531 "
       id="path2" />
    <path
       style="stroke:none;fill-rule:nonzero;fill:#733447;fill-opacity:1"
       d="M 54.238281 32.25 C 54.113281 32.253906 53.992188 32.273438 53.871094 32.3125 L 8.890625 46.867188 C 8.347656 47.042969 7.976562 47.550781 7.976562 48.125 L 7.976562 60.03125 C 7.976562 60.929688 8.851562 61.566406 9.707031 61.289062 L 54.6875 46.738281 C 55.230469 46.5625 55.601562 46.054688 55.601562 45.480469 L 55.601562 33.574219 C 55.601562 32.828125 54.984375 32.226562 54.238281 32.25 Z M 54.238281 32.25 "
       id="path4" />
    <path
       style="stroke:none;fill-rule:nonzero;fill:#93394a;fill-opacity:1"
       d="M 9.316406 17.695312 C 8.578125 17.6875 7.976562 18.28125 7.976562 19.019531 L 7.976562 30.925781 C 7.976562 31.5 8.347656 32.007812 8.890625 32.1875 L 53.871094 46.738281 C 54.726562 47.015625 55.601562 46.378906 55.601562 45.480469 L 55.601562 33.574219 C 55.601562 33 55.230469 32.492188 54.6875 32.3125 L 9.707031 17.761719 C 9.582031 17.71875 9.449219 17.699219 9.316406 17.695312 Z M 9.316406 17.695312 "
       id="path6" />
  </g>
</svg>
