<?xml version="1.0" encoding="UTF-8" standalone="no"?>
<svg
   xmlns:dc="http://purl.org/dc/elements/1.1/"
   xmlns:cc="http://creativecommons.org/ns#"
   xmlns:rdf="http://www.w3.org/1999/02/22-rdf-syntax-ns#"
   xmlns:svg="http://www.w3.org/2000/svg"
   xmlns="http://www.w3.org/2000/svg"
   xmlns:sodipodi="http://sodipodi.sourceforge.net/DTD/sodipodi-0.dtd"
   xmlns:inkscape="http://www.inkscape.org/namespaces/inkscape"
   width="64px"
   height="64px"
   viewBox="0 0 64 64"
   version="1.1"
   id="svg9"
   sodipodi:docname="sublime-merge.svg"
   inkscape:version="1.0.2 (e86c870879, 2021-01-15)">
  <metadata
     id="metadata15">
    <rdf:RDF>
      <cc:Work
         rdf:about="">
        <dc:format>image/svg+xml</dc:format>
        <dc:type
           rdf:resource="http://purl.org/dc/dcmitype/StillImage" />
      </cc:Work>
    </rdf:RDF>
  </metadata>
  <defs
     id="defs13" />
  <sodipodi:namedview
     pagecolor="#ffffff"
     bordercolor="#666666"
     borderopacity="1"
     objecttolerance="10"
     gridtolerance="10"
     guidetolerance="10"
     inkscape:pageopacity="0"
     inkscape:pageshadow="2"
     inkscape:window-width="2560"
     inkscape:window-height="1403"
     id="namedview11"
     showgrid="false"
     inkscape:zoom="15.75"
     inkscape:cx="32"
     inkscape:cy="32"
     inkscape:window-x="0"
     inkscape:window-y="0"
     inkscape:window-maximized="1"
     inkscape:current-layer="surface1" />
  <g
     id="surface1">
    <path
       style="fill:#349f97;fill-opacity:1;fill-rule:nonzero;stroke:none;stroke-width:1.27811"
       d="m 17.427198,11.952957 c -0.464843,0.0095 -0.90357,0.17658 -1.227392,0.477243 L 6.1926464,21.56941 c -0.6894285,0.634734 -0.6894285,1.656035 0,2.290768 L 23.705175,39.857376 c 0.689429,0.634734 1.812362,0.634734 2.50179,0 l 10.00716,-9.143982 c 0.689429,-0.629963 0.689429,-1.651263 0,-2.285996 L 18.701595,12.4302 c -0.339491,-0.310208 -0.79911,-0.482017 -1.274397,-0.477243 z m 0,0"
       id="path4" />
    <path
       style="fill:#257b76;fill-opacity:1;fill-rule:nonzero;stroke:none;stroke-width:1.27811"
       d="m 24.650528,24.165614 c -0.470065,0 -0.919238,0.171809 -1.248283,0.477244 L 5.889715,40.640056 c -0.6894285,0.634733 -0.6894285,1.656034 0,2.290768 l 10.00716,9.13921 c 0.689428,0.634734 1.812361,0.634734 2.50179,0 L 31.247106,40.33462 h 18.17062 c 0.470064,0 0.919238,-0.171809 1.248282,-0.477244 l 7.077089,-6.461875 c 0.689429,-0.634733 0.689429,-1.656035 0,-2.290768 L 50.666008,24.642858 C 50.336964,24.337423 49.88779,24.165614 49.417726,24.165614 Z m 0,0"
       id="path6" />
  </g>
</svg>
