<?xml version="1.0" encoding="UTF-8" standalone="no"?>
<svg
   xmlns:dc="http://purl.org/dc/elements/1.1/"
   xmlns:cc="http://creativecommons.org/ns#"
   xmlns:rdf="http://www.w3.org/1999/02/22-rdf-syntax-ns#"
   xmlns:svg="http://www.w3.org/2000/svg"
   xmlns="http://www.w3.org/2000/svg"
   xmlns:sodipodi="http://sodipodi.sourceforge.net/DTD/sodipodi-0.dtd"
   xmlns:inkscape="http://www.inkscape.org/namespaces/inkscape"
   width="64px"
   height="64px"
   viewBox="0 0 64 64"
   version="1.1"
   id="svg11"
   sodipodi:docname="system-software-install.svg"
   inkscape:version="1.0.2 (e86c870879, 2021-01-15)">
  <metadata
     id="metadata17">
    <rdf:RDF>
      <cc:Work
         rdf:about="">
        <dc:format>image/svg+xml</dc:format>
        <dc:type
           rdf:resource="http://purl.org/dc/dcmitype/StillImage" />
      </cc:Work>
    </rdf:RDF>
  </metadata>
  <defs
     id="defs15" />
  <sodipodi:namedview
     pagecolor="#ffffff"
     bordercolor="#666666"
     borderopacity="1"
     objecttolerance="10"
     gridtolerance="10"
     guidetolerance="10"
     inkscape:pageopacity="0"
     inkscape:pageshadow="2"
     inkscape:window-width="2560"
     inkscape:window-height="1403"
     id="namedview13"
     showgrid="false"
     inkscape:zoom="15.75"
     inkscape:cx="32"
     inkscape:cy="32"
     inkscape:window-x="0"
     inkscape:window-y="0"
     inkscape:window-maximized="1"
     inkscape:current-layer="surface1-3" />
  <g
     id="surface1-3"
     transform="translate(0,-0.824219)">
    <path
       style="fill:#733447;fill-opacity:1;fill-rule:evenodd;stroke:none"
       d="m 31.75,2.648438 c -2.5625,6.277343 -4.105469,10.386718 -6.960938,16.480468 1.75,1.851563 3.652344,4.023438 6.960938,6.007813 -3.308594,-1.324219 -5.882812,-2.648438 -7.792969,-4.257813 -3.648437,7.617188 -9.707031,19.125 -21.3125,39.976563 9.125,-5.265625 15.8125,-9.175781 22.402344,-10.414063 -1.433594,-5.304687 0.75,-14.722656 6.703125,-14.722656 5.953125,0 8.082031,9.03125 6.84375,14.765625 6.519531,1.277344 13.261719,5.175781 22.261719,10.371094 -1.777344,-3.265625 -3.683594,-6.871094 -5.195313,-9.675781 -2.382812,-1.847657 -4.726562,-4.214844 -9.359375,-6.199219 3.308594,0.660156 5.402344,1.296875 7.347657,2.464843 C 38.269531,18.820312 37.023438,15.019531 31.75,2.644531 Z m 0,0"
       id="path2-6" />
  </g>
</svg>
