<?xml version="1.0" encoding="UTF-8" standalone="no"?>
<svg
   xmlns:dc="http://purl.org/dc/elements/1.1/"
   xmlns:cc="http://creativecommons.org/ns#"
   xmlns:rdf="http://www.w3.org/1999/02/22-rdf-syntax-ns#"
   xmlns:svg="http://www.w3.org/2000/svg"
   xmlns="http://www.w3.org/2000/svg"
   xmlns:sodipodi="http://sodipodi.sourceforge.net/DTD/sodipodi-0.dtd"
   xmlns:inkscape="http://www.inkscape.org/namespaces/inkscape"
   width="64px"
   height="64px"
   viewBox="0 0 64 64"
   version="1.1"
   id="svg13"
   sodipodi:docname="teams-for-linux.svg"
   inkscape:version="1.0.2 (e86c870879, 2021-01-15)">
  <metadata
     id="metadata19">
    <rdf:RDF>
      <cc:Work
         rdf:about="">
        <dc:format>image/svg+xml</dc:format>
        <dc:type
           rdf:resource="http://purl.org/dc/dcmitype/StillImage" />
      </cc:Work>
    </rdf:RDF>
  </metadata>
  <defs
     id="defs17" />
  <sodipodi:namedview
     pagecolor="#ffffff"
     bordercolor="#666666"
     borderopacity="1"
     objecttolerance="10"
     gridtolerance="10"
     guidetolerance="10"
     inkscape:pageopacity="0"
     inkscape:pageshadow="2"
     inkscape:window-width="2560"
     inkscape:window-height="1403"
     id="namedview15"
     showgrid="false"
     inkscape:zoom="15.75"
     inkscape:cx="32"
     inkscape:cy="32"
     inkscape:window-x="0"
     inkscape:window-y="0"
     inkscape:window-maximized="1"
     inkscape:current-layer="surface1" />
  <g
     id="surface1">
    <path
       style="fill:#2e3436;fill-opacity:1;fill-rule:nonzero;stroke:none"
       d="m 51.59375,11.082031 c -3.664062,0 -6.613281,2.953125 -6.613281,6.617188 0,3.664062 2.949219,6.613281 6.613281,6.613281 3.664062,0 6.613281,-2.949219 6.613281,-6.613281 0,-3.664063 -2.949219,-6.617188 -6.613281,-6.617188 z m -6.613281,15.875 c -1.46875,0 -2.648438,1.179688 -2.648438,2.648438 V 44.15625 c 0,5.128906 4.132813,9.261719 9.261719,9.261719 5.128906,0 9.261719,-4.132813 9.261719,-9.261719 V 29.605469 c 0,-1.46875 -1.179688,-2.648438 -2.648438,-2.648438 z m 0,0"
       id="path2" />
    <path
       style="fill:#52677c;fill-opacity:1;fill-rule:nonzero;stroke:none"
       d="m 31.75,3.144531 c -4.765625,0 -8.597656,3.835938 -8.597656,8.601563 0,4.761718 3.832031,8.597656 8.597656,8.597656 4.765625,0 8.597656,-3.835938 8.597656,-8.597656 0,-4.765625 -3.832031,-8.601563 -8.597656,-8.601563 z M 22.488281,24.3125 c -1.464843,0 -2.644531,1.179688 -2.644531,2.644531 v 22.492188 c 0,6.59375 5.308594,11.90625 11.90625,11.90625 6.597656,0 11.90625,-5.3125 11.90625,-11.90625 V 26.957031 c 0,-1.464843 -1.179688,-2.644531 -2.644531,-2.644531 z m 0,0"
       id="path4" />
    <path
       style="fill:#2e3436;fill-opacity:1;fill-rule:nonzero;stroke:none"
       d="m 5.292969,21.667969 h 21.164062 c 1.460938,0 2.648438,1.183593 2.648438,2.644531 v 21.167969 c 0,1.460937 -1.1875,2.644531 -2.648438,2.644531 H 5.292969 c -1.460938,0 -2.648438,-1.183594 -2.648438,-2.644531 V 24.3125 c 0,-1.460938 1.1875,-2.644531 2.648438,-2.644531 z m 0,0"
       id="path6" />
    <path
       style="fill:#52677c;fill-opacity:1;fill-rule:nonzero;stroke:none"
       d="m 15.214844,29.605469 h 1.320312 c 0.367188,0 0.664063,0.292969 0.664063,0.660156 v 10.582031 c 0,0.367188 -0.296875,0.664063 -0.664063,0.664063 h -1.320312 c -0.367188,0 -0.664063,-0.296875 -0.664063,-0.664063 V 30.265625 c 0,-0.367187 0.296875,-0.660156 0.664063,-0.660156 z m 0,0"
       id="path8" />
    <path
       style="fill:#52677c;fill-opacity:1;fill-rule:nonzero;stroke:none"
       d="m 11.246094,29.605469 h 9.257812 c 0.367188,0 0.664063,0.292969 0.664063,0.660156 v 0.660156 c 0,0.367188 -0.296875,0.664063 -0.664063,0.664063 h -9.257812 c -0.367188,0 -0.664063,-0.296875 -0.664063,-0.664063 v -0.660156 c 0,-0.367187 0.296875,-0.660156 0.664063,-0.660156 z m 0,0"
       id="path10" />
  </g>
</svg>
