<?xml version="1.0" encoding="UTF-8" standalone="no"?>
<svg
   xmlns:dc="http://purl.org/dc/elements/1.1/"
   xmlns:cc="http://creativecommons.org/ns#"
   xmlns:rdf="http://www.w3.org/1999/02/22-rdf-syntax-ns#"
   xmlns:svg="http://www.w3.org/2000/svg"
   xmlns="http://www.w3.org/2000/svg"
   xmlns:sodipodi="http://sodipodi.sourceforge.net/DTD/sodipodi-0.dtd"
   xmlns:inkscape="http://www.inkscape.org/namespaces/inkscape"
   width="64px"
   height="64px"
   viewBox="0 0 64 64"
   version="1.1"
   id="svg31"
   sodipodi:docname="org.gnome.Logs.svg"
   inkscape:version="1.0.2 (e86c870879, 2021-01-15)">
  <metadata
     id="metadata37">
    <rdf:RDF>
      <cc:Work
         rdf:about="">
        <dc:format>image/svg+xml</dc:format>
        <dc:type
           rdf:resource="http://purl.org/dc/dcmitype/StillImage" />
      </cc:Work>
    </rdf:RDF>
  </metadata>
  <defs
     id="defs35" />
  <sodipodi:namedview
     pagecolor="#ffffff"
     bordercolor="#666666"
     borderopacity="1"
     objecttolerance="10"
     gridtolerance="10"
     guidetolerance="10"
     inkscape:pageopacity="0"
     inkscape:pageshadow="2"
     inkscape:window-width="2560"
     inkscape:window-height="1403"
     id="namedview33"
     showgrid="false"
     inkscape:zoom="15.75"
     inkscape:cx="32"
     inkscape:cy="32"
     inkscape:window-x="0"
     inkscape:window-y="0"
     inkscape:window-maximized="1"
     inkscape:current-layer="surface1" />
  <g
     id="surface1">
    <path
       style="fill:#2e3436;fill-opacity:1;fill-rule:nonzero;stroke:none"
       d="m 42.332031,3.144531 h -31.75 c -1.464843,0 -2.644531,1.179688 -2.644531,2.648438 v 52.914062 c 0,1.46875 1.179688,2.648438 2.644531,2.648438 h 42.335938 c 1.464843,0 2.644531,-1.179688 2.644531,-2.648438 V 16.375 Z m 0,0"
       id="path2" />
    <path
       style="fill:#0c0e11;fill-opacity:1;fill-rule:nonzero;stroke:none"
       d="M 55.5625,16.375 42.332031,3.144531 v 10.585938 c 0,1.464843 1.179688,2.644531 2.648438,2.644531 z m 0,0"
       id="path4" />
    <path
       style="fill:#733447;fill-opacity:1;fill-rule:nonzero;stroke:none"
       d="m 24.472656,17.699219 h 6.617188 c 0.363281,0 0.660156,0.292969 0.660156,0.660156 0,0.367187 -0.296875,0.660156 -0.660156,0.660156 h -6.617188 c -0.363281,0 -0.660156,-0.292969 -0.660156,-0.660156 0,-0.367187 0.296875,-0.660156 0.660156,-0.660156 z m 0,0"
       id="path6" />
    <path
       style="fill:#d0ebee;fill-opacity:1;fill-rule:nonzero;stroke:none"
       d="m 24.421875,32.355469 h 19.949219 c 0.335937,0 0.609375,0.273437 0.609375,0.609375 0,0.335937 -0.273438,0.609375 -0.609375,0.609375 H 24.421875 c -0.335937,0 -0.609375,-0.273438 -0.609375,-0.609375 0,-0.335938 0.273438,-0.609375 0.609375,-0.609375 z m 0,0"
       id="path8" />
    <path
       style="fill:#d0ebee;fill-opacity:1;fill-rule:nonzero;stroke:none"
       d="m 24.472656,42.832031 h 17.199219 c 0.367187,0 0.660156,0.296875 0.660156,0.664063 0,0.363281 -0.292969,0.660156 -0.660156,0.660156 H 24.472656 c -0.363281,0 -0.660156,-0.296875 -0.660156,-0.660156 0,-0.367188 0.296875,-0.664063 0.660156,-0.664063 z m 0,0"
       id="path10" />
    <path
       style="fill:#52677c;fill-opacity:1;fill-rule:nonzero;stroke:none"
       d="m 18.519531,28.28125 c 1.460938,0 2.648438,1.183594 2.648438,2.644531 0,1.460938 -1.1875,2.648438 -2.648438,2.648438 -1.460937,0 -2.644531,-1.1875 -2.644531,-2.648438 0,-1.460937 1.183594,-2.644531 2.644531,-2.644531 z m 0,0"
       id="path12" />
    <path
       style="fill:#52677c;fill-opacity:1;fill-rule:nonzero;stroke:none"
       d="m 18.519531,38.863281 c 1.460938,0 2.648438,1.1875 2.648438,2.648438 0,1.460937 -1.1875,2.644531 -2.648438,2.644531 -1.460937,0 -2.644531,-1.183594 -2.644531,-2.644531 0,-1.460938 1.183594,-2.648438 2.644531,-2.648438 z m 0,0"
       id="path14" />
    <path
       style="fill:#733447;fill-opacity:1;fill-rule:nonzero;stroke:none"
       d="m 18.519531,17.613281 c -0.890625,0 -1.800781,0.289063 -2.449219,0.941407 -0.125,0.121093 -0.195312,0.289062 -0.195312,0.464843 0,0.882813 0.394531,1.707031 0.855469,2.394531 0.457031,0.6875 0.925781,1.222657 1.496093,1.507813 0.183594,0.08984 0.402344,0.08984 0.589844,0 0.566406,-0.285156 1.035156,-0.820313 1.496094,-1.507813 0.457031,-0.6875 0.855469,-1.511718 0.855469,-2.394531 0,-0.175781 -0.07031,-0.34375 -0.195313,-0.464843 -0.652344,-0.652344 -1.5625,-0.941407 -2.453125,-0.941407 z m 0,0"
       id="path16" />
    <path
       style="fill:#d0ebee;fill-opacity:1;fill-rule:nonzero;stroke:none"
       d="m 24.472656,21.667969 h 13.230469 c 0.367187,0 0.660156,0.292969 0.660156,0.660156 0,0.367187 -0.292969,0.660156 -0.660156,0.660156 H 24.472656 c -0.363281,0 -0.660156,-0.292969 -0.660156,-0.660156 0,-0.367187 0.296875,-0.660156 0.660156,-0.660156 z m 0,0"
       id="path18" />
    <path
       style="fill:#52677c;fill-opacity:1;fill-rule:nonzero;stroke:none"
       d="m 24.472656,28.28125 h 6.617188 c 0.363281,0 0.660156,0.296875 0.660156,0.660156 0,0.367188 -0.296875,0.664063 -0.660156,0.664063 h -6.617188 c -0.363281,0 -0.660156,-0.296875 -0.660156,-0.664063 0,-0.363281 0.296875,-0.660156 0.660156,-0.660156 z m 0,0"
       id="path20" />
    <path
       style="fill:#52677c;fill-opacity:1;fill-rule:nonzero;stroke:none"
       d="m 24.472656,38.863281 h 6.617188 c 0.363281,0 0.660156,0.296875 0.660156,0.664063 0,0.363281 -0.296875,0.660156 -0.660156,0.660156 h -6.617188 c -0.363281,0 -0.660156,-0.296875 -0.660156,-0.660156 0,-0.367188 0.296875,-0.664063 0.660156,-0.664063 z m 0,0"
       id="path22" />
    <path
       style="fill:#d0ebee;fill-opacity:1;fill-rule:nonzero;stroke:none"
       d="m 33.734375,29.605469 h 13.230469 c 0.363281,0 0.660156,-0.296875 0.660156,-0.664063 0,-0.363281 -0.296875,-0.660156 -0.660156,-0.660156 H 33.734375 c -0.367187,0 -0.660156,0.296875 -0.660156,0.660156 0,0.367188 0.292969,0.664063 0.660156,0.664063 z m 0,0"
       id="path24" />
    <path
       style="fill:#d0ebee;fill-opacity:1;fill-rule:nonzero;stroke:none"
       d="m 33.734375,19.019531 h 13.230469 c 0.363281,0 0.660156,-0.292969 0.660156,-0.660156 0,-0.367187 -0.296875,-0.660156 -0.660156,-0.660156 H 33.734375 c -0.367187,0 -0.660156,0.292969 -0.660156,0.660156 0,0.367187 0.292969,0.660156 0.660156,0.660156 z m 0,0"
       id="path26" />
    <path
       style="fill:#d0ebee;fill-opacity:1;fill-rule:nonzero;stroke:none"
       d="m 33.734375,40.1875 h 13.230469 c 0.363281,0 0.660156,-0.296875 0.660156,-0.660156 0,-0.367188 -0.296875,-0.664063 -0.660156,-0.664063 H 33.734375 c -0.367187,0 -0.660156,0.296875 -0.660156,0.664063 0,0.363281 0.292969,0.660156 0.660156,0.660156 z m 0,0"
       id="path28" />
  </g>
</svg>
