<?xml version="1.0" encoding="UTF-8" standalone="no"?>
<svg
   xmlns:dc="http://purl.org/dc/elements/1.1/"
   xmlns:cc="http://creativecommons.org/ns#"
   xmlns:rdf="http://www.w3.org/1999/02/22-rdf-syntax-ns#"
   xmlns:svg="http://www.w3.org/2000/svg"
   xmlns="http://www.w3.org/2000/svg"
   xmlns:sodipodi="http://sodipodi.sourceforge.net/DTD/sodipodi-0.dtd"
   xmlns:inkscape="http://www.inkscape.org/namespaces/inkscape"
   width="64px"
   height="64px"
   viewBox="0 0 64 64"
   version="1.1"
   id="svg24"
   sodipodi:docname="utilities-terminal.svg"
   inkscape:version="1.0.2 (e86c870879, 2021-01-15)">
  <metadata
     id="metadata28">
    <rdf:RDF>
      <cc:Work
         rdf:about="">
        <dc:format>image/svg+xml</dc:format>
        <dc:type
           rdf:resource="http://purl.org/dc/dcmitype/StillImage" />
      </cc:Work>
    </rdf:RDF>
  </metadata>
  <sodipodi:namedview
     pagecolor="#ffffff"
     bordercolor="#666666"
     borderopacity="1"
     objecttolerance="10"
     gridtolerance="10"
     guidetolerance="10"
     inkscape:pageopacity="0"
     inkscape:pageshadow="2"
     inkscape:window-width="2560"
     inkscape:window-height="1403"
     id="namedview26"
     showgrid="false"
     inkscape:zoom="5.5684659"
     inkscape:cx="15.972392"
     inkscape:cy="25.142181"
     inkscape:window-x="0"
     inkscape:window-y="0"
     inkscape:window-maximized="1"
     inkscape:current-layer="surface1" />
  <defs
     id="defs9">
    <linearGradient
       id="linear0"
       gradientUnits="userSpaceOnUse"
       x1="42.333332"
       y1="42.999996"
       x2="465.666656"
       y2="42.999996"
       gradientTransform="matrix(0.125,0,0,0.125,0.000000833334,26.874999)">
      <stop
         offset="0"
         style="stop-color:#2e3436;stop-opacity:0"
         id="stop2" />
      <stop
         offset="0.5"
         style="stop-color:#2e3436;stop-opacity:0.07843138"
         id="stop4" />
      <stop
         offset="1"
         style="stop-color:#2e3436;stop-opacity:0"
         id="stop6" />
    </linearGradient>
  </defs>
  <g
     id="surface1">
    <path
       style="stroke:none;fill-rule:nonzero;fill:#0c0e11;fill-opacity:1"
       d="M 5.292969 5.792969 L 58.207031 5.792969 C 59.667969 5.792969 60.855469 6.976562 60.855469 8.4375 L 60.855469 56.0625 C 60.855469 57.523438 59.667969 58.707031 58.207031 58.707031 L 5.292969 58.707031 C 3.832031 58.707031 2.644531 57.523438 2.644531 56.0625 L 2.644531 8.4375 C 2.644531 6.976562 3.832031 5.792969 5.292969 5.792969 Z M 5.292969 5.792969 "
       id="path11" />
    <path
       style="stroke:none;fill-rule:nonzero;fill:#d0ebee;fill-opacity:1"
       d="M 16.535156 32.25 L 17.859375 32.25 C 18.226562 32.25 18.519531 32.546875 18.519531 32.910156 L 18.519531 34.894531 C 18.519531 35.261719 18.226562 35.558594 17.859375 35.558594 L 16.535156 35.558594 C 16.171875 35.558594 15.875 35.261719 15.875 34.894531 L 15.875 32.910156 C 15.875 32.546875 16.171875 32.25 16.535156 32.25 Z M 16.535156 32.25 "
       id="path13" />
    <path
       style=" stroke:none;fill-rule:nonzero;fill:url(#linear0);"
       d="M 5.292969 7.777344 L 5.292969 9.097656 L 58.207031 9.097656 L 58.207031 7.777344 Z M 5.292969 11.746094 L 5.292969 13.066406 L 58.207031 13.066406 L 58.207031 11.746094 Z M 5.292969 15.714844 L 5.292969 17.035156 L 58.207031 17.035156 L 58.207031 15.714844 Z M 5.292969 19.683594 L 5.292969 21.003906 L 58.207031 21.003906 L 58.207031 19.683594 Z M 5.292969 23.652344 L 5.292969 24.972656 L 58.207031 24.972656 L 58.207031 23.652344 Z M 5.292969 27.621094 L 5.292969 28.941406 L 58.207031 28.941406 L 58.207031 27.621094 Z M 5.292969 31.589844 L 5.292969 32.910156 L 58.207031 32.910156 L 58.207031 31.589844 Z M 5.292969 35.558594 L 5.292969 36.878906 L 58.207031 36.878906 L 58.207031 35.558594 Z M 5.292969 39.527344 L 5.292969 40.847656 L 58.207031 40.847656 L 58.207031 39.527344 Z M 5.292969 43.496094 L 5.292969 44.816406 L 58.207031 44.816406 L 58.207031 43.496094 Z M 5.292969 47.464844 L 5.292969 48.785156 L 58.207031 48.785156 L 58.207031 47.464844 Z M 5.292969 51.433594 L 5.292969 52.753906 L 58.207031 52.753906 L 58.207031 51.433594 Z M 5.292969 55.402344 L 5.292969 56.722656 L 58.207031 56.722656 L 58.207031 55.402344 Z M 5.292969 55.402344 "
       id="path15" />
    <path
       style="stroke:none;fill-rule:nonzero;fill:#d0ebee;fill-opacity:1"
       d="M 27.121094 48.785156 L 30.425781 48.785156 C 31.15625 48.785156 31.75 49.378906 31.75 50.109375 C 31.75 50.839844 31.15625 51.433594 30.425781 51.433594 L 27.121094 51.433594 C 26.390625 51.433594 25.796875 50.839844 25.796875 50.109375 C 25.796875 49.378906 26.390625 48.785156 27.121094 48.785156 Z M 27.121094 48.785156 "
       id="path17" />
    <path
       style="stroke:none;fill-rule:nonzero;fill:#d0ebee;fill-opacity:1"
       d="M 16.535156 50.109375 L 17.859375 50.109375 C 18.226562 50.109375 18.519531 50.40625 18.519531 50.769531 L 18.519531 52.753906 C 18.519531 53.121094 18.226562 53.417969 17.859375 53.417969 L 16.535156 53.417969 C 16.171875 53.417969 15.875 53.121094 15.875 52.753906 L 15.875 50.769531 C 15.875 50.40625 16.171875 50.109375 16.535156 50.109375 Z M 16.535156 50.109375 "
       id="path19" />
    <path
       style="stroke:none;fill-rule:nonzero;fill:#d0ebee;fill-opacity:1"
       d="M 17.210938 33.574219 C 15.667969 33.546875 14.199219 33.929688 13.070312 34.839844 C 11.9375 35.75 11.246094 37.207031 11.246094 38.863281 C 11.246094 40.628906 12.28125 41.980469 13.429688 42.707031 C 14.574219 43.4375 15.828125 43.769531 16.78125 44.089844 C 17.8125 44.433594 18.875 44.761719 19.546875 45.1875 C 20.21875 45.617188 20.503906 45.921875 20.503906 46.800781 C 20.503906 47.792969 20.203125 48.328125 19.679688 48.746094 C 19.15625 49.164062 18.300781 49.449219 17.199219 49.449219 C 16.09375 49.449219 15.195312 49.160156 14.648438 48.777344 C 14.101562 48.394531 13.890625 48.015625 13.890625 47.464844 C 13.898438 46.988281 13.644531 46.542969 13.234375 46.304688 C 12.824219 46.0625 12.3125 46.0625 11.902344 46.304688 C 11.488281 46.542969 11.238281 46.988281 11.246094 47.464844 C 11.246094 48.894531 12.023438 50.167969 13.132812 50.945312 C 14.242188 51.71875 15.65625 52.09375 17.199219 52.09375 C 18.742188 52.09375 20.203125 51.714844 21.332031 50.8125 C 22.460938 49.90625 23.152344 48.457031 23.152344 46.800781 C 23.152344 45.039062 22.113281 43.6875 20.96875 42.957031 C 19.820312 42.230469 18.566406 41.894531 17.617188 41.578125 C 16.582031 41.234375 15.523438 40.90625 14.847656 40.476562 C 14.175781 40.050781 13.890625 39.746094 13.890625 38.863281 C 13.890625 37.875 14.199219 37.324219 14.726562 36.898438 C 15.257812 36.476562 16.097656 36.199219 17.171875 36.21875 C 17.179688 36.21875 17.191406 36.21875 17.199219 36.21875 C 18.300781 36.21875 19.199219 36.507812 19.746094 36.890625 C 20.292969 37.269531 20.503906 37.652344 20.503906 38.203125 C 20.5 38.679688 20.75 39.125 21.160156 39.363281 C 21.574219 39.605469 22.082031 39.605469 22.496094 39.363281 C 22.90625 39.125 23.15625 38.679688 23.152344 38.203125 C 23.152344 36.769531 22.371094 35.496094 21.265625 34.722656 C 20.160156 33.949219 18.75 33.578125 17.210938 33.574219 Z M 17.210938 33.574219 "
       id="path21" />
  </g>
</svg>
