<?xml version="1.0" encoding="UTF-8" standalone="no"?>
<svg
   xmlns:dc="http://purl.org/dc/elements/1.1/"
   xmlns:cc="http://creativecommons.org/ns#"
   xmlns:rdf="http://www.w3.org/1999/02/22-rdf-syntax-ns#"
   xmlns:svg="http://www.w3.org/2000/svg"
   xmlns="http://www.w3.org/2000/svg"
   xmlns:sodipodi="http://sodipodi.sourceforge.net/DTD/sodipodi-0.dtd"
   xmlns:inkscape="http://www.inkscape.org/namespaces/inkscape"
   width="64px"
   height="64px"
   viewBox="0 0 64 64"
   version="1.1"
   id="svg16"
   sodipodi:docname="utilities-system-monitor.svg"
   inkscape:version="1.0.2 (e86c870879, 2021-01-15)">
  <metadata
     id="metadata20">
    <rdf:RDF>
      <cc:Work
         rdf:about="">
        <dc:format>image/svg+xml</dc:format>
        <dc:type
           rdf:resource="http://purl.org/dc/dcmitype/StillImage" />
      </cc:Work>
    </rdf:RDF>
  </metadata>
  <sodipodi:namedview
     pagecolor="#ffffff"
     bordercolor="#666666"
     borderopacity="1"
     objecttolerance="10"
     gridtolerance="10"
     guidetolerance="10"
     inkscape:pageopacity="0"
     inkscape:pageshadow="2"
     inkscape:window-width="2560"
     inkscape:window-height="1403"
     id="namedview18"
     showgrid="false"
     inkscape:zoom="15.75"
     inkscape:cx="32"
     inkscape:cy="32"
     inkscape:window-x="0"
     inkscape:window-y="0"
     inkscape:window-maximized="1"
     inkscape:current-layer="surface1" />
  <defs
     id="defs7">
    <radialGradient
       id="radial0"
       gradientUnits="userSpaceOnUse"
       cx="254"
       cy="42.999756"
       fx="254"
       fy="42.999756"
       r="232.833328"
       gradientTransform="matrix(0.125,0,0,0.113636,-0.00000115417,27.363663)">
      <stop
         offset="0"
         style="stop-color:rgb(40.000001%,73.333335%,41.568628%);stop-opacity:0.470588;"
         id="stop2" />
      <stop
         offset="1"
         style="stop-color:rgb(40.000001%,73.333335%,41.568628%);stop-opacity:0;"
         id="stop4" />
    </radialGradient>
  </defs>
  <g
     id="surface1">
    <path
       style="fill:#0c0e11;fill-opacity:1;fill-rule:nonzero;stroke:none"
       d="m 5.292969,5.792969 h 52.914062 c 1.460938,0 2.648438,1.183593 2.648438,2.644531 v 47.625 c 0,1.460938 -1.1875,2.644531 -2.648438,2.644531 H 5.292969 c -1.460938,0 -2.648438,-1.183593 -2.648438,-2.644531 V 8.4375 c 0,-1.460938 1.1875,-2.644531 2.648438,-2.644531 z m 0,0"
       id="path9" />
    <path
       style="fill:#733447;fill-opacity:1;fill-rule:nonzero;stroke:none"
       d="m 29.101562,15.375 c -0.40625,0 -0.773437,0.25 -0.925781,0.628906 L 18.324219,40.632812 12.753906,31.71875 C 12.570312,31.425781 12.25,31.25 11.90625,31.25 H 7.9375 c -0.359375,-0.0039 -0.695312,0.183594 -0.878906,0.496094 -0.179688,0.3125 -0.179688,0.695312 0,1.007812 0.183594,0.3125 0.519531,0.5 0.878906,0.496094 h 3.414062 l 6.320313,10.113281 c 0.199219,0.320313 0.5625,0.5 0.9375,0.464844 0.375,-0.03125 0.699219,-0.273437 0.839844,-0.625 L 29.09375,19.09375 40.078125,47.167969 c 0.152344,0.378906 0.519531,0.632812 0.929687,0.632812 0.410157,0.0039 0.777344,-0.246093 0.929688,-0.628906 l 7.113281,-17.773437 1.648438,3.296874 C 50.867188,33.035156 51.214844,33.25 51.59375,33.25 h 3.96875 c 0.359375,0.0039 0.695312,-0.183594 0.878906,-0.496094 0.179688,-0.3125 0.179688,-0.695312 0,-1.007812 -0.183594,-0.3125 -0.519531,-0.5 -0.878906,-0.496094 H 52.210938 L 49.84375,26.511719 c -0.175781,-0.351563 -0.542969,-0.570313 -0.9375,-0.550781 -0.394531,0.01562 -0.742188,0.261718 -0.886719,0.625 l -7,17.5 L 30.035156,16.011719 C 29.886719,15.625 29.515625,15.375 29.101562,15.375 Z m 0,0"
       id="path13" />
  </g>
</svg>
