<?xml version="1.0" encoding="UTF-8" standalone="no"?>
<svg
   xmlns:dc="http://purl.org/dc/elements/1.1/"
   xmlns:cc="http://creativecommons.org/ns#"
   xmlns:rdf="http://www.w3.org/1999/02/22-rdf-syntax-ns#"
   xmlns:svg="http://www.w3.org/2000/svg"
   xmlns="http://www.w3.org/2000/svg"
   xmlns:sodipodi="http://sodipodi.sourceforge.net/DTD/sodipodi-0.dtd"
   xmlns:inkscape="http://www.inkscape.org/namespaces/inkscape"
   width="64px"
   height="64px"
   viewBox="0 0 64 64"
   version="1.1"
   id="svg25"
   sodipodi:docname="xfce-settings-manager.svg"
   inkscape:version="1.0.2 (e86c870879, 2021-01-15)">
  <metadata
     id="metadata31">
    <rdf:RDF>
      <cc:Work
         rdf:about="">
        <dc:format>image/svg+xml</dc:format>
        <dc:type
           rdf:resource="http://purl.org/dc/dcmitype/StillImage" />
      </cc:Work>
    </rdf:RDF>
  </metadata>
  <defs
     id="defs29" />
  <sodipodi:namedview
     pagecolor="#ffffff"
     bordercolor="#666666"
     borderopacity="1"
     objecttolerance="10"
     gridtolerance="10"
     guidetolerance="10"
     inkscape:pageopacity="0"
     inkscape:pageshadow="2"
     inkscape:window-width="2560"
     inkscape:window-height="1403"
     id="namedview27"
     showgrid="false"
     inkscape:zoom="15.75"
     inkscape:cx="32"
     inkscape:cy="32"
     inkscape:window-x="0"
     inkscape:window-y="0"
     inkscape:window-maximized="1"
     inkscape:current-layer="surface1" />
  <g
     id="surface1">
    <path
       style="fill:#0c0e11;fill-opacity:1;fill-rule:nonzero;stroke:#f5f5f5;stroke-width:0.264583;stroke-linecap:round;stroke-linejoin:round;stroke-miterlimit:4;stroke-opacity:1"
       d="M 80.125,-112.0625 C 58.59375,-88 42.59375,-60.03125 32.71875,-30.125 l 51.9375,51.96875 v 42.3125 L 32.8125,116 c 4.9375,14.8125 11.4375,29.34375 19.5625,43.40625 8.09375,14.0625 17.4375,26.96875 27.8125,38.625 L 151,179.0625 l 36.65625,21.15625 19.03125,70.96875 c 30.84375,6.40625 63.0625,6.5625 94.65625,-0.0625 l 19,-70.90625 L 357,179.0625 l 70.875,19 C 449.40625,174 465.40625,146.03125 475.28125,116.125 L 423.34375,64.15625 V 21.84375 L 475.1875,-30 C 470.25,-44.8125 463.75,-59.34375 455.625,-73.40625 c -8.09375,-14.0625 -17.4375,-26.96875 -27.8125,-38.625 L 357,-93.0625 320.34375,-114.21875 301.3125,-185.1875 c -30.84375,-6.40625 -63.0625,-6.5625 -94.65625,0.0625 l -19,70.90625 L 151,-93.0625 Z m 0,0"
       transform="matrix(0.125,0,0,0.125,0,26.875)"
       id="path2" />
    <path
       style="fill:#0c0e11;fill-opacity:1;fill-rule:nonzero;stroke:none"
       d="m 31.75,11.082031 c 11.691406,0 21.167969,9.476563 21.167969,21.167969 0,11.691406 -9.476563,21.167969 -21.167969,21.167969 -11.691406,0 -21.167969,-9.476563 -21.167969,-21.167969 0,-11.691406 9.476563,-21.167969 21.167969,-21.167969 z m 0,0"
       id="path4" />
    <path
       style="fill:#257b76;fill-opacity:1;fill-rule:nonzero;stroke:none"
       d="m 22.488281,17.699219 c 0.730469,0 1.324219,0.589843 1.324219,1.320312 v 26.460938 c 0,0.730469 -0.59375,1.320312 -1.324219,1.320312 -0.730469,0 -1.320312,-0.589843 -1.320312,-1.320312 V 19.019531 c 0,-0.730469 0.589843,-1.320312 1.320312,-1.320312 z m 0,0"
       id="path6" />
    <path
       style="fill:#733447;fill-opacity:1;fill-rule:nonzero;stroke:none"
       d="m 22.488281,32.25 c 0.730469,0 1.324219,0.59375 1.324219,1.324219 v 11.90625 c 0,0.730469 -0.59375,1.320312 -1.324219,1.320312 -0.730469,0 -1.320312,-0.589843 -1.320312,-1.320312 v -11.90625 c 0,-0.730469 0.589843,-1.324219 1.320312,-1.324219 z m 0,0"
       id="path8" />
    <path
       style="fill:#2e3436;fill-opacity:1;fill-rule:nonzero;stroke:none"
       d="m 22.488281,28.28125 c 2.191407,0 3.96875,1.777344 3.96875,3.96875 0,2.191406 -1.777343,3.96875 -3.96875,3.96875 -2.191406,0 -3.96875,-1.777344 -3.96875,-3.96875 0,-2.191406 1.777344,-3.96875 3.96875,-3.96875 z m 0,0"
       id="path10" />
    <path
       style="fill:#257b76;fill-opacity:1;fill-rule:nonzero;stroke:none"
       d="m 31.75,17.699219 c 0.730469,0 1.324219,0.589843 1.324219,1.320312 v 26.460938 c 0,0.730469 -0.59375,1.320312 -1.324219,1.320312 -0.730469,0 -1.324219,-0.589843 -1.324219,-1.320312 V 19.019531 c 0,-0.730469 0.59375,-1.320312 1.324219,-1.320312 z m 0,0"
       id="path12" />
    <path
       style="fill:#257b76;fill-opacity:1;fill-rule:nonzero;stroke:none"
       d="m 41.011719,17.699219 c 0.730469,0 1.320312,0.589843 1.320312,1.320312 v 26.460938 c 0,0.730469 -0.589843,1.320312 -1.320312,1.320312 -0.730469,0 -1.324219,-0.589843 -1.324219,-1.320312 V 19.019531 c 0,-0.730469 0.59375,-1.320312 1.324219,-1.320312 z m 0,0"
       id="path14" />
    <path
       style="fill:#733447;fill-opacity:1;fill-rule:nonzero;stroke:none"
       d="m 41.011719,24.3125 c 0.730469,0 1.320312,0.59375 1.320312,1.324219 v 19.84375 c 0,0.730469 -0.589843,1.320312 -1.320312,1.320312 -0.730469,0 -1.324219,-0.589843 -1.324219,-1.320312 v -19.84375 c 0,-0.730469 0.59375,-1.324219 1.324219,-1.324219 z m 0,0"
       id="path16" />
    <path
       style="fill:#2e3436;fill-opacity:1;fill-rule:nonzero;stroke:none"
       d="m 41.011719,20.34375 c 2.191406,0 3.96875,1.777344 3.96875,3.96875 0,2.191406 -1.777344,3.96875 -3.96875,3.96875 -2.191407,0 -3.96875,-1.777344 -3.96875,-3.96875 0,-2.191406 1.777343,-3.96875 3.96875,-3.96875 z m 0,0"
       id="path18" />
    <path
       style="fill:#733447;fill-opacity:1;fill-rule:nonzero;stroke:none"
       d="m 31.75,37.542969 c 0.730469,0 1.324219,0.589843 1.324219,1.320312 v 6.617188 c 0,0.730469 -0.59375,1.320312 -1.324219,1.320312 -0.730469,0 -1.324219,-0.589843 -1.324219,-1.320312 v -6.617188 c 0,-0.730469 0.59375,-1.320312 1.324219,-1.320312 z m 0,0"
       id="path20" />
    <path
       style="fill:#2e3436;fill-opacity:1;fill-rule:nonzero;stroke:none"
       d="m 31.75,36.21875 c 2.191406,0 3.96875,1.777344 3.96875,3.96875 0,2.191406 -1.777344,3.96875 -3.96875,3.96875 -2.191406,0 -3.96875,-1.777344 -3.96875,-3.96875 0,-2.191406 1.777344,-3.96875 3.96875,-3.96875 z m 0,0"
       id="path22" />
  </g>
</svg>
