<?xml version="1.0" encoding="UTF-8" standalone="no"?>
<svg
   xmlns:dc="http://purl.org/dc/elements/1.1/"
   xmlns:cc="http://creativecommons.org/ns#"
   xmlns:rdf="http://www.w3.org/1999/02/22-rdf-syntax-ns#"
   xmlns:svg="http://www.w3.org/2000/svg"
   xmlns="http://www.w3.org/2000/svg"
   xmlns:sodipodi="http://sodipodi.sourceforge.net/DTD/sodipodi-0.dtd"
   xmlns:inkscape="http://www.inkscape.org/namespaces/inkscape"
   width="64px"
   height="64px"
   viewBox="0 0 64 64"
   version="1.1"
   id="svg7"
   sodipodi:docname="vim.svg"
   inkscape:version="1.0.2 (e86c870879, 2021-01-15)">
  <metadata
     id="metadata13">
    <rdf:RDF>
      <cc:Work
         rdf:about="">
        <dc:format>image/svg+xml</dc:format>
        <dc:type
           rdf:resource="http://purl.org/dc/dcmitype/StillImage" />
      </cc:Work>
    </rdf:RDF>
  </metadata>
  <defs
     id="defs11" />
  <sodipodi:namedview
     pagecolor="#ffffff"
     bordercolor="#666666"
     borderopacity="1"
     objecttolerance="10"
     gridtolerance="10"
     guidetolerance="10"
     inkscape:pageopacity="0"
     inkscape:pageshadow="2"
     inkscape:window-width="2560"
     inkscape:window-height="1403"
     id="namedview9"
     showgrid="false"
     inkscape:zoom="15.75"
     inkscape:cx="32"
     inkscape:cy="32"
     inkscape:window-x="0"
     inkscape:window-y="0"
     inkscape:window-maximized="1"
     inkscape:current-layer="surface1" />
  <g
     id="surface1">
    <path
       style="fill:#257b76;fill-opacity:1;fill-rule:nonzero;stroke:none"
       d="M 33.90625,3.976562 60.023438,30.09375 c 1.1875,1.191406 1.1875,3.121094 0,4.3125 L 33.90625,60.523438 c -1.191406,1.1875 -3.121094,1.1875 -4.3125,0 L 3.476562,34.40625 c -1.1875,-1.191406 -1.1875,-3.121094 0,-4.3125 L 29.59375,3.976562 c 1.191406,-1.1875 3.121094,-1.1875 4.3125,0 z m 0,0"
       id="path2" />
    <path
       style="fill:#d0ebee;fill-opacity:1;fill-rule:nonzero;stroke:none"
       d="m 9.261719,5.792969 c -0.734375,0 -1.324219,0.589843 -1.324219,1.320312 v 5.292969 c 0,0.734375 0.589844,1.324219 1.324219,1.324219 h 1.320312 v 39.691406 h 10.46875 l 29.371094,-36.367187 2.6875,-3.324219 h 1.128906 c 0.734375,0 1.324219,-0.589844 1.324219,-1.324219 V 7.113281 c 0,-0.730469 -0.589844,-1.320312 -1.324219,-1.320312 H 41.011719 c -0.734375,0 -1.324219,0.589843 -1.324219,1.320312 v 5.292969 c 0,0.289062 0.09375,0.558594 0.25,0.777344 L 21.167969,36.417969 v -22.6875 h 1.320312 c 0.734375,0 1.324219,-0.589844 1.324219,-1.324219 V 7.113281 c 0,-0.730469 -0.589844,-1.320312 -1.324219,-1.320312 z m 0,0"
       id="path4" />
  </g>
</svg>
