<?xml version="1.0" encoding="UTF-8" standalone="no"?>
<svg
   xmlns:dc="http://purl.org/dc/elements/1.1/"
   xmlns:cc="http://creativecommons.org/ns#"
   xmlns:rdf="http://www.w3.org/1999/02/22-rdf-syntax-ns#"
   xmlns:svg="http://www.w3.org/2000/svg"
   xmlns="http://www.w3.org/2000/svg"
   xmlns:sodipodi="http://sodipodi.sourceforge.net/DTD/sodipodi-0.dtd"
   xmlns:inkscape="http://www.inkscape.org/namespaces/inkscape"
   width="64px"
   height="64px"
   viewBox="0 0 64 64"
   version="1.1"
   id="svg60"
   sodipodi:docname="xarchiver.svg"
   inkscape:version="1.0.2 (e86c870879, 2021-01-15)">
  <metadata
     id="metadata64">
    <rdf:RDF>
      <cc:Work
         rdf:about="">
        <dc:format>image/svg+xml</dc:format>
        <dc:type
           rdf:resource="http://purl.org/dc/dcmitype/StillImage" />
      </cc:Work>
    </rdf:RDF>
  </metadata>
  <sodipodi:namedview
     pagecolor="#ffffff"
     bordercolor="#666666"
     borderopacity="1"
     objecttolerance="10"
     gridtolerance="10"
     guidetolerance="10"
     inkscape:pageopacity="0"
     inkscape:pageshadow="2"
     inkscape:window-width="2560"
     inkscape:window-height="1403"
     id="namedview62"
     showgrid="false"
     inkscape:zoom="15.75"
     inkscape:cx="32"
     inkscape:cy="32"
     inkscape:window-x="0"
     inkscape:window-y="0"
     inkscape:window-maximized="1"
     inkscape:current-layer="surface1" />
  <defs
     id="defs7">
    <linearGradient
       id="linear0"
       gradientUnits="userSpaceOnUse"
       x1="381"
       y1="-41.666668"
       x2="381"
       y2="-62.833332"
       gradientTransform="matrix(0.0530303,0,0,-0.125,11.124524,29.687471)">
      <stop
         offset="0"
         style="stop-color:rgb(12.941177%,12.941177%,12.941177%);stop-opacity:0.392157;"
         id="stop2" />
      <stop
         offset="1"
         style="stop-color:rgb(49.411765%,34.117648%,76.078433%);stop-opacity:0;"
         id="stop4" />
    </linearGradient>
  </defs>
  <g
     id="surface1">
    <path
       style="fill:#733447;fill-opacity:1;fill-rule:nonzero;stroke:none"
       d="m 5.292969,3.144531 h 52.914062 c 1.460938,0 2.648438,1.1875 2.648438,2.648438 v 52.914062 c 0,1.460938 -1.1875,2.648438 -2.648438,2.648438 H 5.292969 c -1.460938,0 -2.648438,-1.1875 -2.648438,-2.648438 V 5.792969 c 0,-1.460938 1.1875,-2.648438 2.648438,-2.648438 z m 0,0"
       id="path9" />
    <path
       style="fill:#000000;fill-opacity:0.235294;fill-rule:nonzero;stroke:none"
       d="M 26.457031,3.144531 V 32.25 c 0,1.464844 1.179688,2.644531 2.648438,2.644531 h 5.289062 c 1.46875,0 2.648438,-1.179687 2.648438,-2.644531 V 3.144531 Z m 0,0"
       id="path11" />
    <path
       style="fill:#000000;fill-opacity:0.313726;fill-rule:nonzero;stroke:none"
       d="m 27.78125,3.144531 h 7.9375 v 30.429688 h -7.9375 z m 0,0"
       id="path13" />
    <path
       style="fill:#d0ebee;fill-opacity:1;fill-rule:nonzero;stroke:none"
       d="m 28.113281,21.996094 c -0.367187,0 -0.664062,0.296875 -0.664062,0.664062 v 0.660156 c 0,0.367188 0.296875,0.660157 0.664062,0.660157 h 1.984375 c 0.363282,0 0.660156,-0.292969 0.660156,-0.660157 h 0.417969 c 0.117188,0.199219 0.328125,0.332032 0.574219,0.332032 0.367188,0 0.660156,-0.296875 0.660156,-0.664063 0,-0.363281 -0.292968,-0.660156 -0.660156,-0.660156 -0.246094,0 -0.457031,0.132813 -0.574219,0.332031 h -0.417969 c 0,-0.367187 -0.296874,-0.664062 -0.660156,-0.664062 z m 0,0"
       id="path15" />
    <path
       style="fill:#d0ebee;fill-opacity:1;fill-rule:nonzero;stroke:none"
       d="m 28.113281,25.304688 c -0.367187,0 -0.664062,0.296874 -0.664062,0.660156 v 0.664062 c 0,0.363282 0.296875,0.660156 0.664062,0.660156 h 1.984375 c 0.363282,0 0.660156,-0.296874 0.660156,-0.660156 h 0.417969 c 0.117188,0.195313 0.328125,0.328125 0.574219,0.328125 0.367188,0 0.660156,-0.292969 0.660156,-0.660156 0,-0.367187 -0.292968,-0.660156 -0.660156,-0.660156 -0.246094,0 -0.457031,0.132812 -0.574219,0.328125 h -0.417969 c 0,-0.363282 -0.296874,-0.660156 -0.660156,-0.660156 z m 0,0"
       id="path17" />
    <path
       style="fill:#d0ebee;fill-opacity:1;fill-rule:nonzero;stroke:none"
       d="m 28.113281,28.613281 c -0.367187,0 -0.664062,0.292969 -0.664062,0.660157 v 0.660156 c 0,0.367187 0.296875,0.664062 0.664062,0.664062 h 1.984375 c 0.363282,0 0.660156,-0.296875 0.660156,-0.664062 h 0.417969 c 0.117188,0.199218 0.328125,0.332031 0.574219,0.332031 0.367188,0 0.660156,-0.296875 0.660156,-0.660156 0,-0.367188 -0.292968,-0.664063 -0.660156,-0.664063 -0.246094,0 -0.457031,0.132813 -0.574219,0.332032 h -0.417969 c 0,-0.367188 -0.296874,-0.660157 -0.660156,-0.660157 z m 0,0"
       id="path19" />
    <path
       style="fill:#d0ebee;fill-opacity:1;fill-rule:nonzero;stroke:none"
       d="m 28.113281,18.691406 c -0.367187,0 -0.664062,0.292969 -0.664062,0.660156 v 0.660157 c 0,0.367187 0.296875,0.664062 0.664062,0.664062 h 1.984375 c 0.363282,0 0.660156,-0.296875 0.660156,-0.664062 h 0.417969 c 0.117188,0.199219 0.328125,0.332031 0.574219,0.332031 0.367188,0 0.660156,-0.296875 0.660156,-0.660156 0,-0.367188 -0.292968,-0.664063 -0.660156,-0.664063 -0.246094,0 -0.457031,0.132813 -0.574219,0.332031 h -0.417969 c 0,-0.367187 -0.296874,-0.660156 -0.660156,-0.660156 z m 0,0"
       id="path21" />
    <path
       style="fill:#d0ebee;fill-opacity:1;fill-rule:nonzero;stroke:none"
       d="m 28.113281,15.382812 c -0.367187,0 -0.664062,0.296876 -0.664062,0.660157 v 0.664062 c 0,0.363281 0.296875,0.660157 0.664062,0.660157 h 1.984375 c 0.363282,0 0.660156,-0.296876 0.660156,-0.660157 h 0.417969 c 0.117188,0.195313 0.328125,0.328125 0.574219,0.328125 0.367188,0 0.660156,-0.292968 0.660156,-0.660156 0,-0.367188 -0.292968,-0.660156 -0.660156,-0.660156 -0.246094,0 -0.457031,0.132812 -0.574219,0.328125 h -0.417969 c 0,-0.363281 -0.296874,-0.660157 -0.660156,-0.660157 z m 0,0"
       id="path23" />
    <path
       style="fill:#d0ebee;fill-opacity:1;fill-rule:nonzero;stroke:none"
       d="m 28.113281,12.074219 c -0.367187,0 -0.664062,0.296875 -0.664062,0.664062 v 0.660157 c 0,0.367187 0.296875,0.660156 0.664062,0.660156 h 1.984375 c 0.363282,0 0.660156,-0.292969 0.660156,-0.660156 h 0.417969 c 0.117188,0.199218 0.328125,0.332031 0.574219,0.332031 0.367188,0 0.660156,-0.296875 0.660156,-0.664063 0,-0.363281 -0.292968,-0.660156 -0.660156,-0.660156 -0.246094,0 -0.457031,0.132812 -0.574219,0.332031 h -0.417969 c 0,-0.367187 -0.296874,-0.664062 -0.660156,-0.664062 z m 0,0"
       id="path25" />
    <path
       style="fill:#d0ebee;fill-opacity:1;fill-rule:nonzero;stroke:none"
       d="m 28.113281,8.769531 c -0.367187,0 -0.664062,0.292969 -0.664062,0.660157 v 0.660156 c 0,0.367187 0.296875,0.664062 0.664062,0.664062 h 1.984375 c 0.363282,0 0.660156,-0.296875 0.660156,-0.664062 h 0.417969 c 0.117188,0.199218 0.328125,0.332031 0.574219,0.332031 0.367188,0 0.660156,-0.296875 0.660156,-0.660156 0,-0.367188 -0.292968,-0.664063 -0.660156,-0.664063 -0.246094,0 -0.457031,0.132813 -0.574219,0.332032 h -0.417969 c 0,-0.367188 -0.296874,-0.660157 -0.660156,-0.660157 z m 0,0"
       id="path27" />
    <path
       style="fill:#d0ebee;fill-opacity:1;fill-rule:nonzero;stroke:none"
       d="m 28.113281,5.460938 c -0.367187,0 -0.664062,0.296874 -0.664062,0.660156 v 0.664062 c 0,0.363282 0.296875,0.660156 0.664062,0.660156 h 1.984375 c 0.363282,0 0.660156,-0.296874 0.660156,-0.660156 h 0.417969 c 0.117188,0.195313 0.328125,0.328125 0.574219,0.328125 0.367188,0 0.660156,-0.292969 0.660156,-0.660156 0,-0.367187 -0.292968,-0.660156 -0.660156,-0.660156 -0.246094,0 -0.457031,0.132812 -0.574219,0.328125 h -0.417969 c 0,-0.363282 -0.296874,-0.660156 -0.660156,-0.660156 z m 0,0"
       id="path29" />
    <path
       style="fill:#d0ebee;fill-opacity:1;fill-rule:nonzero;stroke:none"
       d="m 35.386719,20.34375 c 0.367187,0 0.664062,0.296875 0.664062,0.660156 v 0.664063 c 0,0.363281 -0.296875,0.660156 -0.664062,0.660156 h -1.984375 c -0.363282,0 -0.660156,-0.296875 -0.660156,-0.660156 h -0.417969 c -0.117188,0.195312 -0.328125,0.328125 -0.574219,0.328125 -0.367188,0 -0.660156,-0.292969 -0.660156,-0.660156 0,-0.367188 0.292968,-0.660157 0.660156,-0.660157 0.246094,0 0.457031,0.132813 0.574219,0.328125 h 0.417969 c 0,-0.363281 0.296874,-0.660156 0.660156,-0.660156 z m 0,0"
       id="path31" />
    <path
       style="fill:#d0ebee;fill-opacity:1;fill-rule:nonzero;stroke:none"
       d="m 35.386719,23.652344 c 0.367187,0 0.664062,0.292968 0.664062,0.660156 v 0.660156 c 0,0.367188 -0.296875,0.664063 -0.664062,0.664063 h -1.984375 c -0.363282,0 -0.660156,-0.296875 -0.660156,-0.664063 h -0.417969 c -0.117188,0.199219 -0.328125,0.332032 -0.574219,0.332032 -0.367188,0 -0.660156,-0.296876 -0.660156,-0.660157 0,-0.367187 0.292968,-0.664062 0.660156,-0.664062 0.246094,0 0.457031,0.132812 0.574219,0.332031 h 0.417969 c 0,-0.367188 0.296874,-0.660156 0.660156,-0.660156 z m 0,0"
       id="path33" />
    <path
       style="fill:#d0ebee;fill-opacity:1;fill-rule:nonzero;stroke:none"
       d="m 35.386719,26.957031 c 0.367187,0 0.664062,0.296875 0.664062,0.664063 v 0.660156 c 0,0.367188 -0.296875,0.660156 -0.664062,0.660156 h -1.984375 c -0.363282,0 -0.660156,-0.292968 -0.660156,-0.660156 h -0.417969 c -0.117188,0.199219 -0.328125,0.332031 -0.574219,0.332031 -0.367188,0 -0.660156,-0.296875 -0.660156,-0.664062 0,-0.363281 0.292968,-0.660157 0.660156,-0.660157 0.246094,0 0.457031,0.132813 0.574219,0.332032 h 0.417969 c 0,-0.367188 0.296874,-0.664063 0.660156,-0.664063 z m 0,0"
       id="path35" />
    <path
       style="fill:#d0ebee;fill-opacity:1;fill-rule:nonzero;stroke:none"
       d="m 35.386719,30.265625 c 0.367187,0 0.664062,0.296875 0.664062,0.660156 v 0.664063 c 0,0.363281 -0.296875,0.660156 -0.664062,0.660156 h -1.984375 c -0.363282,0 -0.660156,-0.296875 -0.660156,-0.660156 h -0.417969 c -0.117188,0.195312 -0.328125,0.328125 -0.574219,0.328125 -0.367188,0 -0.660156,-0.292969 -0.660156,-0.660157 0,-0.367187 0.292968,-0.660156 0.660156,-0.660156 0.246094,0 0.457031,0.132813 0.574219,0.328125 h 0.417969 c 0,-0.363281 0.296874,-0.660156 0.660156,-0.660156 z m 0,0"
       id="path37" />
    <path
       style="fill:#d0ebee;fill-opacity:1;fill-rule:nonzero;stroke:none"
       d="m 35.386719,17.035156 c 0.367187,0 0.664062,0.296875 0.664062,0.664063 v 0.660156 c 0,0.367187 -0.296875,0.660156 -0.664062,0.660156 h -1.984375 c -0.363282,0 -0.660156,-0.292969 -0.660156,-0.660156 h -0.417969 c -0.117188,0.199219 -0.328125,0.332031 -0.574219,0.332031 -0.367188,0 -0.660156,-0.296875 -0.660156,-0.664062 0,-0.363282 0.292968,-0.660156 0.660156,-0.660156 0.246094,0 0.457031,0.132812 0.574219,0.332031 h 0.417969 c 0,-0.367188 0.296874,-0.664063 0.660156,-0.664063 z m 0,0"
       id="path39" />
    <path
       style="fill:#d0ebee;fill-opacity:1;fill-rule:nonzero;stroke:none"
       d="m 35.386719,13.730469 c 0.367187,0 0.664062,0.292969 0.664062,0.660156 v 0.660156 c 0,0.367188 -0.296875,0.664063 -0.664062,0.664063 h -1.984375 c -0.363282,0 -0.660156,-0.296875 -0.660156,-0.664063 H 32.324219 C 32.207031,15.25 31.996094,15.382812 31.75,15.382812 c -0.367188,0 -0.660156,-0.296874 -0.660156,-0.660156 0,-0.367187 0.292968,-0.664062 0.660156,-0.664062 0.246094,0 0.457031,0.132812 0.574219,0.332031 h 0.417969 c 0,-0.367187 0.296874,-0.660156 0.660156,-0.660156 z m 0,0"
       id="path41" />
    <path
       style="fill:#d0ebee;fill-opacity:1;fill-rule:nonzero;stroke:none"
       d="m 35.386719,10.421875 c 0.367187,0 0.664062,0.296875 0.664062,0.660156 v 0.664063 c 0,0.363281 -0.296875,0.660156 -0.664062,0.660156 h -1.984375 c -0.363282,0 -0.660156,-0.296875 -0.660156,-0.660156 h -0.417969 c -0.117188,0.195312 -0.328125,0.328125 -0.574219,0.328125 -0.367188,0 -0.660156,-0.292969 -0.660156,-0.660157 0,-0.367187 0.292968,-0.660156 0.660156,-0.660156 0.246094,0 0.457031,0.132813 0.574219,0.328125 h 0.417969 c 0,-0.363281 0.296874,-0.660156 0.660156,-0.660156 z m 0,0"
       id="path43" />
    <path
       style="fill:#d0ebee;fill-opacity:1;fill-rule:nonzero;stroke:none"
       d="m 35.386719,7.113281 c 0.367187,0 0.664062,0.296875 0.664062,0.664063 V 8.4375 c 0,0.367188 -0.296875,0.660156 -0.664062,0.660156 h -1.984375 c -0.363282,0 -0.660156,-0.292968 -0.660156,-0.660156 H 32.324219 C 32.207031,8.636719 31.996094,8.769531 31.75,8.769531 c -0.367188,0 -0.660156,-0.296875 -0.660156,-0.664062 0,-0.363281 0.292968,-0.660157 0.660156,-0.660157 0.246094,0 0.457031,0.132813 0.574219,0.332032 h 0.417969 c 0,-0.367188 0.296874,-0.664063 0.660156,-0.664063 z m 0,0"
       id="path45" />
    <path
       style="fill:#d0ebee;fill-opacity:1;fill-rule:nonzero;stroke:none"
       d="m 35.386719,3.808594 c 0.367187,0 0.664062,0.292968 0.664062,0.660156 v 0.660156 c 0,0.367188 -0.296875,0.664063 -0.664062,0.664063 h -1.984375 c -0.363282,0 -0.660156,-0.296875 -0.660156,-0.664063 H 32.324219 C 32.207031,5.328125 31.996094,5.460938 31.75,5.460938 c -0.367188,0 -0.660156,-0.296876 -0.660156,-0.660157 0,-0.367187 0.292968,-0.664062 0.660156,-0.664062 0.246094,0 0.457031,0.132812 0.574219,0.332031 h 0.417969 c 0,-0.367188 0.296874,-0.660156 0.660156,-0.660156 z m 0,0"
       id="path47" />
    <path
       style="fill:#d0ebee;fill-opacity:1;fill-rule:nonzero;stroke:none"
       d="m 27.449219,3.144531 v 0.332031 c 0,0.367188 0.296875,0.660157 0.664062,0.660157 h 1.984375 c 0.363282,0 0.660156,-0.292969 0.660156,-0.660157 h 0.417969 c 0.117188,0.199219 0.328125,0.332032 0.574219,0.332032 0.367188,0 0.660156,-0.296875 0.660156,-0.664063 z m 0,0"
       id="path49" />
    <path
       style="fill:url(#linear0);fill-rule:nonzero;stroke:none"
       d="m 27.121094,37.542969 h 9.257812 v -3.96875 h -9.257812 z m 0,0"
       id="path51" />
    <path
       style="fill:#2e3436;fill-opacity:1;fill-rule:nonzero;stroke:none"
       d="m 31.75,30.265625 c 2.558594,0 4.628906,1.628906 4.628906,3.636719 0,2.011718 -2.070312,3.640625 -4.628906,3.640625 -2.558594,0 -4.628906,-1.628907 -4.628906,-3.640625 0,-2.007813 2.070312,-3.636719 4.628906,-3.636719 z m 0,0"
       id="path53" />
    <path
       style="fill:#d0ebee;fill-opacity:1;fill-rule:nonzero;stroke:none"
       d="m 31.75,33.574219 c -1.464844,0 -2.644531,1.179687 -2.644531,2.644531 L 27.78125,46.800781 v 2.648438 c 0,2.199219 1.769531,3.96875 3.96875,3.96875 2.199219,0 3.96875,-1.769531 3.96875,-3.96875 V 46.800781 L 34.394531,36.21875 c 0,-1.464844 -1.179687,-2.644531 -2.644531,-2.644531 z m 0,1.320312 c 0.734375,0 1.324219,0.589844 1.324219,1.324219 0,0.734375 -0.589844,1.324219 -1.324219,1.324219 -0.734375,0 -1.324219,-0.589844 -1.324219,-1.324219 0,-0.734375 0.589844,-1.324219 1.324219,-1.324219 z m 0,5.292969 c 1.097656,0 1.984375,0.886719 1.984375,1.984375 v 1.324219 c 0,1.097656 -0.886719,1.984375 -1.984375,1.984375 -1.097656,0 -1.984375,-0.886719 -1.984375,-1.984375 v -1.324219 c 0,-1.097656 0.886719,-1.984375 1.984375,-1.984375 z m 0,6.613281 c 1.464844,0 2.644531,1.179688 2.644531,2.648438 0,1.464843 -1.179687,2.644531 -2.644531,2.644531 -1.464844,0 -2.644531,-1.179688 -2.644531,-2.644531 0,-1.46875 1.179687,-2.648438 2.644531,-2.648438 z m 0,0"
       id="path55" />
    <path
       style="fill:#d0ebee;fill-opacity:1;fill-rule:nonzero;stroke:none"
       d="m 31.089844,30.925781 h 1.320312 c 0.367188,0 0.664063,0.296875 0.664063,0.664063 v 4.628906 c 0,0.367188 -0.296875,0.660156 -0.664063,0.660156 h -1.320312 c -0.367188,0 -0.664063,-0.292968 -0.664063,-0.660156 v -4.628906 c 0,-0.367188 0.296875,-0.664063 0.664063,-0.664063 z m 0,0"
       id="path57" />
  </g>
</svg>
