<?xml version="1.0" encoding="UTF-8" standalone="no"?>
<svg
   xmlns:dc="http://purl.org/dc/elements/1.1/"
   xmlns:cc="http://creativecommons.org/ns#"
   xmlns:rdf="http://www.w3.org/1999/02/22-rdf-syntax-ns#"
   xmlns:svg="http://www.w3.org/2000/svg"
   xmlns="http://www.w3.org/2000/svg"
   xmlns:sodipodi="http://sodipodi.sourceforge.net/DTD/sodipodi-0.dtd"
   xmlns:inkscape="http://www.inkscape.org/namespaces/inkscape"
   width="64px"
   height="64px"
   viewBox="0 0 64 64"
   version="1.1"
   id="svg29"
   sodipodi:docname="org.pulseaudio.pavucontrol.svg"
   inkscape:version="1.0.2 (e86c870879, 2021-01-15)">
  <metadata
     id="metadata35">
    <rdf:RDF>
      <cc:Work
         rdf:about="">
        <dc:format>image/svg+xml</dc:format>
        <dc:type
           rdf:resource="http://purl.org/dc/dcmitype/StillImage" />
      </cc:Work>
    </rdf:RDF>
  </metadata>
  <defs
     id="defs33" />
  <sodipodi:namedview
     pagecolor="#ffffff"
     bordercolor="#666666"
     borderopacity="1"
     objecttolerance="10"
     gridtolerance="10"
     guidetolerance="10"
     inkscape:pageopacity="0"
     inkscape:pageshadow="2"
     inkscape:window-width="2560"
     inkscape:window-height="1403"
     id="namedview31"
     showgrid="false"
     inkscape:zoom="15.75"
     inkscape:cx="32"
     inkscape:cy="32"
     inkscape:window-x="0"
     inkscape:window-y="0"
     inkscape:window-maximized="1"
     inkscape:current-layer="surface1" />
  <g
     id="surface1">
    <path
       style="fill:#2e3436;fill-opacity:1;fill-rule:nonzero;stroke:none"
       d="m 7.9375,3.144531 h 47.625 c 1.460938,0 2.644531,1.1875 2.644531,2.648438 v 52.914062 c 0,1.460938 -1.183593,2.648438 -2.644531,2.648438 H 7.9375 c -1.460938,0 -2.644531,-1.1875 -2.644531,-2.648438 V 5.792969 c 0,-1.460938 1.183593,-2.648438 2.644531,-2.648438 z m 0,0"
       id="path2" />
    <path
       style="fill:#d0ebee;fill-opacity:1;fill-rule:nonzero;stroke:none"
       d="m 31.75,7.113281 c 11.691406,0 21.167969,9.476563 21.167969,21.167969 0,11.691406 -9.476563,21.167969 -21.167969,21.167969 -11.691406,0 -21.167969,-9.476563 -21.167969,-21.167969 0,-11.691406 9.476563,-21.167969 21.167969,-21.167969 z m 0,0"
       id="path4" />
    <path
       style="fill:#2e3436;fill-opacity:1;fill-rule:nonzero;stroke:none"
       d="m 31.75,11.082031 c 9.5,0 17.199219,7.699219 17.199219,17.199219 0,9.5 -7.699219,17.199219 -17.199219,17.199219 -9.5,0 -17.199219,-7.699219 -17.199219,-17.199219 0,-9.5 7.699219,-17.199219 17.199219,-17.199219 z m 0,0"
       id="path6" />
    <path
       style="fill:#0c0e11;fill-opacity:1;fill-rule:nonzero;stroke:none"
       d="m 31.75,13.730469 c 8.035156,0 14.550781,6.515625 14.550781,14.550781 0,8.035156 -6.515625,14.550781 -14.550781,14.550781 -8.035156,0 -14.550781,-6.515625 -14.550781,-14.550781 0,-8.035156 6.515625,-14.550781 14.550781,-14.550781 z m 0,0"
       id="path8" />
    <path
       style="fill:#2e3436;fill-opacity:1;fill-rule:nonzero;stroke:none"
       d="m 31.75,21.667969 c 3.652344,0 6.613281,2.960937 6.613281,6.613281 0,3.652344 -2.960937,6.613281 -6.613281,6.613281 -3.652344,0 -6.613281,-2.960937 -6.613281,-6.613281 0,-3.652344 2.960937,-6.613281 6.613281,-6.613281 z m 0,0"
       id="path10" />
    <path
       style="fill:#2e3436;fill-opacity:1;fill-rule:nonzero;stroke:none"
       d="m 46.132812,13.734375 c 0.386719,0.386719 0.386719,1.015625 0,1.402344 -0.386718,0.386719 -1.015624,0.386719 -1.402343,0 -0.386719,-0.386719 -0.386719,-1.015625 0,-1.402344 0.386719,-0.386719 1.015625,-0.386719 1.402343,0 z m 0,0"
       id="path12" />
    <path
       style="fill:#2e3436;fill-opacity:1;fill-rule:nonzero;stroke:none"
       d="m 45.898438,41.09375 c 0.386718,0.390625 0.386718,1.015625 0,1.40625 -0.386719,0.386719 -1.015626,0.386719 -1.402344,0 -0.386719,-0.390625 -0.386719,-1.015625 0,-1.40625 0.386718,-0.386719 1.015625,-0.386719 1.402344,0 z m 0,0"
       id="path14" />
    <path
       style="fill:#2e3436;fill-opacity:1;fill-rule:nonzero;stroke:none"
       d="m 18.769531,13.96875 c 0.386719,0.386719 0.386719,1.015625 0,1.402344 -0.386719,0.386718 -1.015625,0.386718 -1.402343,0 -0.386719,-0.386719 -0.386719,-1.015625 0,-1.402344 0.386718,-0.390625 1.015624,-0.390625 1.402343,0 z m 0,0"
       id="path16" />
    <path
       style="fill:#2e3436;fill-opacity:1;fill-rule:nonzero;stroke:none"
       d="m 18.769531,41.09375 c 0.386719,0.390625 0.386719,1.015625 0,1.40625 -0.386719,0.386719 -1.015625,0.386719 -1.402343,0 -0.386719,-0.390625 -0.386719,-1.015625 0,-1.40625 0.386718,-0.386719 1.015624,-0.386719 1.402343,0 z m 0,0"
       id="path18" />
    <path
       style="fill:#d0ebee;fill-opacity:1;fill-rule:nonzero;stroke:none"
       d="m 15.875,50.769531 c 2.191406,0 3.96875,1.777344 3.96875,3.96875 0,2.191407 -1.777344,3.96875 -3.96875,3.96875 -2.191406,0 -3.96875,-1.777343 -3.96875,-3.96875 0,-2.191406 1.777344,-3.96875 3.96875,-3.96875 z m 0,0"
       id="path20" />
    <path
       style="fill:#d0ebee;fill-opacity:1;fill-rule:nonzero;stroke:none"
       d="m 47.625,50.769531 c 2.191406,0 3.96875,1.777344 3.96875,3.96875 0,2.191407 -1.777344,3.96875 -3.96875,3.96875 -2.191406,0 -3.96875,-1.777343 -3.96875,-3.96875 0,-2.191406 1.777344,-3.96875 3.96875,-3.96875 z m 0,0"
       id="path22" />
    <path
       style="fill:#733447;fill-opacity:1;fill-rule:nonzero;stroke:none"
       d="m 15.875,52.753906 c 1.097656,0 1.984375,0.890625 1.984375,1.984375 0,1.097657 -0.886719,1.984375 -1.984375,1.984375 -1.097656,0 -1.984375,-0.886718 -1.984375,-1.984375 0,-1.09375 0.886719,-1.984375 1.984375,-1.984375 z m 0,0"
       id="path24" />
    <path
       style="fill:#257b76;fill-opacity:1;fill-rule:nonzero;stroke:none"
       d="m 47.625,52.753906 c 1.097656,0 1.984375,0.890625 1.984375,1.984375 0,1.097657 -0.886719,1.984375 -1.984375,1.984375 -1.097656,0 -1.984375,-0.886718 -1.984375,-1.984375 0,-1.09375 0.886719,-1.984375 1.984375,-1.984375 z m 0,0"
       id="path26" />
  </g>
</svg>
