<?xml version="1.0" encoding="UTF-8" standalone="no"?>
<svg
   viewBox="0 0 18.499072 20.235862"
   version="1.1"
   id="svg141"
   sodipodi:docname="protonvpn_protected.svg"
   width="18.499071"
   height="20.235863"
   xml:space="preserve"
   inkscape:version="1.2.2 (b0a8486541, 2022-12-01)"
   xmlns:inkscape="http://www.inkscape.org/namespaces/inkscape"
   xmlns:sodipodi="http://sodipodi.sourceforge.net/DTD/sodipodi-0.dtd"
   xmlns="http://www.w3.org/2000/svg"
   xmlns:svg="http://www.w3.org/2000/svg"
   xmlns:rdf="http://www.w3.org/1999/02/22-rdf-syntax-ns#"
   xmlns:cc="http://creativecommons.org/ns#"
   xmlns:dc="http://purl.org/dc/elements/1.1/"><sodipodi:namedview
     id="namedview143"
     pagecolor="#ffffff"
     bordercolor="#666666"
     borderopacity="1.0"
     inkscape:showpageshadow="2"
     inkscape:pageopacity="0.0"
     inkscape:pagecheckerboard="0"
     inkscape:deskcolor="#d1d1d1"
     showgrid="false"
     inkscape:zoom="29.259592"
     inkscape:cx="4.7334905"
     inkscape:cy="13.46567"
     inkscape:window-width="2536"
     inkscape:window-height="1370"
     inkscape:window-x="0"
     inkscape:window-y="0"
     inkscape:window-maximized="1"
     inkscape:current-layer="Ebene_1-2" /><defs
     id="defs111"><style
       id="style109">.cls-1{opacity:0;}.cls-2{fill:#fff;}.cls-3,.cls-4{fill:#56b366;}.cls-3{fill-rule:evenodd;}</style></defs><title
     id="title113">protonvpn-logo-green</title><g
     id="Ebene_2"
     data-name="Ebene 2"
     transform="translate(-15.69095,-14.33)"><g
       id="Ebene_1-2"
       data-name="Ebene 1"><g
         class="cls-1"
         id="g117"><rect
           class="cls-2"
           width="162.98"
           height="48.720001"
           id="rect115"
           x="0"
           y="0" /></g><path
         class="cls-3"
         d="m 33.035734,17.831502 a 1.97797,1.9029347 0 0 0 -3.95594,0 c 0,0 0,0 0,0.05894 l -8.620798,2.67758 a 1.9779699,1.9029346 0 1 0 -1.592878,2.972283 1.9517136,1.8776744 0 0 0 0.603893,-0.101041 l 5.662595,6.879193 a 1.9779699,1.9029346 0 1 0 3.106988,-0.698865 l 3.010716,-9.893576 a 1.9692178,1.8945146 0 0 0 1.785424,-1.894514 z M 26.91803,29.122809 a 1.9604657,1.8860945 0 0 0 -0.875207,0.210502 l -5.531314,-6.736052 a 1.9604657,1.8860945 0 0 0 0.280066,-0.791486 l 8.804592,-2.702841 a 1.9779699,1.9029346 0 0 0 0.306322,0.269442 l -2.975706,9.750435 z"
         id="path119"
         style="stroke-width:0.858447;fill:#d0ebee;fill-opacity:1" /><path
         d="m 32.22509,27.593622 c 0,0.224785 -0.215154,0.407219 -0.48025,0.407219 h -3.841995 c -0.265098,0 -0.480248,-0.182426 -0.480248,-0.407219 v -3.25774 c 0,-0.224785 0.21515,-0.407218 0.480248,-0.407218 h 3.841995 c 0.265096,0 0.48025,0.182426 0.48025,0.407218 z m -3.361746,-5.293829 c 0,-0.449163 0.430784,-0.814437 0.960499,-0.814437 0.529714,0 0.960498,0.407218 0.960498,0.814437 v 0.814434 h -1.920997 z m 2.881496,0.814434 v -0.814434 c 0,-0.91502 -1.085843,-1.830445 -2.322485,-1.590186 -0.911514,0.177136 -1.51951,0.914611 -1.51951,1.707464 v 0.697156 h -0.480248 c -0.530678,0 -0.960499,0.364461 -0.960499,0.814437 v 4.072177 c 0,0.449975 0.429821,0.814436 0.960499,0.814436 h 4.802493 c 0.530676,0 0.960499,-0.364461 0.960499,-0.814436 v -4.072177 c 0,-0.449976 -0.429823,-0.814437 -0.960499,-0.814437 z"
         id="lock_close_round-[#707]"
         style="fill:#52677c;fill-opacity:1;fill-rule:evenodd;stroke:none;stroke-width:0.442228"
         inkscape:transform-center-y="-0.0022475969"
         inkscape:transform-center-x="0.0018903126" /></g></g><metadata
     id="metadata7464"><rdf:RDF><cc:Work
         rdf:about=""><dc:title>protonvpn-logo-green</dc:title></cc:Work></rdf:RDF></metadata></svg>
