<?xml version="1.0" encoding="UTF-8" standalone="no"?>
<svg
   fill="#52677C"
   height="48"
   viewBox="0 0 48 48"
   width="48"
   version="1.1"
   id="svg44"
   sodipodi:docname="audio-output-none-panel.svg"
   inkscape:version="1.2.1 (9c6d41e410, 2022-07-14, custom)"
   xmlns:inkscape="http://www.inkscape.org/namespaces/inkscape"
   xmlns:sodipodi="http://sodipodi.sourceforge.net/DTD/sodipodi-0.dtd"
   xmlns="http://www.w3.org/2000/svg"
   xmlns:svg="http://www.w3.org/2000/svg">
  <defs
     id="defs48" />
  <sodipodi:namedview
     id="namedview46"
     pagecolor="#ffffff"
     bordercolor="#666666"
     borderopacity="1.0"
     inkscape:showpageshadow="2"
     inkscape:pageopacity="0.0"
     inkscape:pagecheckerboard="0"
     inkscape:deskcolor="#d1d1d1"
     showgrid="false"
     inkscape:zoom="20.5"
     inkscape:cx="24"
     inkscape:cy="24"
     inkscape:window-width="2536"
     inkscape:window-height="1370"
     inkscape:window-x="0"
     inkscape:window-y="0"
     inkscape:window-maximized="1"
     inkscape:current-layer="svg44" />
  <path
     d="M33 24c0-3.53-2.04-6.58-5-8.05v4.42l4.91 4.91c.06-.42.09-.85.09-1.28zm5 0c0 1.88-.41 3.65-1.08 5.28l3.03 3.03C41.25 29.82 42 27 42 24c0-8.56-5.99-15.72-14-17.54v4.13c5.78 1.72 10 7.07 10 13.41zM8.55 6L6 8.55 15.45 18H6v12h8l10 10V26.55l8.51 8.51c-1.34 1.03-2.85 1.86-4.51 2.36v4.13c2.75-.63 5.26-1.89 7.37-3.62L39.45 42 42 39.45l-18-18L8.55 6zM24 8l-4.18 4.18L24 16.36V8z"
     id="path42"
     style="fill:#d0ebee;fill-opacity:1" />
</svg>
