<?xml version="1.0" encoding="UTF-8" standalone="no"?>
<svg
   width="20"
   height="20"
   viewBox="0 0 64 64"
   version="1.1"
   id="svg35413"
   sodipodi:docname="steam.svg"
   inkscape:version="1.1 (c68e22c387, 2021-05-23)"
   xmlns:inkscape="http://www.inkscape.org/namespaces/inkscape"
   xmlns:sodipodi="http://sodipodi.sourceforge.net/DTD/sodipodi-0.dtd"
   xmlns="http://www.w3.org/2000/svg"
   xmlns:svg="http://www.w3.org/2000/svg">
  <sodipodi:namedview
     id="namedview7"
     pagecolor="#505050"
     bordercolor="#eeeeee"
     borderopacity="1"
     inkscape:pageshadow="0"
     inkscape:pageopacity="0"
     inkscape:pagecheckerboard="0"
     showgrid="false"
     inkscape:zoom="12.984375"
     inkscape:cx="25.838748"
     inkscape:cy="31.961492"
     inkscape:window-width="2518"
     inkscape:window-height="1398"
     inkscape:window-x="0"
     inkscape:window-y="0"
     inkscape:window-maximized="1"
     inkscape:current-layer="surface1" />
  <defs
     id="defs35417" />
  <g
     id="surface1">
    <path
       style="fill:#d0ebee;fill-opacity:1;fill-rule:nonzero;stroke:none;stroke-width:1.18482"
       d="m 48.760863,12.208258 c -6.618324,0 -11.982405,5.364082 -11.982405,11.982404 v 0.0046 l -7.918846,10.857752 c -0.351744,-0.04627 -0.708115,-0.07405 -1.064487,-0.07868 -2.216907,0.0046 -4.355134,0.828448 -6.002772,2.314099 L 3.964534,31.068166 c -0.018513,0.490588 -0.032398,0.985805 -0.032398,1.481023 0,2.050292 0.1805,4.058929 0.5183581,6.0074 l 14.3612989,5.280775 c -0.0046,0.04166 -0.0046,0.08331 -0.0046,0.12496 0,4.966058 4.021904,8.987961 8.98796,8.987961 4.961428,0 8.983333,-4.021903 8.983333,-8.987961 0,-0.148102 -0.0093,-0.296204 -0.01852,-0.439677 L 46.89572,36.020338 c 0.620179,0.10182 1.240357,0.15273 1.865164,0.15273 6.618322,0 11.982404,-5.364082 11.982404,-11.982406 0,-6.618322 -5.364082,-11.982404 -11.982404,-11.982404 z m 0,3.596111 c 4.632825,0 8.390922,3.753468 8.390922,8.386293 0,4.632828 -3.758097,8.390924 -8.390922,8.390924 -4.632827,0 -8.386295,-3.758096 -8.386295,-8.390924 0,-4.632825 3.753468,-8.386293 8.386295,-8.386293 z m 0,2.397406 c -3.309162,0 -5.988889,2.679727 -5.988889,5.988887 0,3.309163 2.679727,5.993517 5.988889,5.993517 3.309162,0 5.993515,-2.684354 5.993515,-5.993517 0,-3.30916 -2.684353,-5.988887 -5.993515,-5.988887 z M 27.795125,38.570474 c 2.975932,0 5.391852,2.41592 5.391852,5.39185 0,2.980561 -2.41592,5.391851 -5.391852,5.391851 -2.439061,0 -4.572659,-1.633753 -5.206722,-3.984878 l 3.262879,1.323665 c 1.846652,0.749767 3.93397,-0.134218 4.683736,-1.980869 0.74977,-1.846652 -0.134217,-3.933968 -1.980868,-4.683737 l -2.698239,-1.092254 c 0.615551,-0.240667 1.272754,-0.365628 1.939214,-0.365628 z m 0,0"
       id="path35410" />
  </g>
</svg>
