<?xml version="1.0" encoding="UTF-8" standalone="no"?>
<!-- Generator: Adobe Illustrator 19.0.0, SVG Export Plug-In . SVG Version: 6.00 Build 0)  -->

<svg
   version="1.1"
   id="Layer_1"
   x="0px"
   y="0px"
   viewBox="0 0 512 512"
   style="enable-background:new 0 0 512 512;"
   xml:space="preserve"
   sodipodi:docname="02d.svg"
   inkscape:version="1.2.2 (b0a8486541, 2022-12-01)"
   xmlns:inkscape="http://www.inkscape.org/namespaces/inkscape"
   xmlns:sodipodi="http://sodipodi.sourceforge.net/DTD/sodipodi-0.dtd"
   xmlns="http://www.w3.org/2000/svg"
   xmlns:svg="http://www.w3.org/2000/svg"><defs
   id="defs1815" /><sodipodi:namedview
   id="namedview1813"
   pagecolor="#ffffff"
   bordercolor="#666666"
   borderopacity="1.0"
   inkscape:showpageshadow="2"
   inkscape:pageopacity="0.0"
   inkscape:pagecheckerboard="0"
   inkscape:deskcolor="#d1d1d1"
   showgrid="false"
   inkscape:zoom="1.921875"
   inkscape:cx="252.61789"
   inkscape:cy="256"
   inkscape:window-width="2536"
   inkscape:window-height="1370"
   inkscape:window-x="0"
   inkscape:window-y="0"
   inkscape:window-maximized="1"
   inkscape:current-layer="Layer_1" />
<g
   id="g1756"
   style="fill:#d0ebee;fill-opacity:1">
	<g
   id="g1754"
   style="fill:#d0ebee;fill-opacity:1">
		<path
   d="M326.4,44.8c-10.605,0-19.2,8.596-19.2,19.2v12.8c0,10.604,8.595,19.2,19.2,19.2c10.602,0,19.2-8.596,19.2-19.2V64    C345.6,53.396,337.002,44.8,326.4,44.8z"
   id="path1752"
   style="fill:#d0ebee;fill-opacity:1" />
	</g>
</g>
<g
   id="g1762"
   style="fill:#d0ebee;fill-opacity:1">
	<g
   id="g1760"
   style="fill:#d0ebee;fill-opacity:1">
		<path
   d="M422.4,230.4c0-52.934-43.066-96-96-96c-20.945,0-40.852,6.629-57.571,19.172c-10.115,7.589-18.657,17.195-25.083,28.035    c-14.103-5.665-29.432-8.755-45.348-8.755c-65.188,0-118.56,51.56-121.472,116.042C33.499,295.066,0,332.494,0,377.6    c0,49.407,40.195,89.6,89.6,89.6h224c59.992,0,108.8-48.808,108.8-108.8c0-24.882-8.415-47.823-22.523-66.173    C414.363,275.103,422.4,253.435,422.4,230.4z M313.6,428.8h-224c-28.23,0-51.2-22.968-51.2-51.2s22.97-51.2,51.2-51.2H96    c10.605,0,19.2-8.596,19.2-19.2v-12.749c0-45.878,37.325-83.2,83.2-83.2c37.97,0,71.1,25.637,80.567,62.344    c2.188,8.48,9.836,14.405,18.592,14.405H313.6c38.82,0,70.4,31.581,70.4,70.4C384,397.219,352.42,428.8,313.6,428.8z     M371.443,266.316C354.673,255.744,334.848,249.6,313.6,249.6h-2.132c-7.541-19.06-19.654-35.523-34.843-48.269    c10.13-17.464,28.82-28.531,49.775-28.531c31.761,0,57.6,25.838,57.6,57.6C384,243.697,379.525,256.23,371.443,266.316z"
   id="path1758"
   style="fill:#d0ebee;fill-opacity:1" />
	</g>
</g>
<g
   id="g1768"
   style="fill:#d0ebee;fill-opacity:1">
	<g
   id="g1766"
   style="fill:#d0ebee;fill-opacity:1">
		<path
   d="M492.8,211.2H480c-10.605,0-19.2,8.596-19.2,19.2s8.595,19.2,19.2,19.2h12.8c10.602,0,19.2-8.596,19.2-19.2    S503.402,211.2,492.8,211.2z"
   id="path1764"
   style="fill:#d0ebee;fill-opacity:1" />
	</g>
</g>
<g
   id="g1774"
   style="fill:#d0ebee;fill-opacity:1">
	<g
   id="g1772"
   style="fill:#d0ebee;fill-opacity:1">
		<path
   d="M457.637,99.159c-7.497-7.496-19.654-7.496-27.153,0.003l-9.05,9.051c-7.497,7.498-7.497,19.656,0.003,27.154    c3.748,3.748,8.66,5.623,13.574,5.623c4.913,0,9.828-1.875,13.577-5.626l9.05-9.051    C465.138,118.813,465.138,106.656,457.637,99.159z"
   id="path1770"
   style="fill:#d0ebee;fill-opacity:1" />
	</g>
</g>
<g
   id="g1780"
   style="fill:#d0ebee;fill-opacity:1">
	<g
   id="g1778"
   style="fill:#d0ebee;fill-opacity:1">
		<path
   d="M231.364,108.211l-9.05-9.05c-7.5-7.497-19.654-7.498-27.155,0c-7.497,7.497-7.497,19.653,0,27.153l9.051,9.05    c3.75,3.75,8.663,5.626,13.577,5.626c4.913,0,9.828-1.875,13.574-5.624C238.861,127.868,238.861,115.712,231.364,108.211z"
   id="path1776"
   style="fill:#d0ebee;fill-opacity:1" />
	</g>
</g>
<g
   id="g1782">
</g>
<g
   id="g1784">
</g>
<g
   id="g1786">
</g>
<g
   id="g1788">
</g>
<g
   id="g1790">
</g>
<g
   id="g1792">
</g>
<g
   id="g1794">
</g>
<g
   id="g1796">
</g>
<g
   id="g1798">
</g>
<g
   id="g1800">
</g>
<g
   id="g1802">
</g>
<g
   id="g1804">
</g>
<g
   id="g1806">
</g>
<g
   id="g1808">
</g>
<g
   id="g1810">
</g>
</svg>
