<?xml version="1.0" encoding="UTF-8" standalone="no"?>
<svg
   xmlns:dc="http://purl.org/dc/elements/1.1/"
   xmlns:cc="http://creativecommons.org/ns#"
   xmlns:rdf="http://www.w3.org/1999/02/22-rdf-syntax-ns#"
   xmlns:svg="http://www.w3.org/2000/svg"
   xmlns="http://www.w3.org/2000/svg"
   xmlns:sodipodi="http://sodipodi.sourceforge.net/DTD/sodipodi-0.dtd"
   xmlns:inkscape="http://www.inkscape.org/namespaces/inkscape"
   width="64px"
   height="64px"
   viewBox="0 0 64 64"
   version="1.1"
   id="svg29"
   sodipodi:docname="lutris.svg"
   inkscape:version="0.92.5 (2060ec1f9f, 2020-04-08)">
  <metadata
     id="metadata35">
    <rdf:RDF>
      <cc:Work
         rdf:about="">
        <dc:format>image/svg+xml</dc:format>
        <dc:type
           rdf:resource="http://purl.org/dc/dcmitype/StillImage" />
      </cc:Work>
    </rdf:RDF>
  </metadata>
  <defs
     id="defs33" />
  <sodipodi:namedview
     pagecolor="#ffffff"
     bordercolor="#666666"
     borderopacity="1"
     objecttolerance="10"
     gridtolerance="10"
     guidetolerance="10"
     inkscape:pageopacity="0"
     inkscape:pageshadow="2"
     inkscape:window-width="2492"
     inkscape:window-height="1384"
     id="namedview31"
     showgrid="false"
     inkscape:zoom="5.2149125"
     inkscape:cx="21.223496"
     inkscape:cy="30.686439"
     inkscape:window-x="68"
     inkscape:window-y="28"
     inkscape:window-maximized="1"
     inkscape:current-layer="svg29" />
  <g
     id="surface1">
    <path
       style="stroke:none;fill-rule:nonzero;fill:#52677c;fill-opacity:1"
       d="M 51.59375 3.144531 C 51.929688 3.15625 52.195312 3.433594 52.195312 3.769531 L 52.195312 6.417969 C 52.195312 6.761719 51.917969 7.042969 51.570312 7.042969 C 51.03125 7.042969 50.515625 6.835938 49.96875 6.5625 C 49.421875 6.289062 48.886719 5.941406 48.484375 5.535156 C 48.179688 5.234375 48.265625 4.726562 48.644531 4.535156 L 51.292969 3.210938 C 51.386719 3.164062 51.488281 3.140625 51.59375 3.144531 Z M 51.59375 3.144531 "
       id="path2" />
    <path
       style=" stroke:none;fill-rule:nonzero;fill:rgb(25.882354%,25.882354%,25.882354%);fill-opacity:1;"
       d="M 56.894531 8.4375 C 57.621094 8.4375 58.207031 9.027344 58.207031 9.75 L 58.207031 9.769531 C 58.207031 10.496094 57.621094 11.082031 56.894531 11.082031 C 56.167969 11.082031 55.582031 10.496094 55.582031 9.769531 L 55.582031 9.75 C 55.582031 9.027344 56.167969 8.4375 56.894531 8.4375 Z M 56.894531 8.4375 "
       id="path4" />
    <path
       style=" stroke:none;fill-rule:nonzero;fill:rgb(61.960787%,61.960787%,61.960787%);fill-opacity:1;"
       d="M 56.40625 8.769531 C 56.683594 8.769531 56.902344 8.988281 56.902344 9.261719 L 56.902344 9.269531 C 56.902344 9.539062 56.683594 9.761719 56.40625 9.761719 C 56.132812 9.761719 55.910156 9.539062 55.910156 9.269531 L 55.910156 9.261719 C 55.910156 8.988281 56.132812 8.769531 56.40625 8.769531 Z M 56.40625 8.769531 "
       id="path6" />
    <path
       style="stroke:none;fill-rule:nonzero;fill:#1f2437;fill-opacity:1"
       d="M 31.75 5.792969 C 46.363281 5.792969 58.207031 17.636719 58.207031 32.25 C 58.207031 46.863281 46.363281 58.707031 31.75 58.707031 C 17.136719 58.707031 5.292969 46.863281 5.292969 32.25 C 5.292969 17.636719 17.136719 5.792969 31.75 5.792969 Z M 31.75 5.792969 "
       id="path8" />
    <path
       style="stroke:none;fill-rule:nonzero;fill:#52677c;fill-opacity:1"
       d="M 31.75 3.144531 C 13.230469 3.144531 2.644531 16.125 2.644531 32.25 C 2.644531 48.375 15.625 61.355469 31.75 61.355469 C 42.332031 61.355469 56.886719 54.738281 59.53125 40.1875 C 55.675781 43.4375 48.816406 53.65625 34.265625 53.625 C 21.988281 53.597656 17.199219 44.15625 17.199219 34.894531 C 17.199219 16.375 38.363281 16.375 50.269531 20.34375 C 53.578125 21.667969 55.5625 21.667969 58.207031 19.019531 C 62.175781 15.050781 59.585938 11.582031 57.546875 10.753906 C 57.546875 9.429688 58.207031 7.113281 52.917969 4.46875 C 49.183594 2.949219 45.640625 2.484375 41.011719 4.46875 C 34.394531 3.144531 34.394531 3.144531 31.75 3.144531 Z M 31.75 3.144531 "
       id="path12" />
    <path
       style="stroke:none;fill-rule:nonzero;fill:#9ba9b2;fill-opacity:1"
       d="M 10.582031 32.25 C 10.582031 46.953125 19.84375 56.0625 34.394531 56.0625 C 50.269531 56.0625 59.53125 40.1875 59.53125 40.1875 C 58.207031 41.511719 47.625 51.96875 34.398438 52.039062 C 23.8125 52.09375 17.199219 45.480469 17.199219 34.894531 C 17.199219 16.375 38.363281 16.375 50.269531 20.34375 C 53.578125 21.667969 55.5625 21.667969 58.207031 19.019531 C 62.175781 15.050781 59.585938 11.582031 57.546875 10.753906 C 58.84375 11.753906 55.5625 13.730469 51.59375 12.40625 C 26.457031 7.113281 11.125 14.867188 10.582031 32.25 Z M 10.582031 32.25 "
       id="path14" />
    <path
       style=" stroke:none;fill-rule:nonzero;fill:rgb(25.882354%,25.882354%,25.882354%);fill-opacity:1;"
       d="M 51.578125 10.421875 C 52.488281 10.421875 53.222656 11.15625 53.222656 12.0625 L 53.222656 12.085938 C 53.222656 12.992188 52.488281 13.730469 51.578125 13.730469 C 50.671875 13.730469 49.9375 12.992188 49.9375 12.085938 L 49.9375 12.0625 C 49.9375 11.15625 50.671875 10.421875 51.578125 10.421875 Z M 51.578125 10.421875 "
       id="path16" />
    <path
       style=" stroke:none;fill-rule:nonzero;fill:rgb(87.843138%,87.843138%,87.843138%);fill-opacity:1;"
       d="M 50.972656 10.835938 C 51.3125 10.835938 51.589844 11.109375 51.589844 11.449219 L 51.589844 11.460938 C 51.589844 11.800781 51.3125 12.074219 50.972656 12.074219 C 50.628906 12.074219 50.351562 11.800781 50.351562 11.460938 L 50.351562 11.449219 C 50.351562 11.109375 50.628906 10.835938 50.972656 10.835938 Z M 50.972656 10.835938 "
       id="path18" />
    <path
       style="stroke:none;fill-rule:nonzero;fill:#9ba9b2;fill-opacity:1"
       d="M 41.648438 3.183594 C 41.3125 3.195312 41.046875 3.472656 41.046875 3.808594 L 41.046875 6.453125 C 41.046875 6.796875 41.328125 7.078125 41.671875 7.078125 C 42.210938 7.078125 42.730469 6.871094 43.273438 6.597656 C 43.820312 6.324219 44.355469 5.976562 44.757812 5.570312 C 45.0625 5.269531 44.980469 4.761719 44.597656 4.570312 L 41.953125 3.25 C 41.859375 3.203125 41.753906 3.179688 41.648438 3.183594 Z M 41.648438 3.183594 "
       id="path20" />
    <path
       style=" stroke:none;fill-rule:nonzero;fill:rgb(25.882354%,25.882354%,25.882354%);fill-opacity:1;"
       d="M 58.871094 12.40625 C 58.617188 12.15625 58.316406 11.984375 57.996094 11.898438 C 57.734375 12.984375 57.546875 13.398438 55.535156 13.382812 C 55.390625 14.019531 55.566406 14.714844 56.0625 15.210938 C 56.835938 15.984375 58.078125 15.984375 58.851562 15.210938 L 58.871094 15.191406 C 59.640625 14.421875 59.640625 13.179688 58.871094 12.40625 Z M 58.871094 12.40625 "
       id="path22" />
    <path
       style="stroke:none;fill-rule:nonzero;fill:#52677c;fill-opacity:1"
       d="M 42.082031 3.808594 C 41.851562 3.816406 41.671875 4.003906 41.671875 4.230469 L 41.671875 6.027344 C 41.671875 6.261719 41.863281 6.453125 42.097656 6.453125 C 42.460938 6.453125 42.8125 6.3125 43.183594 6.128906 C 43.554688 5.941406 43.917969 5.707031 44.195312 5.429688 C 44.398438 5.226562 44.34375 4.878906 44.082031 4.75 L 42.285156 3.851562 C 42.222656 3.820312 42.152344 3.804688 42.082031 3.808594 Z M 42.082031 3.808594 "
       id="path24" />
    <path
       style="stroke:none;fill-rule:nonzero;fill:#52677c;fill-opacity:1"
       d="M 19.183594 15.050781 C 18.519531 15.714844 15.875 18.820312 17.199219 20.144531 C 19.84375 22.988281 25.136719 21.667969 26.476562 24.105469 C 27.585938 26.121094 30.425781 30.925781 25.136719 30.925781 C 23.152344 30.925781 23.261719 28.246094 20.449219 27.417969 C 17.640625 26.589844 13.230469 26.296875 11.90625 29.605469 C 10.582031 32.25 10.582031 34.894531 10.582031 36.21875 L 6.613281 30.925781 C 9.25 24.050781 20.503906 11.746094 19.183594 15.050781 Z M 19.183594 15.050781 "
       id="path26" />
  </g>
</svg>
