<?xml version="1.0" encoding="UTF-8" standalone="no"?>
<svg
   xmlns:dc="http://purl.org/dc/elements/1.1/"
   xmlns:cc="http://creativecommons.org/ns#"
   xmlns:rdf="http://www.w3.org/1999/02/22-rdf-syntax-ns#"
   xmlns:svg="http://www.w3.org/2000/svg"
   xmlns="http://www.w3.org/2000/svg"
   xmlns:sodipodi="http://sodipodi.sourceforge.net/DTD/sodipodi-0.dtd"
   xmlns:inkscape="http://www.inkscape.org/namespaces/inkscape"
   width="16"
   height="16"
   version="1.1"
   id="svg9"
   sodipodi:docname="pamac-tray-update.svg"
   inkscape:version="1.0.2 (e86c870879, 2021-01-15)">
  <metadata
     id="metadata13">
    <rdf:RDF>
      <cc:Work
         rdf:about="">
        <dc:format>image/svg+xml</dc:format>
        <dc:type
           rdf:resource="http://purl.org/dc/dcmitype/StillImage" />
      </cc:Work>
    </rdf:RDF>
  </metadata>
  <sodipodi:namedview
     pagecolor="#ffffff"
     bordercolor="#666666"
     borderopacity="1"
     objecttolerance="10"
     gridtolerance="10"
     guidetolerance="10"
     inkscape:pageopacity="0"
     inkscape:pageshadow="2"
     inkscape:window-width="2560"
     inkscape:window-height="1403"
     id="namedview11"
     showgrid="false"
     inkscape:zoom="59"
     inkscape:cx="9.1212115"
     inkscape:cy="10.102619"
     inkscape:window-x="0"
     inkscape:window-y="0"
     inkscape:window-maximized="1"
     inkscape:current-layer="layer4"
     inkscape:document-rotation="0" />
  <defs
     id="defs3">
    <style
       id="current-color-scheme"
       type="text/css">
   .ColorScheme-Text { color:#dfdfdf; } .ColorScheme-Highlight { color:#4285f4; }
  </style>
  </defs>
  <path
     style="fill:currentColor;fill-rule:evenodd"
     class="ColorScheme-Text"
     d="M 8,0.99996 C 6.1588,2.7236 3.0582,3.9918 2,4.25 2,8.9164 4.25,14.222 8,15 11.75,14.222 14,8.9164 14,4.25 12.941,3.9918 9.8411,2.7236 8,0.99996 Z M 7,4 H 9 V 6 H 7 Z M 7,7 H 9 V 12 H 7 Z"
     id="path5" />
  <g
     inkscape:groupmode="layer"
     id="layer4"
     inkscape:label="Layer 2">
    <path
       style="fill:#733447;fill-opacity:1;stroke-width:0.0677966"
       d="M 7.406776,14.806729 C 6.522722,14.492745 5.9218898,14.084619 5.1335418,13.262592 3.3660848,11.41963 2.2604861,8.4517221 2.0125139,4.8843937 L 1.9691328,4.2603128 2.1625304,4.2136416 C 2.5618377,4.1172797 3.905841,3.5689514 4.6427488,3.2017586 5.7356558,2.657176 6.690171,2.068869 7.38227,1.5132791 L 7.983047,1.0309988 8.605636,1.5170665 c 1.325528,1.0348653 3.23933,2.045412 4.919783,2.5977981 l 0.457627,0.1504277 -2.03e-4,0.2826081 c -0.0015,1.8180099 -0.605587,4.4110149 -1.431039,6.1425436 -1.046622,2.19547 -2.398533,3.580011 -4.050657,4.148425 -0.468584,0.161207 -0.557321,0.158601 -1.094371,-0.03214 z M 9.01778,9.4915255 9,7 8,6.981238 7,6.962476 V 9.4727641 11.983051 H 8.017784 9.035569 Z M 8.999996,5 V 4.0169492 l -1,-0.018762 -1,-0.018762 v 1.0205739 1.020574 l 1,-0.018762 1,-0.018762 z"
       id="path3718-6"
       inkscape:connector-curvature="0" />
  </g>
  <g
     inkscape:groupmode="layer"
     id="layer3"
     inkscape:label="Layer 1" />
</svg>
